<?xml version="1.0" encoding="UTF-8"?>
<!DOCTYPE svg PUBLIC "-//W3C//DTD SVG 1.1//EN" "http://www.w3.org/Graphics/SVG/1.1/DTD/svg11.dtd">
<svg xmlns="http://www.w3.org/2000/svg" version="1.1" width="1024px" height="1024px" style="shape-rendering:geometricPrecision; text-rendering:geometricPrecision; image-rendering:optimizeQuality; fill-rule:evenodd; clip-rule:evenodd" xmlns:xlink="http://www.w3.org/1999/xlink">
<g><path style="opacity:0.984" fill="#254365" d="M 211.5,366.5 C 213.04,373.714 213.707,381.047 213.5,388.5C 213.499,394.011 213.166,399.344 212.5,404.5C 212.827,394.652 212.494,384.986 211.5,375.5C 209.302,364.554 202.635,360.387 191.5,363C 189.677,363.997 188.01,365.164 186.5,366.5C 185.833,366.5 185.167,366.5 184.5,366.5C 191.094,359.085 198.76,357.919 207.5,363C 208.705,364.376 210.038,365.542 211.5,366.5 Z"/></g>
<g><path style="opacity:0.004" fill="#3e607d" d="M 211.5,365.5 C 212.833,366.167 212.833,366.167 211.5,365.5 Z"/></g>
<g><path style="opacity:0.612" fill="#3f6180" d="M 184.5,366.5 C 184.34,368.153 183.674,369.486 182.5,370.5C 182.229,368.62 182.896,367.287 184.5,366.5 Z"/></g>
<g><path style="opacity:0.997" fill="#174671" d="M 339.5,369.5 C 340.436,381.129 340.77,392.796 340.5,404.5C 336.351,413.897 329.351,416.731 319.5,413C 316.255,411.019 314.089,408.186 313,404.5C 312.333,393.167 312.333,381.833 313,370.5C 317.395,362.897 323.895,360.397 332.5,363C 335.606,364.425 337.94,366.592 339.5,369.5 Z"/></g>
<g><path style="opacity:0.998" fill="#174571" d="M 211.5,375.5 C 211.808,385.553 211.475,395.553 210.5,405.5C 210.97,406.463 211.637,406.463 212.5,405.5C 212.34,407.153 211.674,408.486 210.5,409.5C 210.631,408.761 210.464,408.094 210,407.5C 205.874,413.97 200.041,416.137 192.5,414C 187.796,411.467 184.796,407.633 183.5,402.5C 183.334,392.161 183.5,381.828 184,371.5C 184.847,369.807 185.68,368.14 186.5,366.5C 188.01,365.164 189.677,363.997 191.5,363C 202.635,360.387 209.302,364.554 211.5,375.5 Z"/></g>
<g><path style="opacity:0.004" fill="#365d80" d="M 179.5,382.5 C 180.833,383.167 180.833,383.167 179.5,382.5 Z"/></g>
<g><path style="opacity:1" fill="#193355" d="M 339.5,369.5 C 340.167,369.833 340.833,370.167 341.5,370.5C 342.819,381.931 342.819,393.265 341.5,404.5C 341.167,404.5 340.833,404.5 340.5,404.5C 340.77,392.796 340.436,381.129 339.5,369.5 Z"/></g>
<g><path style="opacity:0.004" fill="#375c7c" d="M 168.5,387.5 C 169.833,388.167 169.833,388.167 168.5,387.5 Z"/></g>
<g><path style="opacity:0.91" fill="#264566" d="M 382.5,390.5 C 377.637,390.819 372.97,390.486 368.5,389.5C 373.291,388.684 377.957,389.018 382.5,390.5 Z"/></g>
<g><path style="opacity:0.004" fill="#355d7f" d="M 179.5,390.5 C 180.833,391.167 180.833,391.167 179.5,390.5 Z"/></g>
<g><path style="opacity:0.978" fill="#011f46" d="M 298.5,397.5 C 298.5,395.5 298.5,393.5 298.5,391.5C 274.167,391.5 249.833,391.5 225.5,391.5C 225.804,397.577 225.304,403.577 224,409.5C 223.506,407.866 223.34,406.199 223.5,404.5C 223.5,404.167 223.5,403.833 223.5,403.5C 224.485,399.366 224.818,395.032 224.5,390.5C 249.5,390.5 274.5,390.5 299.5,390.5C 299.802,393.059 299.468,395.393 298.5,397.5 Z"/></g>
<g><path style="opacity:0.997" fill="#184671" d="M 167.5,391.5 C 168.5,391.5 169.5,391.5 170.5,391.5C 170.334,397.176 170.501,402.843 171,408.5C 171.232,409.737 171.732,410.737 172.5,411.5C 175.719,420.558 182.052,425.725 191.5,427C 190.584,426.722 189.918,426.222 189.5,425.5C 193.466,426.162 197.466,426.495 201.5,426.5C 198.695,427.319 195.695,427.819 192.5,428C 197.257,428.81 201.924,428.476 206.5,427C 205.207,426.51 203.873,426.343 202.5,426.5C 204.302,425.542 206.302,424.875 208.5,424.5C 207.537,425.363 207.537,426.03 208.5,426.5C 211.834,425.169 214.834,423.335 217.5,421C 216.906,420.536 216.239,420.369 215.5,420.5C 216.5,418.833 217.833,417.5 219.5,416.5C 219.5,417.167 219.5,417.833 219.5,418.5C 217.94,420.129 218.273,421.296 220.5,422C 219.289,423.113 219.289,424.28 220.5,425.5C 219.167,426.167 217.833,426.833 216.5,427.5C 217.167,427.833 217.833,428.167 218.5,428.5C 217.24,429.382 216.074,430.382 215,431.5C 214.167,430.5 213.333,429.5 212.5,428.5C 212.891,429.891 212.058,430.891 210,431.5C 207.503,429.522 204.669,429.022 201.5,430C 201.07,430.92 200.736,431.753 200.5,432.5C 196.992,429.934 196.659,430.434 199.5,434C 198.874,434.75 198.374,435.584 198,436.5C 197.361,433.772 196.194,433.272 194.5,435C 196.985,436.223 197.152,437.723 195,439.5C 193.561,437.986 192.061,437.653 190.5,438.5C 191.833,439.5 191.833,440.5 190.5,441.5C 191,441.833 191.5,442.167 192,442.5C 195.186,443.242 198.519,443.242 202,442.5C 202.717,443.044 203.217,443.711 203.5,444.5C 186.163,444.333 168.83,444.5 151.5,445C 150.288,446.107 150.621,446.607 152.5,446.5C 148.423,448.086 145.923,451.086 145,455.5C 144.5,506.166 144.333,556.832 144.5,607.5C 145.34,610.361 146.673,613.027 148.5,615.5C 147.542,615.047 146.708,614.381 146,613.5C 145.383,614.449 145.549,615.282 146.5,616C 148.818,617.993 151.484,619.159 154.5,619.5C 190.329,620.498 226.329,620.832 262.5,620.5C 266.647,621.325 270.981,621.825 275.5,622C 276.546,623.539 277.879,623.705 279.5,622.5C 280.647,622.818 281.481,623.484 282,624.5C 283,624.167 284,623.833 285,623.5C 286.939,627.279 289.106,630.946 291.5,634.5C 289.927,636.836 288.594,636.836 287.5,634.5C 286.167,635.833 284.833,635.833 283.5,634.5C 282.289,635.274 282.289,636.107 283.5,637C 282.175,636.852 281.008,637.018 280,637.5C 279.5,636.333 278.667,635.5 277.5,635C 277.833,634.667 278.167,634.333 278.5,634C 276.826,632.494 275.826,630.661 275.5,628.5C 273.641,628.461 272.308,629.294 271.5,631C 275.376,630.651 275.376,631.484 271.5,633.5C 272.5,634.167 273.5,634.833 274.5,635.5C 272.816,637.622 270.65,638.956 268,639.5C 250.339,639.777 232.673,639.444 215,638.5C 212.393,639.123 209.893,639.79 207.5,640.5C 186.833,640.5 166.167,640.5 145.5,640.5C 135.389,636.896 127.889,630.229 123,620.5C 122.536,621.094 122.369,621.761 122.5,622.5C 121.069,621.22 120.402,619.553 120.5,617.5C 121.222,617.918 121.722,618.584 122,619.5C 121.51,552.222 121.344,484.888 121.5,417.5C 121.5,415.833 121.5,414.167 121.5,412.5C 124.039,403.786 129.372,397.286 137.5,393C 147.42,391.577 157.42,391.077 167.5,391.5 Z"/></g>
<g><path style="opacity:0.412" fill="#396083" d="M 170.5,390.5 C 170.5,390.167 170.5,389.833 170.5,389.5C 172.453,395.074 173.12,401.074 172.5,407.5C 171.833,401.833 171.167,396.167 170.5,390.5 Z"/></g>
<g><path style="opacity:0.997" fill="#174571" d="M 298.5,397.5 C 297.967,413.452 305.3,423.618 320.5,428C 324.833,428.667 329.167,428.667 333.5,428C 333.833,427.667 334.167,427.333 334.5,427C 333.552,426.517 332.552,426.351 331.5,426.5C 332.568,425.566 333.901,425.232 335.5,425.5C 335.5,426.167 335.833,426.5 336.5,426.5C 335.402,427.397 335.402,428.23 336.5,429C 334.527,429.495 332.527,429.662 330.5,429.5C 330.387,432.049 331.054,434.382 332.5,436.5C 331.438,439.203 329.438,440.703 326.5,441C 326.957,441.414 327.291,441.914 327.5,442.5C 319.01,443.167 310.676,443.833 302.5,444.5C 269.5,444.5 236.5,444.5 203.5,444.5C 203.217,443.711 202.717,443.044 202,442.5C 198.519,443.242 195.186,443.242 192,442.5C 191.5,442.167 191,441.833 190.5,441.5C 191.833,440.5 191.833,439.5 190.5,438.5C 192.061,437.653 193.561,437.986 195,439.5C 197.152,437.723 196.985,436.223 194.5,435C 196.194,433.272 197.361,433.772 198,436.5C 198.374,435.584 198.874,434.75 199.5,434C 196.659,430.434 196.992,429.934 200.5,432.5C 200.736,431.753 201.07,430.92 201.5,430C 204.669,429.022 207.503,429.522 210,431.5C 212.058,430.891 212.891,429.891 212.5,428.5C 213.333,429.5 214.167,430.5 215,431.5C 216.074,430.382 217.24,429.382 218.5,428.5C 217.833,428.167 217.167,427.833 216.5,427.5C 217.833,426.833 219.167,426.167 220.5,425.5C 219.289,424.28 219.289,423.113 220.5,422C 218.273,421.296 217.94,420.129 219.5,418.5C 221.007,416.711 222.34,414.711 223.5,412.5C 223.043,411.702 222.376,411.369 221.5,411.5C 221.927,408.99 222.593,406.657 223.5,404.5C 223.34,406.199 223.506,407.866 224,409.5C 225.304,403.577 225.804,397.577 225.5,391.5C 249.833,391.5 274.167,391.5 298.5,391.5C 298.5,393.5 298.5,395.5 298.5,397.5 Z"/></g>
<g><path style="opacity:0.996" fill="#153355" d="M 341.5,370.5 C 340.833,370.167 340.167,369.833 339.5,369.5C 337.94,366.592 335.606,364.425 332.5,363C 323.895,360.397 317.395,362.897 313,370.5C 312.333,381.833 312.333,393.167 313,404.5C 314.089,408.186 316.255,411.019 319.5,413C 329.351,416.731 336.351,413.897 340.5,404.5C 340.833,404.5 341.167,404.5 341.5,404.5C 341.5,405.5 341.5,406.5 341.5,407.5C 336.684,415.499 329.684,418.332 320.5,416C 313.854,412.515 310.187,407.015 309.5,399.5C 309.755,390.326 310.255,380.659 311,370.5C 316.414,360.097 324.581,357.264 335.5,362C 338.523,364.177 340.523,367.011 341.5,370.5 Z"/></g>
<g><path style="opacity:0.997" fill="#174570" d="M 382.5,390.5 C 383.791,390.263 384.791,390.596 385.5,391.5C 384.761,391.369 384.094,391.536 383.5,392C 390.972,395.472 396.472,400.972 400,408.5C 400.464,407.906 400.631,407.239 400.5,406.5C 401.674,407.514 402.34,408.847 402.5,410.5C 401.637,409.537 400.97,409.537 400.5,410.5C 401.393,413.084 401.726,415.751 401.5,418.5C 400.747,424.013 400.081,429.68 399.5,435.5C 399.994,447.563 400.327,459.563 400.5,471.5C 400.125,473.459 399.459,475.293 398.5,477C 399.827,496.449 400.494,516.116 400.5,536C 400.425,560.234 400.091,584.067 399.5,607.5C 399.668,609.171 400.335,610.504 401.5,611.5C 401.142,614.267 400.475,616.933 399.5,619.5C 397.551,626.219 393.551,631.386 387.5,635C 384.029,637.072 380.362,638.572 376.5,639.5C 320.208,640.492 263.875,640.825 207.5,640.5C 209.893,639.79 212.393,639.123 215,638.5C 232.673,639.444 250.339,639.777 268,639.5C 270.65,638.956 272.816,637.622 274.5,635.5C 273.5,634.833 272.5,634.167 271.5,633.5C 275.376,631.484 275.376,630.651 271.5,631C 272.308,629.294 273.641,628.461 275.5,628.5C 275.826,630.661 276.826,632.494 278.5,634C 278.167,634.333 277.833,634.667 277.5,635C 278.667,635.5 279.5,636.333 280,637.5C 281.008,637.018 282.175,636.852 283.5,637C 282.289,636.107 282.289,635.274 283.5,634.5C 284.833,635.833 286.167,635.833 287.5,634.5C 288.594,636.836 289.927,636.836 291.5,634.5C 289.106,630.946 286.939,627.279 285,623.5C 284,623.833 283,624.167 282,624.5C 281.481,623.484 280.647,622.818 279.5,622.5C 277.879,623.705 276.546,623.539 275.5,622C 270.981,621.825 266.647,621.325 262.5,620.5C 297.502,620.667 332.502,620.5 367.5,620C 369.932,618.913 369.598,618.413 366.5,618.5C 372.412,617.089 376.246,613.423 378,607.5C 378.667,556.833 378.667,506.167 378,455.5C 376.538,450.548 373.371,447.548 368.5,446.5C 368.5,446.167 368.5,445.833 368.5,445.5C 347.879,444.499 325.879,444.166 302.5,444.5C 310.676,443.833 319.01,443.167 327.5,442.5C 327.291,441.914 326.957,441.414 326.5,441C 329.438,440.703 331.438,439.203 332.5,436.5C 331.054,434.382 330.387,432.049 330.5,429.5C 332.527,429.662 334.527,429.495 336.5,429C 335.402,428.23 335.402,427.397 336.5,426.5C 346.832,422.877 352.665,415.544 354,404.5C 354.499,400.179 354.666,395.846 354.5,391.5C 364.015,391.827 373.348,391.494 382.5,390.5 Z"/></g>
<g><path style="opacity:0.004" fill="#3b5e7b" d="M 389.5,391.5 C 390.833,392.167 390.833,392.167 389.5,391.5 Z"/></g>
<g><path style="opacity:0.008" fill="#335b80" d="M 214.5,393.5 C 215.525,393.897 215.692,394.563 215,395.5C 214.536,394.906 214.369,394.239 214.5,393.5 Z"/></g>
<g><path style="opacity:0.982" fill="#001533" d="M 184.5,366.5 C 185.167,366.5 185.833,366.5 186.5,366.5C 185.68,368.14 184.847,369.807 184,371.5C 183.5,381.828 183.334,392.161 183.5,402.5C 182.506,392.013 182.172,381.346 182.5,370.5C 183.674,369.486 184.34,368.153 184.5,366.5 Z"/></g>
<g><path style="opacity:1" fill="#011839" d="M 211.5,375.5 C 212.494,384.986 212.827,394.652 212.5,404.5C 212.5,404.833 212.5,405.167 212.5,405.5C 211.637,406.463 210.97,406.463 210.5,405.5C 211.475,395.553 211.808,385.553 211.5,375.5 Z"/></g>
<g><path style="opacity:0.004" fill="#335a7f" d="M 309.5,399.5 C 308.833,398.167 308.833,398.167 309.5,399.5 Z"/></g>
<g><path style="opacity:0.969" fill="#173557" d="M 385.5,391.5 C 386.833,391.833 388.167,392.167 389.5,392.5C 394.693,396.02 398.359,400.686 400.5,406.5C 400.631,407.239 400.464,407.906 400,408.5C 396.472,400.972 390.972,395.472 383.5,392C 384.094,391.536 384.761,391.369 385.5,391.5 Z"/></g>
<g><path style="opacity:1" fill="#011838" d="M 167.5,391.5 C 168.209,390.596 169.209,390.263 170.5,390.5C 171.167,396.167 171.833,401.833 172.5,407.5C 172.5,408.833 172.5,410.167 172.5,411.5C 171.732,410.737 171.232,409.737 171,408.5C 170.501,402.843 170.334,397.176 170.5,391.5C 169.5,391.5 168.5,391.5 167.5,391.5 Z"/></g>
<g><path style="opacity:0.992" fill="#143458" d="M 368.5,389.5 C 372.97,390.486 377.637,390.819 382.5,390.5C 373.348,391.494 364.015,391.827 354.5,391.5C 354.666,395.846 354.499,400.179 354,404.5C 352.665,415.544 346.832,422.877 336.5,426.5C 335.833,426.5 335.5,426.167 335.5,425.5C 346.038,421.134 351.705,413.134 352.5,401.5C 351.407,397.892 351.24,394.225 352,390.5C 354.667,389.833 357.333,389.167 360,388.5C 362.719,389.444 365.552,389.777 368.5,389.5 Z"/></g>
<g><path style="opacity:0.984" fill="#153153" d="M 170.5,389.5 C 170.5,389.833 170.5,390.167 170.5,390.5C 169.209,390.263 168.209,390.596 167.5,391.5C 157.42,391.077 147.42,391.577 137.5,393C 129.372,397.286 124.039,403.786 121.5,412.5C 120.833,413.5 120.167,414.5 119.5,415.5C 122.769,398.064 133.269,389.064 151,388.5C 157.41,389.478 163.91,389.811 170.5,389.5 Z"/></g>
<g><path style="opacity:0.004" fill="#335c7f" d="M 179.5,405.5 C 180.833,406.167 180.833,406.167 179.5,405.5 Z"/></g>
<g><path style="opacity:0.008" fill="#325b80" d="M 213.5,406.5 C 214.833,407.167 214.833,407.167 213.5,406.5 Z"/></g>
<g><path style="opacity:0.005" fill="#30587d" d="M 341.5,407.5 C 343.892,406.632 344.059,407.299 342,409.5C 341.536,408.906 341.369,408.239 341.5,407.5 Z"/></g>
<g><path style="opacity:0.008" fill="#335880" d="M 212.5,408.5 C 213.833,409.167 213.833,409.167 212.5,408.5 Z"/></g>
<g><path style="opacity:0.004" fill="#335a7f" d="M 174.5,409.5 C 175.833,410.167 175.833,410.167 174.5,409.5 Z"/></g>
<g><path style="opacity:0.992" fill="#1b3a5d" d="M 172.5,407.5 C 173.462,411.42 175.462,414.753 178.5,417.5C 181.242,421.377 184.909,424.044 189.5,425.5C 189.918,426.222 190.584,426.722 191.5,427C 182.052,425.725 175.719,420.558 172.5,411.5C 172.5,410.167 172.5,408.833 172.5,407.5 Z"/></g>
<g><path style="opacity:0.004" fill="#335b84" d="M 185.5,412.5 C 185.103,413.525 184.437,413.692 183.5,413C 184.094,412.536 184.761,412.369 185.5,412.5 Z"/></g>
<g><path style="opacity:1" fill="#0e2a4c" d="M 221.5,411.5 C 222.376,411.369 223.043,411.702 223.5,412.5C 222.34,414.711 221.007,416.711 219.5,418.5C 219.5,417.833 219.5,417.167 219.5,416.5C 219.893,414.716 220.559,413.05 221.5,411.5 Z"/></g>
<g><path style="opacity:0.012" fill="#2f587c" d="M 188.5,414.5 C 187.833,415.167 187.833,415.167 188.5,414.5 Z"/></g>
<g><path style="opacity:0.996" fill="#224061" d="M 182.5,370.5 C 182.172,381.346 182.506,392.013 183.5,402.5C 184.796,407.633 187.796,411.467 192.5,414C 200.041,416.137 205.874,413.97 210,407.5C 210.464,408.094 210.631,408.761 210.5,409.5C 209.746,412.091 208.079,413.924 205.5,415C 199.705,418.452 194.038,418.285 188.5,414.5C 187.71,413.599 186.71,412.932 185.5,412.5C 184.088,410.002 182.921,407.336 182,404.5C 181.174,392.992 181.341,381.659 182.5,370.5 Z"/></g>
<g><path style="opacity:0.008" fill="#335b7f" d="M 178.5,416.5 C 179.833,417.167 179.833,417.167 178.5,416.5 Z"/></g>
<g><path style="opacity:0.004" fill="#325b82" d="M 309.5,416.5 C 310.833,417.167 310.833,417.167 309.5,416.5 Z"/></g>
<g><path style="opacity:0.004" fill="#325a80" d="M 344.5,416.5 C 345.833,417.167 345.833,417.167 344.5,416.5 Z"/></g>
<g><path style="opacity:0.004" fill="#395f82" d="M 198.5,418.5 C 199.833,419.167 199.833,419.167 198.5,418.5 Z"/></g>
<g><path style="opacity:1" fill="#19395d" d="M 317.5,424.5 C 321.881,426.211 326.547,426.877 331.5,426.5C 332.552,426.351 333.552,426.517 334.5,427C 334.167,427.333 333.833,427.667 333.5,428C 329.167,428.667 324.833,428.667 320.5,428C 305.3,423.618 297.967,413.452 298.5,397.5C 299.468,395.393 299.802,393.059 299.5,390.5C 274.5,390.5 249.5,390.5 224.5,390.5C 224.818,395.032 224.485,399.366 223.5,403.5C 223.381,398.788 223.381,394.288 223.5,390C 229.551,389.792 235.551,389.292 241.5,388.5C 260.942,389.42 280.609,389.753 300.5,389.5C 299.141,399.805 301.141,409.305 306.5,418C 309.563,421.198 313.229,423.364 317.5,424.5 Z"/></g>
<g><path style="opacity:0.008" fill="#32587a" d="M 189.5,423.5 C 190.833,424.167 190.833,424.167 189.5,423.5 Z"/></g>
<g><path style="opacity:1" fill="#0f2b4d" d="M 215.5,420.5 C 216.239,420.369 216.906,420.536 217.5,421C 214.834,423.335 211.834,425.169 208.5,426.5C 207.537,426.03 207.537,425.363 208.5,424.5C 210.996,423.42 213.33,422.086 215.5,420.5 Z"/></g>
<g><path style="opacity:0.012" fill="#325879" d="M 317.5,423.5 C 318.833,424.167 318.833,424.167 317.5,423.5 Z"/></g>
<g><path style="opacity:0.004" fill="#325a7f" d="M 197.5,425.5 C 197.897,424.475 198.563,424.308 199.5,425C 198.906,425.464 198.239,425.631 197.5,425.5 Z"/></g>
<g><path style="opacity:1" fill="#06264b" d="M 201.5,426.5 C 201.833,426.5 202.167,426.5 202.5,426.5C 203.873,426.343 205.207,426.51 206.5,427C 201.924,428.476 197.257,428.81 192.5,428C 195.695,427.819 198.695,427.319 201.5,426.5 Z"/></g>
<g><path style="opacity:0.971" fill="#1d4d78" d="M 401.5,418.5 C 401.5,482.833 401.5,547.167 401.5,611.5C 400.335,610.504 399.668,609.171 399.5,607.5C 400.091,584.067 400.425,560.234 400.5,536C 400.494,516.116 399.827,496.449 398.5,477C 399.459,475.293 400.125,473.459 400.5,471.5C 400.327,459.563 399.994,447.563 399.5,435.5C 400.081,429.68 400.747,424.013 401.5,418.5 Z"/></g>
<g><path style="opacity:0.999" fill="#021c3d" d="M 203.5,444.5 C 236.5,444.5 269.5,444.5 302.5,444.5C 325.879,444.166 347.879,444.499 368.5,445.5C 296.665,445.167 224.998,445.501 153.5,446.5C 153.167,446.5 152.833,446.5 152.5,446.5C 150.621,446.607 150.288,446.107 151.5,445C 168.83,444.5 186.163,444.333 203.5,444.5 Z"/></g>
<g><path style="opacity:0.614" fill="#32577b" d="M 153.5,446.5 C 224.998,445.501 296.665,445.167 368.5,445.5C 368.5,445.833 368.5,446.167 368.5,446.5C 296.559,446.671 224.892,446.671 153.5,446.5 Z"/></g>
<g><path style="opacity:0.008" fill="#3d5f7c" d="M 468.5,464.5 C 468.897,463.475 469.563,463.308 470.5,464C 469.906,464.464 469.239,464.631 468.5,464.5 Z"/></g>
<g><path style="opacity:0.016" fill="#42627c" d="M 566.5,464.5 C 567.833,465.167 567.833,465.167 566.5,464.5 Z"/></g>
<g><path style="opacity:0.004" fill="#406481" d="M 439.5,466.5 C 440.833,467.167 440.833,467.167 439.5,466.5 Z"/></g>
<g><path style="opacity:0.996" fill="#194771" d="M 553.5,465.5 C 557.167,465.5 560.833,465.5 564.5,465.5C 564.5,494.167 564.5,522.833 564.5,551.5C 560.5,551.5 556.5,551.5 552.5,551.5C 552.169,522.662 552.502,493.995 553.5,465.5 Z"/></g>
<g><path style="opacity:0.975" fill="#031c3b" d="M 121.5,412.5 C 121.5,414.167 121.5,415.833 121.5,417.5C 120.833,481.833 120.167,546.167 119.5,610.5C 119.5,545.5 119.5,480.5 119.5,415.5C 120.167,414.5 120.833,413.5 121.5,412.5 Z"/></g>
<g><path style="opacity:0.982" fill="#223b5b" d="M 553.5,465.5 C 557.298,464.517 561.298,464.183 565.5,464.5C 565.5,465.167 565.833,465.5 566.5,465.5C 566.231,494.629 565.897,523.295 565.5,551.5C 565.167,551.5 564.833,551.5 564.5,551.5C 564.5,522.833 564.5,494.167 564.5,465.5C 560.833,465.5 557.167,465.5 553.5,465.5 Z"/></g>
<g><path style="opacity:0.004" fill="#3d607d" d="M 486.5,476.5 C 487.833,477.167 487.833,477.167 486.5,476.5 Z"/></g>
<g><path style="opacity:0.978" fill="#193759" d="M 468.5,465.5 C 475.173,466.001 480.506,468.834 484.5,474C 483.015,477.971 481.015,481.638 478.5,485C 476.803,485.384 475.137,485.218 473.5,484.5C 463.63,477.477 454.297,478.144 445.5,486.5C 444.094,486.973 443.427,487.973 443.5,489.5C 441.163,491.965 439.663,494.965 439,498.5C 437.316,506.147 437.149,513.814 438.5,521.5C 438.649,522.552 438.483,523.552 438,524.5C 432.647,508.597 435.481,494.43 446.5,482C 456.971,475.912 467.137,476.412 477,483.5C 478.333,481.5 479.667,479.5 481,477.5C 481.982,476.241 482.315,474.908 482,473.5C 479.833,472 477.667,470.5 475.5,469C 468.306,467.057 460.973,466.057 453.5,466C 458.489,465.501 463.489,465.334 468.5,465.5 Z"/></g>
<g><path style="opacity:0.012" fill="#40627f" d="M 483.5,478.5 C 484.833,479.167 484.833,479.167 483.5,478.5 Z"/></g>
<g><path style="opacity:0.992" fill="#19385a" d="M 431.5,476.5 C 432.239,476.369 432.906,476.536 433.5,477C 427.802,483.949 424.135,491.782 422.5,500.5C 421.509,506.979 421.176,513.646 421.5,520.5C 418.075,504.291 421.408,489.624 431.5,476.5 Z"/></g>
<g><path style="opacity:0.28" fill="#436685" d="M 759.5,464.5 C 754.5,464.5 749.5,464.5 744.5,464.5C 744.5,474.167 744.5,483.833 744.5,493.5C 744.158,494.338 743.492,494.672 742.5,494.5C 742.5,494.167 742.5,493.833 742.5,493.5C 743.494,483.681 743.827,473.681 743.5,463.5C 746.249,463.726 748.916,463.393 751.5,462.5C 754.311,463.08 756.977,463.746 759.5,464.5 Z"/></g>
<g><path style="opacity:0.008" fill="#3b5e7e" d="M 473.5,484.5 C 473.631,485.239 473.464,485.906 473,486.5C 472.308,485.563 472.475,484.897 473.5,484.5 Z"/></g>
<g><path style="opacity:0.008" fill="#3d5e7c" d="M 445.5,486.5 C 446.833,487.167 446.833,487.167 445.5,486.5 Z"/></g>
<g><path style="opacity:0.004" fill="#3f6181" d="M 476.5,486.5 C 477.833,487.167 477.833,487.167 476.5,486.5 Z"/></g>
<g><path style="opacity:0.012" fill="#3d6080" d="M 501.5,487.5 C 502.833,488.167 502.833,488.167 501.5,487.5 Z"/></g>
<g><path style="opacity:0.008" fill="#3c5e7c" d="M 524.5,488.5 C 525.251,487.427 526.251,487.26 527.5,488C 526.552,488.483 525.552,488.649 524.5,488.5 Z"/></g>
<g><path style="opacity:0.004" fill="#3f617e" d="M 613.5,487.5 C 614.833,488.167 614.833,488.167 613.5,487.5 Z"/></g>
<g><path style="opacity:0.008" fill="#3d5f7f" d="M 645.5,487.5 C 646.833,488.167 646.833,488.167 645.5,487.5 Z"/></g>
<g><path style="opacity:0.004" fill="#42637f" d="M 679.5,488.5 C 679.897,487.475 680.563,487.308 681.5,488C 680.906,488.464 680.239,488.631 679.5,488.5 Z"/></g>
<g><path style="opacity:0.008" fill="#40627d" d="M 804.5,487.5 C 805.833,488.167 805.833,488.167 804.5,487.5 Z"/></g>
<g><path style="opacity:0.008" fill="#41637c" d="M 837.5,487.5 C 838.833,488.167 838.833,488.167 837.5,487.5 Z"/></g>
<g><path style="opacity:0.004" fill="#445f79" d="M 942.5,488.5 C 941.761,488.631 941.094,488.464 940.5,488C 941.437,487.308 942.103,487.475 942.5,488.5 Z"/></g>
<g><path style="opacity:0.004" fill="#526877" d="M 952.5,487.5 C 953.833,488.167 953.833,488.167 952.5,487.5 Z"/></g>
<g><path style="opacity:0.004" fill="#3f627f" d="M 532.5,488.5 C 533.833,489.167 533.833,489.167 532.5,488.5 Z"/></g>
<g><path style="opacity:0.02" fill="#526c84" d="M 949.5,489.5 C 947.167,489.5 944.833,489.5 942.5,489.5C 942.5,489.167 942.5,488.833 942.5,488.5C 945.176,487.992 947.843,487.825 950.5,488C 949.944,488.383 949.611,488.883 949.5,489.5 Z"/></g>
<g><path style="opacity:0.004" fill="#3a5e7f" d="M 443.5,489.5 C 444.833,490.167 444.833,490.167 443.5,489.5 Z"/></g>
<g><path style="opacity:1" fill="#163256" d="M 524.5,489.5 C 524.918,490.222 525.584,490.722 526.5,491C 519.038,490.933 511.704,490.433 504.5,489.5C 511.167,488.167 517.833,488.167 524.5,489.5 Z"/></g>
<g><path style="opacity:0.996" fill="#143357" d="M 742.5,493.5 C 742.5,493.833 742.5,494.167 742.5,494.5C 723.22,485.556 710.387,491.223 704,511.5C 703.517,510.552 703.351,509.552 703.5,508.5C 707.952,492.929 718.285,486.429 734.5,489C 737.684,489.754 740.351,491.254 742.5,493.5 Z"/></g>
<g><path style="opacity:0.687" fill="#385673" d="M 842.5,489.5 C 839.038,490.482 835.371,490.815 831.5,490.5C 831.5,511.5 831.5,532.5 831.5,553.5C 830.503,532.34 830.169,511.007 830.5,489.5C 834.723,489.228 838.723,489.228 842.5,489.5 Z"/></g>
<g><path style="opacity:0.739" fill="#2a4665" d="M 909.5,489.5 C 904.93,490.441 900.263,490.774 895.5,490.5C 895.5,491.5 895.5,492.5 895.5,493.5C 892.405,492.881 892.071,491.881 894.5,490.5C 897.304,489.695 900.138,489.028 903,488.5C 905.286,488.861 907.453,489.194 909.5,489.5 Z"/></g>
<g><path style="opacity:0.994" fill="#194670" d="M 938.5,491.5 C 938.459,495.243 939.126,495.41 940.5,492C 944.152,491.501 947.818,491.335 951.5,491.5C 949.943,499.168 947.609,506.501 944.5,513.5C 943.504,513.586 942.671,513.252 942,512.5C 941.415,514.129 940.581,515.629 939.5,517C 939.905,517.945 940.572,518.612 941.5,519C 941.167,519.333 940.833,519.667 940.5,520C 938.893,519.981 937.226,519.815 935.5,519.5C 935.669,517.088 935.003,514.921 933.5,513C 934.965,507.606 936.631,502.272 938.5,497C 938.43,496.235 938.097,495.735 937.5,495.5C 937.232,493.901 937.566,492.568 938.5,491.5 Z"/></g>
<g><path style="opacity:0.996" fill="#112e52" d="M 280.5,470.5 C 280.631,471.239 280.464,471.906 280,472.5C 268.243,471.346 256.409,471.179 244.5,472C 243.667,472.833 242.833,473.667 242,474.5C 241.5,484.161 241.334,493.828 241.5,503.5C 240.506,493.681 240.173,483.681 240.5,473.5C 240.944,471.887 241.944,470.72 243.5,470C 255.909,469.188 268.242,469.355 280.5,470.5 Z"/></g>
<g><path style="opacity:0.984" fill="#183556" d="M 679.5,489.5 C 688.195,492.184 692.528,498.184 692.5,507.5C 691.833,507.5 691.5,507.833 691.5,508.5C 690.675,498.504 685.342,492.338 675.5,490C 676.793,489.51 678.127,489.343 679.5,489.5 Z"/></g>
<g><path style="opacity:0.992" fill="#082648" d="M 951.5,491.5 C 947.818,491.335 944.152,491.501 940.5,492C 939.126,495.41 938.459,495.243 938.5,491.5C 942.934,490.206 947.267,490.206 951.5,491.5 Z"/></g>
<g><path style="opacity:0.004" fill="#355b81" d="M 416.5,495.5 C 417.833,496.167 417.833,496.167 416.5,495.5 Z"/></g>
<g><path style="opacity:0.008" fill="#3e627f" d="M 488.5,495.5 C 489.833,496.167 489.833,496.167 488.5,495.5 Z"/></g>
<g><path style="opacity:0.004" fill="#3b5e7d" d="M 488.5,496.5 C 487.833,497.167 487.833,497.167 488.5,496.5 Z"/></g>
<g><path style="opacity:0.008" fill="#3b5f7e" d="M 581.5,497.5 C 580.833,496.167 580.833,496.167 581.5,497.5 Z"/></g>
<g><path style="opacity:0.004" fill="#3e5f7e" d="M 767.5,496.5 C 768.833,497.167 768.833,497.167 767.5,496.5 Z"/></g>
<g><path style="opacity:1" fill="#193759" d="M 612.5,489.5 C 600.572,488.089 590.405,491.755 582,500.5C 580.667,503.167 579.333,505.833 578,508.5C 577.536,507.906 577.369,507.239 577.5,506.5C 578.023,503.122 579.356,500.122 581.5,497.5C 590.325,488.812 600.659,486.145 612.5,489.5 Z"/></g>
<g><path style="opacity:0.991" fill="#224061" d="M 565.5,464.5 C 561.298,464.183 557.298,464.517 553.5,465.5C 552.502,493.995 552.169,522.662 552.5,551.5C 556.5,551.5 560.5,551.5 564.5,551.5C 564.833,551.5 565.167,551.5 565.5,551.5C 565.611,552.117 565.944,552.617 566.5,553C 562.579,553.203 558.745,553.703 555,554.5C 553.333,553.833 551.667,553.167 550,552.5C 549.333,523.167 549.333,493.833 550,464.5C 555.266,463.176 560.433,463.176 565.5,464.5 Z"/></g>
<g><path style="opacity:0.998" fill="#193f65" d="M 615.5,490.5 C 623.516,493.854 628.183,499.854 629.5,508.5C 628.596,509.209 628.263,510.209 628.5,511.5C 627.855,507.294 626.355,503.294 624,499.5C 621.827,496.723 621.327,496.89 622.5,500C 621.552,500.483 620.552,500.649 619.5,500.5C 619.738,504.099 618.738,504.433 616.5,501.5C 616.167,501.833 615.833,502.167 615.5,502.5C 615.914,506.357 616.081,510.357 616,514.5C 615.79,512.942 615.29,511.609 614.5,510.5C 613.335,504.172 609.502,500.839 603,500.5C 597.132,501.537 593.298,504.871 591.5,510.5C 590.71,511.609 590.21,512.942 590,514.5C 589.196,506.948 592.363,501.781 599.5,499C 602.713,498.297 605.879,498.464 609,499.5C 610.473,499.097 611.806,498.43 613,497.5C 613.317,499.301 613.984,499.634 615,498.5C 615.423,499.956 616.256,500.456 617.5,500C 616.762,496.673 615.428,493.673 613.5,491C 614.094,490.536 614.761,490.369 615.5,490.5 Z"/></g>
<g><path style="opacity:0.995" fill="#1c4771" d="M 679.5,488.5 C 679.5,488.833 679.5,489.167 679.5,489.5C 678.127,489.343 676.793,489.51 675.5,490C 685.342,492.338 690.675,498.504 691.5,508.5C 691.801,523.548 691.468,538.548 690.5,553.5C 686.3,553.617 682.133,553.617 678,553.5C 677.5,539.504 677.333,525.504 677.5,511.5C 675.377,504.762 670.71,502.096 663.5,503.5C 665.969,502.683 668.635,502.183 671.5,502C 663.66,499.505 658.16,502.005 655,509.5C 653.553,523.427 653.053,537.427 653.5,551.5C 649.5,551.5 645.5,551.5 641.5,551.5C 641.5,531.5 641.5,511.5 641.5,491.5C 645.514,491.666 649.514,491.499 653.5,491C 649.179,490.501 644.846,490.334 640.5,490.5C 640.5,508.167 640.5,525.833 640.5,543.5C 639.503,525.674 639.17,507.674 639.5,489.5C 644.412,490.026 649.078,489.359 653.5,487.5C 654.318,490.107 654.818,492.774 655,495.5C 662.34,488.891 670.506,486.558 679.5,488.5 Z"/></g>
<g><path style="opacity:0.012" fill="#406282" d="M 662.5,487.5 C 663.833,488.167 663.833,488.167 662.5,487.5 Z"/></g>
<g><path style="opacity:0.004" fill="#416480" d="M 655.5,487.5 C 656.833,488.167 656.833,488.167 655.5,487.5 Z"/></g>
<g><path style="opacity:0.914" fill="#112f4e" d="M 888.5,465.5 C 889.007,488.693 889.007,512.027 888.5,535.5C 888.657,536.873 888.49,538.207 888,539.5C 887.667,538.833 887.333,538.167 887,537.5C 886.5,528.173 886.334,518.839 886.5,509.5C 887.167,494.833 887.833,480.167 888.5,465.5 Z"/></g>
<g><path style="opacity:0.004" fill="#395f7e" d="M 704.5,499.5 C 705.833,500.167 705.833,500.167 704.5,499.5 Z"/></g>
<g><path style="opacity:0.004" fill="#3c5e7b" d="M 915.5,499.5 C 916.833,500.167 916.833,500.167 915.5,499.5 Z"/></g>
<g><path style="opacity:0.999" fill="#194671" d="M 757.5,465.5 C 757.5,494.167 757.5,522.833 757.5,551.5C 754.15,551.665 750.817,551.498 747.5,551C 746.773,549.601 746.273,548.101 746,546.5C 745.297,548.929 745.463,551.262 746.5,553.5C 745.448,553.649 744.448,553.483 743.5,553C 744.801,551.384 744.801,549.884 743.5,548.5C 743.631,547.761 743.464,547.094 743,546.5C 737.494,551.83 730.994,554.496 723.5,554.5C 721.585,554.784 719.919,554.451 718.5,553.5C 719.873,553.657 721.207,553.49 722.5,553C 712.439,549.267 706.272,542.1 704,531.5C 703.167,506.175 702.667,506.175 702.5,531.5C 701.346,525.013 701.179,518.346 702,511.5C 702.232,510.263 702.732,509.263 703.5,508.5C 703.351,509.552 703.517,510.552 704,511.5C 710.387,491.223 723.22,485.556 742.5,494.5C 743.492,494.672 744.158,494.338 744.5,493.5C 745.494,484.348 745.827,475.015 745.5,465.5C 749.5,465.5 753.5,465.5 757.5,465.5 Z M 743.5,512.5 C 743.891,519.921 743.391,527.254 742,534.5C 738.531,539.648 733.698,541.648 727.5,540.5C 725.651,539.407 723.984,538.074 722.5,536.5C 716.062,526.737 715.895,516.737 722,506.5C 731.736,499.687 738.903,501.687 743.5,512.5 Z"/></g>
<g><path style="opacity:0.008" fill="#3d5f80" d="M 770.5,500.5 C 771.833,501.167 771.833,501.167 770.5,500.5 Z"/></g>
<g><path style="opacity:0.982" fill="#1a3859" d="M 798.5,502.5 C 790.586,501.683 783.086,503.016 776,506.5C 773.98,505.968 773.147,504.635 773.5,502.5C 773.693,498.551 774.193,498.551 775,502.5C 775.725,503.059 776.558,503.392 777.5,503.5C 784.659,500.358 791.992,499.525 799.5,501C 800.712,502.107 800.379,502.607 798.5,502.5 Z"/></g>
<g><path style="opacity:0.21" fill="#41627f" d="M 866.5,495.5 C 866.905,499.048 866.405,502.381 865,505.5C 864.005,504.934 863.172,504.267 862.5,503.5C 863.5,503.5 864.5,503.5 865.5,503.5C 865.194,500.615 865.527,497.948 866.5,495.5 Z"/></g>
<g><path style="opacity:0.004" fill="#365d80" d="M 418.5,500.5 C 419.525,500.897 419.692,501.563 419,502.5C 418.536,501.906 418.369,501.239 418.5,500.5 Z"/></g>
<g><path style="opacity:0.98" fill="#19385c" d="M 743.5,512.5 C 738.903,501.687 731.736,499.687 722,506.5C 715.895,516.737 716.062,526.737 722.5,536.5C 723.984,538.074 725.651,539.407 727.5,540.5C 724.53,541.457 722.03,540.457 720,537.5C 713.961,526.161 714.128,514.827 720.5,503.5C 721.086,503.709 721.586,504.043 722,504.5C 724.4,501.384 727.567,500.051 731.5,500.5C 735.705,500.952 739.705,501.952 743.5,503.5C 745.381,512.395 745.881,521.395 745,530.5C 744.828,524.319 744.328,518.319 743.5,512.5 Z"/></g>
<g><path style="opacity:0.973" fill="#1d395b" d="M 501.5,490.5 C 502.239,490.369 502.906,490.536 503.5,491C 499.272,491.938 495.939,494.104 493.5,497.5C 493.875,499.459 494.541,501.293 495.5,503C 500.669,501.681 506.002,500.848 511.5,500.5C 514.625,500.435 517.625,500.935 520.5,502C 519.906,502.464 519.239,502.631 518.5,502.5C 514.154,502.334 509.821,502.501 505.5,503C 501.85,504.445 498.183,505.445 494.5,506C 493.268,502.81 491.935,499.643 490.5,496.5C 493.428,493.202 497.095,491.202 501.5,490.5 Z"/></g>
<g><path style="opacity:0.004" fill="#3d5f7f" d="M 693.5,502.5 C 694.525,502.897 694.692,503.563 694,504.5C 693.536,503.906 693.369,503.239 693.5,502.5 Z"/></g>
<g><path style="opacity:0.998" fill="#194670" d="M 805.5,551.5 C 804.833,550.833 804.167,550.167 803.5,549.5C 803.631,548.761 803.464,548.094 803,547.5C 797.36,552.111 790.86,553.944 783.5,553C 775.115,550.752 770.615,545.252 770,536.5C 769.505,538.473 769.338,540.473 769.5,542.5C 767.84,539.23 767.506,535.897 768.5,532.5C 768.351,533.552 768.517,534.552 769,535.5C 770.087,531.234 771.754,527.234 774,523.5C 777.297,520.433 781.131,518.267 785.5,517C 784.906,516.536 784.239,516.369 783.5,516.5C 789.954,514.36 796.621,513.527 803.5,514C 804.476,509.155 802.809,505.322 798.5,502.5C 800.379,502.607 800.712,502.107 799.5,501C 791.992,499.525 784.659,500.358 777.5,503.5C 776.558,503.392 775.725,503.059 775,502.5C 774.193,498.551 773.693,498.551 773.5,502.5C 772.463,501.07 771.796,499.403 771.5,497.5C 772.117,497.611 772.617,497.944 773,498.5C 774.894,495.282 777.728,493.115 781.5,492C 788.785,490.586 796.118,490.253 803.5,491C 811.142,492.973 815.642,497.807 817,505.5C 817.5,520.83 817.667,536.163 817.5,551.5C 814.167,551.5 810.833,551.5 807.5,551.5C 807.753,549.173 807.086,547.173 805.5,545.5C 805.254,547.22 805.254,549.22 805.5,551.5 Z M 785.5,529.5 C 786.872,528.488 788.205,527.488 789.5,526.5C 793.506,525.459 797.339,524.792 801,524.5C 803.142,525.476 804.308,527.143 804.5,529.5C 802.934,539.617 797.267,543.117 787.5,540C 784.994,536.818 784.328,533.318 785.5,529.5 Z"/></g>
<g><path style="opacity:0.976" fill="#1a3858" d="M 866.5,495.5 C 865.527,497.948 865.194,500.615 865.5,503.5C 864.5,503.5 863.5,503.5 862.5,503.5C 858.43,503.432 854.763,504.432 851.5,506.5C 849.32,508.863 847.653,511.53 846.5,514.5C 846.672,513.508 846.338,512.842 845.5,512.5C 848.667,503.849 855,500.182 864.5,501.5C 864.666,497.486 864.499,493.486 864,489.5C 860.513,490.239 857.013,491.073 853.5,492C 851,493.167 849.167,495 848,497.5C 847.536,496.906 847.369,496.239 847.5,495.5C 848.277,492.888 849.944,491.055 852.5,490C 857.093,488.108 861.759,487.608 866.5,488.5C 867.714,490.859 867.714,493.192 866.5,495.5 Z"/></g>
<g><path style="opacity:0.996" fill="#1a4771" d="M 886.5,509.5 C 886.334,518.839 886.5,528.173 887,537.5C 887.333,538.167 887.667,538.833 888,539.5C 888.49,538.207 888.657,536.873 888.5,535.5C 889.161,536.718 889.828,538.051 890.5,539.5C 891.425,540.641 892.259,540.641 893,539.5C 895.952,544.093 896.119,548.76 893.5,553.5C 893.666,549.486 893.499,545.486 893,541.5C 892.793,545.089 892.293,548.589 891.5,552C 887.833,552.667 884.167,552.667 880.5,552C 877.572,550.74 875.739,548.573 875,545.5C 874.5,518.502 874.333,491.502 874.5,464.5C 878.5,464.5 882.5,464.5 886.5,464.5C 886.5,479.5 886.5,494.5 886.5,509.5 Z"/></g>
<g><path style="opacity:1" fill="#1c3554" d="M 952.5,488.5 C 953.391,489.261 954.058,490.261 954.5,491.5C 951.496,500.178 948.496,508.845 945.5,517.5C 944.35,518.85 943.683,518.684 943.5,517C 943.989,515.862 944.322,514.695 944.5,513.5C 947.609,506.501 949.943,499.168 951.5,491.5C 947.267,490.206 942.934,490.206 938.5,491.5C 939.183,489.824 940.517,489.157 942.5,489.5C 944.833,489.5 947.167,489.5 949.5,489.5C 950.609,489.443 951.609,489.11 952.5,488.5 Z"/></g>
<g><path style="opacity:0.004" fill="#3e607f" d="M 896.5,503.5 C 897.833,504.167 897.833,504.167 896.5,503.5 Z"/></g>
<g><path style="opacity:0.996" fill="#0d294b" d="M 422.5,500.5 C 422.334,506.176 422.501,511.843 423,517.5C 423.145,521.523 423.979,525.356 425.5,529C 424.906,529.464 424.239,529.631 423.5,529.5C 422.072,526.697 421.405,523.697 421.5,520.5C 421.176,513.646 421.509,506.979 422.5,500.5 Z"/></g>
<g><path style="opacity:0.984" fill="#1a395b" d="M 805.5,551.5 C 805.254,549.22 805.254,547.22 805.5,545.5C 807.086,547.173 807.753,549.173 807.5,551.5C 810.833,551.5 814.167,551.5 817.5,551.5C 817.667,536.163 817.5,520.83 817,505.5C 815.642,497.807 811.142,492.973 803.5,491C 796.118,490.253 788.785,490.586 781.5,492C 777.728,493.115 774.894,495.282 773,498.5C 772.617,497.944 772.117,497.611 771.5,497.5C 771.626,494.405 773.293,492.572 776.5,492C 786.266,488.21 796.266,487.543 806.5,490C 815.137,494.255 819.804,501.255 820.5,511C 819.404,524.349 819.404,537.849 820.5,551.5C 820.444,552.737 819.944,553.737 819,554.5C 814.325,554.38 809.825,553.38 805.5,551.5 Z"/></g>
<g><path style="opacity:0.004" fill="#3b5f81" d="M 520.5,506.5 C 521.833,507.167 521.833,507.167 520.5,506.5 Z"/></g>
<g><path style="opacity:0.004" fill="#3b5e80" d="M 661.5,506.5 C 662.833,507.167 662.833,507.167 661.5,506.5 Z"/></g>
<g><path style="opacity:0.004" fill="#3a5f82" d="M 671.5,506.5 C 672.833,507.167 672.833,507.167 671.5,506.5 Z"/></g>
<g><path style="opacity:0.008" fill="#3b5f81" d="M 800.5,506.5 C 801.833,507.167 801.833,507.167 800.5,506.5 Z"/></g>
<g><path style="opacity:0.02" fill="#3f627f" d="M 851.5,506.5 C 852.833,507.167 852.833,507.167 851.5,506.5 Z"/></g>
<g><path style="opacity:0.004" fill="#3a5c7b" d="M 898.5,507.5 C 899.833,508.167 899.833,508.167 898.5,507.5 Z"/></g>
<g><path style="opacity:0.004" fill="#3c6281" d="M 662.5,508.5 C 663.833,509.167 663.833,509.167 662.5,508.5 Z"/></g>
<g><path style="opacity:0.008" fill="#3a6082" d="M 674.5,509.5 C 675.833,510.167 675.833,510.167 674.5,509.5 Z"/></g>
<g><path style="opacity:0.91" fill="#173252" d="M 912.5,494.5 C 914.696,500.421 916.696,506.421 918.5,512.5C 918.649,513.552 918.483,514.552 918,515.5C 914.387,508.706 912.554,501.706 912.5,494.5 Z"/></g>
<g><path style="opacity:0.98" fill="#062146" d="M 238.5,509.5 C 238.611,510.117 238.944,510.617 239.5,511C 227.167,511.333 214.833,511.667 202.5,512C 200.395,513.661 200.061,513.161 201.5,510.5C 203.137,509.62 204.97,508.954 207,508.5C 217.46,509.465 227.96,509.799 238.5,509.5 Z"/></g>
<g><path style="opacity:0.977" fill="#092449" d="M 321.5,510.5 C 321.631,511.239 321.464,511.906 321,512.5C 308.575,511.677 296.075,511.177 283.5,511C 285.058,510.79 286.391,510.29 287.5,509.5C 295.599,509.443 303.766,509.109 312,508.5C 315.27,509.132 318.437,509.799 321.5,510.5 Z"/></g>
<g><path style="opacity:0.004" fill="#3b5f82" d="M 694.5,510.5 C 695.833,511.167 695.833,511.167 694.5,510.5 Z"/></g>
<g><path style="opacity:0.004" fill="#396183" d="M 504.5,511.5 C 505.833,512.167 505.833,512.167 504.5,511.5 Z"/></g>
<g><path style="opacity:0.004" fill="#396080" d="M 509.5,511.5 C 510.833,512.167 510.833,512.167 509.5,511.5 Z"/></g>
<g><path style="opacity:0.008" fill="#3b5e82" d="M 509.5,512.5 C 508.833,513.167 508.833,513.167 509.5,512.5 Z"/></g>
<g><path style="opacity:0.004" fill="#3a5f80" d="M 786.5,512.5 C 787.833,513.167 787.833,513.167 786.5,512.5 Z"/></g>
<g><path style="opacity:0.99" fill="#1d3554" d="M 759.5,464.5 C 759.868,493.316 759.868,522.649 759.5,552.5C 758.841,523.402 758.174,494.402 757.5,465.5C 753.5,465.5 749.5,465.5 745.5,465.5C 745.827,475.015 745.494,484.348 744.5,493.5C 744.5,483.833 744.5,474.167 744.5,464.5C 749.5,464.5 754.5,464.5 759.5,464.5 Z"/></g>
<g><path style="opacity:0.657" fill="#315170" d="M 888.5,463.5 C 883.5,463.5 878.5,463.5 873.5,463.5C 873.5,491.167 873.5,518.833 873.5,546.5C 872.816,540.099 872.15,533.599 871.5,527C 872.467,505.851 872.801,484.351 872.5,462.5C 878.026,462.179 883.36,462.512 888.5,463.5 Z"/></g>
<g><path style="opacity:0.964" fill="#2c5172" d="M 519.5,514.5 C 515.702,515.483 511.702,515.817 507.5,515.5C 510.846,514.729 514.346,514.062 518,513.5C 518.765,513.57 519.265,513.903 519.5,514.5 Z"/></g>
<g><path style="opacity:0.996" fill="#031d3d" d="M 641.5,551.5 C 641.5,552.167 641.167,552.5 640.5,552.5C 640.5,549.5 640.5,546.5 640.5,543.5C 640.5,525.833 640.5,508.167 640.5,490.5C 644.846,490.334 649.179,490.501 653.5,491C 649.514,491.499 645.514,491.666 641.5,491.5C 641.5,511.5 641.5,531.5 641.5,551.5 Z"/></g>
<g><path style="opacity:0.998" fill="#174570" d="M 240.5,473.5 C 240.173,483.681 240.506,493.681 241.5,503.5C 241.34,505.199 241.506,506.866 242,508.5C 241.598,502.862 243.598,501.529 248,504.5C 248.333,504.167 248.667,503.833 249,503.5C 250.008,505.259 251.508,506.426 253.5,507C 251.559,507.743 249.726,507.576 248,506.5C 247.73,507.932 248.396,508.932 250,509.5C 251.016,508.366 251.683,508.699 252,510.5C 253.049,508.893 254.549,508.227 256.5,508.5C 257.204,510.678 257.537,512.678 257.5,514.5C 256.726,515.711 255.893,515.711 255,514.5C 254.383,513.551 254.549,512.718 255.5,512C 253.414,511.443 252.081,512.276 251.5,514.5C 254.116,515.079 254.116,516.579 251.5,519C 252.766,519.309 253.933,519.809 255,520.5C 255.333,520.167 255.667,519.833 256,519.5C 256.333,520.5 256.667,521.5 257,522.5C 257.942,519.557 259.108,516.724 260.5,514C 258.335,513.008 258.501,511.842 261,510.5C 261.5,510.667 262,510.833 262.5,511C 261.576,511.85 261.576,512.85 262.5,514C 262.095,514.945 261.428,515.612 260.5,516C 261.701,516.903 262.535,518.069 263,519.5C 263.914,518.346 264.747,518.513 265.5,520C 264.5,520.333 263.5,520.667 262.5,521C 263.949,522.117 265.616,522.784 267.5,523C 266.833,523.333 266.167,523.667 265.5,524C 266.218,526.461 266.885,528.961 267.5,531.5C 265.979,531.88 264.313,532.046 262.5,532C 259.833,534.409 259.999,535.576 263,535.5C 263.273,537.101 263.773,538.601 264.5,540C 263.833,540.333 263.167,540.667 262.5,541C 263.38,542.356 263.714,543.856 263.5,545.5C 259.996,545.362 257.329,544.362 255.5,542.5C 254.808,543.025 254.308,543.692 254,544.5C 253.1,543.23 251.934,542.23 250.5,541.5C 251.274,540.289 252.107,540.289 253,541.5C 253.483,540.552 253.649,539.552 253.5,538.5C 252.448,538.649 251.448,538.483 250.5,538C 252.078,536.86 253.744,536.36 255.5,536.5C 254.737,535.281 253.737,534.281 252.5,533.5C 253.487,529.633 252.987,529.633 251,533.5C 250.667,532.833 250.333,532.167 250,531.5C 248.561,533.275 247.561,535.275 247,537.5C 246.333,536.833 245.667,536.167 245,535.5C 244.282,536.451 243.449,536.617 242.5,536C 242.619,534.719 242.119,533.552 241,532.5C 239.217,534.824 239.383,537.324 241.5,540C 241.095,540.945 240.428,541.612 239.5,542C 240.86,544.369 242.526,546.536 244.5,548.5C 245.308,548.192 245.975,547.692 246.5,547C 244.45,545.364 243.45,543.198 243.5,540.5C 244.873,540.343 246.207,540.51 247.5,541C 248.833,542 248.833,543 247.5,544C 248.833,545 250.167,546 251.5,547C 249.517,548.889 247.184,550.222 244.5,551C 245.833,551.333 247.167,551.667 248.5,552C 247.044,552.423 246.544,553.256 247,554.5C 248.398,553.949 249.732,553.616 251,553.5C 251.658,555.108 251.158,556.275 249.5,557C 250.126,557.75 250.626,558.584 251,559.5C 252.295,555.916 253.795,555.75 255.5,559C 254.285,561.096 253.451,560.929 253,558.5C 252.333,559.5 252.333,560.5 253,561.5C 254.562,561.259 256.062,561.759 257.5,563C 257.201,564.32 257.034,565.82 257,567.5C 256.08,567.93 255.247,568.264 254.5,568.5C 255.82,571.784 255.153,573.784 252.5,574.5C 253.376,575.251 254.376,575.751 255.5,576C 254.151,576.772 253.318,577.939 253,579.5C 251.913,577.068 251.413,577.402 251.5,580.5C 250.5,580.5 249.5,580.5 248.5,580.5C 248.274,583.249 248.607,585.916 249.5,588.5C 248.833,589.5 248.167,590.5 247.5,591.5C 254.811,592.665 262.144,592.831 269.5,592C 270.308,591.692 270.975,591.192 271.5,590.5C 270.833,590.167 270.167,589.833 269.5,589.5C 269.919,588.328 270.585,587.328 271.5,586.5C 271.74,587.837 272.24,589.503 273,591.5C 273.317,589.699 273.984,589.366 275,590.5C 277.179,588.652 279.013,586.485 280.5,584C 279.313,582.981 278.313,581.814 277.5,580.5C 278.025,579.808 278.692,579.308 279.5,579C 276.025,578.624 273.025,577.291 270.5,575C 273.205,575.013 275.705,575.846 278,577.5C 278.5,577.167 279,576.833 279.5,576.5C 279.154,575.304 278.654,575.304 278,576.5C 277.421,573.983 278.254,571.983 280.5,570.5C 278.777,567.94 276.61,565.94 274,564.5C 273.667,565.167 273.333,565.833 273,566.5C 271.326,565.935 269.493,565.768 267.5,566C 266.62,564.644 266.286,563.144 266.5,561.5C 267.822,561.67 268.989,561.337 270,560.5C 271.363,562.784 272.863,562.951 274.5,561C 272.051,560.275 269.717,559.275 267.5,558C 269.259,556.992 270.426,555.492 271,553.5C 272.693,554.184 274.193,555.184 275.5,556.5C 277.042,555.253 278.542,555.253 280,556.5C 281.934,554.581 281.767,553.081 279.5,552C 280.793,551.51 282.127,551.343 283.5,551.5C 282.89,552.391 282.557,553.391 282.5,554.5C 282.812,566.218 282.479,577.884 281.5,589.5C 281.97,590.463 282.637,590.463 283.5,589.5C 283.262,591.404 282.262,592.738 280.5,593.5C 280.304,591.354 279.304,591.188 277.5,593C 266.453,593.811 255.453,593.644 244.5,592.5C 243.537,592.97 243.537,593.637 244.5,594.5C 242.596,594.262 241.262,593.262 240.5,591.5C 241.239,591.631 241.906,591.464 242.5,591C 241.677,578.242 241.177,565.409 241,552.5C 227.863,551.825 214.697,551.158 201.5,550.5C 200.808,549.975 200.308,549.308 200,548.5C 199.831,536.993 199.331,525.659 198.5,514.5C 198.892,512.821 199.392,511.154 200,509.5C 200.383,510.056 200.883,510.389 201.5,510.5C 200.061,513.161 200.395,513.661 202.5,512C 214.833,511.667 227.167,511.333 239.5,511C 238.944,510.617 238.611,510.117 238.5,509.5C 239.148,497.402 239.814,485.402 240.5,473.5 Z"/></g>
<g><path style="opacity:0.004" fill="#365d81" d="M 418.5,515.5 C 419.525,515.897 419.692,516.563 419,517.5C 418.536,516.906 418.369,516.239 418.5,515.5 Z"/></g>
<g><path style="opacity:0.004" fill="#3c6080" d="M 496.5,516.5 C 497.833,517.167 497.833,517.167 496.5,516.5 Z"/></g>
<g><path style="opacity:0.992" fill="#194671" d="M 612.5,489.5 C 613.791,489.263 614.791,489.596 615.5,490.5C 614.761,490.369 614.094,490.536 613.5,491C 615.428,493.673 616.762,496.673 617.5,500C 616.256,500.456 615.423,499.956 615,498.5C 613.984,499.634 613.317,499.301 613,497.5C 611.806,498.43 610.473,499.097 609,499.5C 605.879,498.464 602.713,498.297 599.5,499C 592.363,501.781 589.196,506.948 590,514.5C 590.21,512.942 590.71,511.609 591.5,510.5C 591.5,512.167 591.5,513.833 591.5,515.5C 599.167,515.5 606.833,515.5 614.5,515.5C 614.5,513.833 614.5,512.167 614.5,510.5C 615.29,511.609 615.79,512.942 616,514.5C 616.081,510.357 615.914,506.357 615.5,502.5C 615.833,502.167 616.167,501.833 616.5,501.5C 618.738,504.433 619.738,504.099 619.5,500.5C 620.552,500.649 621.552,500.483 622.5,500C 621.327,496.89 621.827,496.723 624,499.5C 626.355,503.294 627.855,507.294 628.5,511.5C 628.5,515.5 628.5,519.5 628.5,523.5C 616.167,523.5 603.833,523.5 591.5,523.5C 589.879,523.787 588.879,524.787 588.5,526.5C 590.841,537.012 597.341,542.678 608,543.5C 613.251,543.104 618.251,541.771 623,539.5C 625.474,541.094 626.974,543.427 627.5,546.5C 625.543,548.485 623.21,549.985 620.5,551C 587.905,557.407 573.572,544.074 577.5,511C 577.333,510.5 577.167,510 577,509.5C 576.722,510.416 576.222,511.082 575.5,511.5C 575.402,509.447 576.069,507.78 577.5,506.5C 577.369,507.239 577.536,507.906 578,508.5C 579.333,505.833 580.667,503.167 582,500.5C 590.405,491.755 600.572,488.089 612.5,489.5 Z M 614.5,510.5 C 614.5,512.167 614.5,513.833 614.5,515.5C 606.833,515.5 599.167,515.5 591.5,515.5C 591.5,513.833 591.5,512.167 591.5,510.5C 593.298,504.871 597.132,501.537 603,500.5C 609.502,500.839 613.335,504.172 614.5,510.5 Z"/></g>
<g><path style="opacity:0.996" fill="#052850" d="M 591.5,515.5 C 599.323,516.329 607.323,516.829 615.5,517C 607.147,517.832 598.813,517.665 590.5,516.5C 590.624,515.893 590.957,515.56 591.5,515.5 Z"/></g>
<g><path style="opacity:0.005" fill="#395e80" d="M 694.5,516.5 C 695.573,517.251 695.74,518.251 695,519.5C 694.517,518.552 694.351,517.552 694.5,516.5 Z"/></g>
<g><path style="opacity:0.98" fill="#183659" d="M 519.5,514.5 C 520.833,514.5 522.167,514.5 523.5,514.5C 523.918,515.222 524.584,515.722 525.5,516C 519.5,516.333 513.5,516.667 507.5,517C 494.166,519.842 488.332,528.009 490,541.5C 489.722,540.584 489.222,539.918 488.5,539.5C 486.688,525.147 493.021,517.147 507.5,515.5C 511.702,515.817 515.702,515.483 519.5,514.5 Z"/></g>
<g><path style="opacity:0.855" fill="#2f5374" d="M 629.5,509.5 C 630.198,512.897 630.865,516.397 631.5,520C 630.891,521.948 630.224,523.782 629.5,525.5C 629.5,520.167 629.5,514.833 629.5,509.5 Z"/></g>
<g><path style="opacity:0.987" fill="#052244" d="M 677.5,511.5 C 677.413,508.402 677.913,508.068 679,510.5C 679.667,524.5 679.667,538.5 679,552.5C 678.831,538.661 678.331,524.994 677.5,511.5 Z"/></g>
<g><path style="opacity:0.997" fill="#0d294c" d="M 888.5,463.5 C 888.5,464.167 888.5,464.833 888.5,465.5C 887.833,480.167 887.167,494.833 886.5,509.5C 886.5,494.5 886.5,479.5 886.5,464.5C 882.5,464.5 878.5,464.5 874.5,464.5C 874.333,491.502 874.5,518.502 875,545.5C 875.739,548.573 877.572,550.74 880.5,552C 884.167,552.667 887.833,552.667 891.5,552C 892.293,548.589 892.793,545.089 893,541.5C 893.499,545.486 893.666,549.486 893.5,553.5C 886.675,556.586 880.509,555.586 875,550.5C 874.209,549.255 873.709,547.922 873.5,546.5C 873.5,518.833 873.5,491.167 873.5,463.5C 878.5,463.5 883.5,463.5 888.5,463.5 Z"/></g>
<g><path style="opacity:0.988" fill="#193455" d="M 909.5,489.5 C 909.833,489.5 910.167,489.5 910.5,489.5C 910.649,490.552 910.483,491.552 910,492.5C 905.587,491.368 901.087,491.201 896.5,492C 904.046,511.01 911.212,530.177 918,549.5C 917.903,553.792 916.569,557.792 914,561.5C 913.536,560.906 913.369,560.239 913.5,559.5C 915.254,556.348 916.087,553.015 916,549.5C 908.875,530.921 902.041,512.254 895.5,493.5C 895.5,492.5 895.5,491.5 895.5,490.5C 900.263,490.774 904.93,490.441 909.5,489.5 Z"/></g>
<g><path style="opacity:0.996" fill="#1a4168" d="M 937.5,495.5 C 938.097,495.735 938.43,496.235 938.5,497C 936.631,502.272 934.965,507.606 933.5,513C 935.003,514.921 935.669,517.088 935.5,519.5C 937.226,519.815 938.893,519.981 940.5,520C 940.833,519.667 941.167,519.333 941.5,519C 940.572,518.612 939.905,517.945 939.5,517C 940.581,515.629 941.415,514.129 942,512.5C 942.671,513.252 943.504,513.586 944.5,513.5C 944.322,514.695 943.989,515.862 943.5,517C 943.683,518.684 944.35,518.85 945.5,517.5C 943.538,523.733 941.204,529.733 938.5,535.5C 938.672,534.508 938.338,533.842 937.5,533.5C 935.013,531.22 934.347,528.553 935.5,525.5C 936.192,526.025 936.692,526.692 937,527.5C 937.781,526.056 937.614,524.723 936.5,523.5C 935.914,523.709 935.414,524.043 935,524.5C 934.5,523.333 933.667,522.5 932.5,522C 933.654,521.086 933.487,520.253 932,519.5C 930.083,522.915 928.75,526.581 928,530.5C 927.346,531.696 926.846,531.696 926.5,530.5C 927.309,528.929 927.643,527.262 927.5,525.5C 930.265,515.205 933.598,505.205 937.5,495.5 Z"/></g>
<g><path style="opacity:0.006" fill="#365b7d" d="M 419.5,521.5 C 420.525,521.897 420.692,522.563 420,523.5C 419.536,522.906 419.369,522.239 419.5,521.5 Z"/></g>
<g><path style="opacity:0.984" fill="#26476b" d="M 529.5,491.5 C 535.99,495.188 539.49,500.855 540,508.5C 540.828,523.672 540.661,538.672 539.5,553.5C 539.667,538.83 539.5,524.163 539,509.5C 538.5,520.828 538.333,532.162 538.5,543.5C 537.669,530.673 537.169,517.673 537,504.5C 535.718,498.887 532.551,494.72 527.5,492C 528.094,491.536 528.761,491.369 529.5,491.5 Z"/></g>
<g><path style="opacity:0.987" fill="#072b52" d="M 629.5,508.5 C 629.5,508.833 629.5,509.167 629.5,509.5C 629.5,514.833 629.5,520.167 629.5,525.5C 622.223,524.57 614.89,524.236 607.5,524.5C 601.974,524.821 596.64,524.488 591.5,523.5C 603.833,523.5 616.167,523.5 628.5,523.5C 628.5,519.5 628.5,515.5 628.5,511.5C 628.263,510.209 628.596,509.209 629.5,508.5 Z"/></g>
<g><path style="opacity:0.004" fill="#3a5f81" d="M 694.5,523.5 C 695.833,524.167 695.833,524.167 694.5,523.5 Z"/></g>
<g><path style="opacity:0.929" fill="#2d4e6f" d="M 607.5,524.5 C 614.89,524.236 622.223,524.57 629.5,525.5C 629.631,526.239 629.464,526.906 629,527.5C 627.355,527.307 625.521,527.14 623.5,527C 623,526.5 622.5,526 622,525.5C 616.794,525.585 611.961,525.585 607.5,525.5C 607.5,525.167 607.5,524.833 607.5,524.5 Z"/></g>
<g><path style="opacity:0.992" fill="#163456" d="M 783.5,516.5 C 784.239,516.369 784.906,516.536 785.5,517C 781.131,518.267 777.297,520.433 774,523.5C 771.754,527.234 770.087,531.234 769,535.5C 768.517,534.552 768.351,533.552 768.5,532.5C 769.416,523.332 774.416,517.999 783.5,516.5 Z"/></g>
<g><path style="opacity:0.018" fill="#4c7092" d="M 599.5,525.5 C 597.052,526.473 594.385,526.806 591.5,526.5C 591.5,527.5 591.5,528.5 591.5,529.5C 590.566,528.432 590.232,527.099 590.5,525.5C 593.5,525.5 596.5,525.5 599.5,525.5 Z"/></g>
<g><path style="opacity:0.004" fill="#3a5f7e" d="M 675.5,525.5 C 676.833,526.167 676.833,526.167 675.5,525.5 Z"/></g>
<g><path style="opacity:1" fill="#1b3353" d="M 692.5,507.5 C 693.496,522.658 693.83,537.991 693.5,553.5C 692.5,553.5 691.5,553.5 690.5,553.5C 691.468,538.548 691.801,523.548 691.5,508.5C 691.5,507.833 691.833,507.5 692.5,507.5 Z"/></g>
<g><path style="opacity:0.997" fill="#184671" d="M 468.5,464.5 C 468.5,464.833 468.5,465.167 468.5,465.5C 463.489,465.334 458.489,465.501 453.5,466C 460.973,466.057 468.306,467.057 475.5,469C 477.667,470.5 479.833,472 482,473.5C 482.315,474.908 481.982,476.241 481,477.5C 479.667,479.5 478.333,481.5 477,483.5C 467.137,476.412 456.971,475.912 446.5,482C 435.481,494.43 432.647,508.597 438,524.5C 438.483,523.552 438.649,522.552 438.5,521.5C 439.537,522.93 440.204,524.597 440.5,526.5C 439.637,525.537 438.97,525.537 438.5,526.5C 445.394,540.779 456.394,545.446 471.5,540.5C 477.639,535.898 481.305,537.565 482.5,545.5C 479.236,548.967 475.236,551.133 470.5,552C 464.353,552.838 458.353,553.671 452.5,554.5C 450.585,554.784 448.919,554.451 447.5,553.5C 448.873,553.657 450.207,553.49 451.5,553C 439.482,549.921 430.982,542.754 426,531.5C 425.536,532.094 425.369,532.761 425.5,533.5C 424.326,532.486 423.66,531.153 423.5,529.5C 424.239,529.631 424.906,529.464 425.5,529C 423.979,525.356 423.145,521.523 423,517.5C 422.501,511.843 422.334,506.176 422.5,500.5C 424.135,491.782 427.802,483.949 433.5,477C 432.906,476.536 432.239,476.369 431.5,476.5C 441.604,466.259 453.937,462.259 468.5,464.5 Z"/></g>
<g><path style="opacity:0.004" fill="#385d7e" d="M 694.5,529.5 C 695.622,531.288 695.789,533.288 695,535.5C 694.505,533.527 694.338,531.527 694.5,529.5 Z"/></g>
<g><path style="opacity:0.004" fill="#43617b" d="M 941.5,531.5 C 942.833,532.167 942.833,532.167 941.5,531.5 Z"/></g>
<g><path style="opacity:0.992" fill="#001b36" d="M 144.5,607.5 C 144.657,608.873 144.49,610.207 144,611.5C 143.667,610.833 143.333,610.167 143,609.5C 142.333,558.5 142.333,507.5 143,456.5C 143.167,507.002 143.667,557.335 144.5,607.5 Z"/></g>
<g><path style="opacity:0.997" fill="#184670" d="M 501.5,490.5 C 502.209,489.596 503.209,489.263 504.5,489.5C 511.704,490.433 519.038,490.933 526.5,491C 525.584,490.722 524.918,490.222 524.5,489.5C 526.553,489.402 528.22,490.069 529.5,491.5C 528.761,491.369 528.094,491.536 527.5,492C 532.551,494.72 535.718,498.887 537,504.5C 537.169,517.673 537.669,530.673 538.5,543.5C 538.777,546.448 538.444,549.281 537.5,552C 533.975,552.179 530.641,552.679 527.5,553.5C 527.19,554.738 526.69,554.738 526,553.5C 525.802,551.618 525.302,549.952 524.5,548.5C 520.608,549.446 516.941,550.946 513.5,553C 503.329,554.996 495.829,551.496 491,542.5C 490.536,543.094 490.369,543.761 490.5,544.5C 489.069,543.22 488.402,541.553 488.5,539.5C 489.222,539.918 489.722,540.584 490,541.5C 488.332,528.009 494.166,519.842 507.5,517C 513.5,516.667 519.5,516.333 525.5,516C 524.584,515.722 523.918,515.222 523.5,514.5C 524.525,509.233 522.858,505.233 518.5,502.5C 519.239,502.631 519.906,502.464 520.5,502C 517.625,500.935 514.625,500.435 511.5,500.5C 506.002,500.848 500.669,501.681 495.5,503C 494.541,501.293 493.875,499.459 493.5,497.5C 495.939,494.104 499.272,491.938 503.5,491C 502.906,490.536 502.239,490.369 501.5,490.5 Z M 514.5,541.5 C 510.997,541.871 507.997,540.871 505.5,538.5C 503.324,532.352 505.324,528.185 511.5,526C 515.431,524.871 519.264,524.371 523,524.5C 525.921,533.124 523.088,538.791 514.5,541.5 Z"/></g>
<g><path style="opacity:0.998" fill="#1a3c5f" d="M 514.5,541.5 C 523.088,538.791 525.921,533.124 523,524.5C 519.264,524.371 515.431,524.871 511.5,526C 505.324,528.185 503.324,532.352 505.5,538.5C 505.19,539.738 504.69,539.738 504,538.5C 500.687,530.785 503.187,525.952 511.5,524C 526.794,519.92 530.627,525.087 523,539.5C 519.708,542.487 515.875,543.653 511.5,543C 512.737,542.768 513.737,542.268 514.5,541.5 Z"/></g>
<g><path style="opacity:0.004" fill="#3e617f" d="M 675.5,533.5 C 676.833,534.167 676.833,534.167 675.5,533.5 Z"/></g>
<g><path style="opacity:0.99" fill="#15365a" d="M 757.5,465.5 C 758.174,494.402 758.841,523.402 759.5,552.5C 758.122,553.234 756.622,553.901 755,554.5C 752.379,554.296 749.545,554.296 746.5,554.5C 746.5,554.167 746.5,553.833 746.5,553.5C 745.463,551.262 745.297,548.929 746,546.5C 746.273,548.101 746.773,549.601 747.5,551C 750.817,551.498 754.15,551.665 757.5,551.5C 757.5,522.833 757.5,494.167 757.5,465.5 Z"/></g>
<g><path style="opacity:0.993" fill="#184670" d="M 845.5,512.5 C 844.704,525.455 844.204,538.455 844,551.5C 840.333,552.833 836.667,552.833 833,551.5C 832.5,531.503 832.333,511.503 832.5,491.5C 836.167,491.5 839.833,491.5 843.5,491.5C 843.181,493.75 843.681,495.75 845,497.5C 845.464,496.906 845.631,496.239 845.5,495.5C 846.167,495.5 846.833,495.5 847.5,495.5C 847.369,496.239 847.536,496.906 848,497.5C 849.167,495 851,493.167 853.5,492C 857.013,491.073 860.513,490.239 864,489.5C 864.499,493.486 864.666,497.486 864.5,501.5C 855,500.182 848.667,503.849 845.5,512.5 Z"/></g>
<g><path style="opacity:0.99" fill="#082c50" d="M 121.5,417.5 C 121.344,484.888 121.51,552.222 122,619.5C 121.722,618.584 121.222,617.918 120.5,617.5C 119.532,615.393 119.198,613.059 119.5,610.5C 120.167,546.167 120.833,481.833 121.5,417.5 Z"/></g>
<g><path style="opacity:0.004" fill="#3b5f7c" d="M 481.5,536.5 C 482.833,537.167 482.833,537.167 481.5,536.5 Z"/></g>
<g><path style="opacity:0.008" fill="#40617f" d="M 890.5,536.5 C 891.833,537.167 891.833,537.167 890.5,536.5 Z"/></g>
<g><path style="opacity:0.004" fill="#3c5f83" d="M 461.5,537.5 C 462.833,538.167 462.833,538.167 461.5,537.5 Z"/></g>
<g><path style="opacity:0.984" fill="#1b3b5d" d="M 785.5,529.5 C 784.328,533.318 784.994,536.818 787.5,540C 797.267,543.117 802.934,539.617 804.5,529.5C 804.308,527.143 803.142,525.476 801,524.5C 797.339,524.792 793.506,525.459 789.5,526.5C 787.621,526.607 787.288,526.107 788.5,525C 794.048,522.772 799.715,522.272 805.5,523.5C 808.519,538.315 802.519,544.482 787.5,542C 782.094,537.808 781.261,532.975 785,527.5C 785.464,528.094 785.631,528.761 785.5,529.5 Z"/></g>
<g><path style="opacity:0.004" fill="#40617f" d="M 892.5,538.5 C 892.897,537.475 893.563,537.308 894.5,538C 893.906,538.464 893.239,538.631 892.5,538.5 Z"/></g>
<g><path style="opacity:0.994" fill="#194670" d="M 910.5,489.5 C 911.537,490.93 912.204,492.597 912.5,494.5C 912.554,501.706 914.387,508.706 918,515.5C 918.483,514.552 918.649,513.552 918.5,512.5C 920.881,518.294 923.048,524.294 925,530.5C 925.757,528.685 926.59,527.019 927.5,525.5C 927.643,527.262 927.309,528.929 926.5,530.5C 926.846,531.696 927.346,531.696 928,530.5C 928.75,526.581 930.083,522.915 932,519.5C 933.487,520.253 933.654,521.086 932.5,522C 933.667,522.5 934.5,523.333 935,524.5C 935.414,524.043 935.914,523.709 936.5,523.5C 937.614,524.723 937.781,526.056 937,527.5C 936.692,526.692 936.192,526.025 935.5,525.5C 934.347,528.553 935.013,531.22 937.5,533.5C 934.58,543.347 931.08,553.014 927,562.5C 925.231,566.266 922.731,569.433 919.5,572C 920.094,572.464 920.761,572.631 921.5,572.5C 921.027,573.906 920.027,574.573 918.5,574.5C 917.279,573.535 915.946,573.702 914.5,575C 909.845,575.499 905.179,575.666 900.5,575.5C 900.26,572.421 900.593,569.421 901.5,566.5C 903.766,565.686 906.1,565.186 908.5,565C 907.552,564.517 906.552,564.351 905.5,564.5C 908.627,563.733 911.293,562.067 913.5,559.5C 913.369,560.239 913.536,560.906 914,561.5C 916.569,557.792 917.903,553.792 918,549.5C 911.212,530.177 904.046,511.01 896.5,492C 901.087,491.201 905.587,491.368 910,492.5C 910.483,491.552 910.649,490.552 910.5,489.5 Z"/></g>
<g><path style="opacity:0.004" fill="#405f7c" d="M 924.5,525.5 C 925.833,526.167 925.833,526.167 924.5,525.5 Z"/></g>
<g><path style="opacity:0.004" fill="#385f7e" d="M 426.5,538.5 C 425.833,539.167 425.833,539.167 426.5,538.5 Z"/></g>
<g><path style="opacity:0.041" fill="#476d8d" d="M 458.5,540.5 C 456.901,540.768 455.568,540.434 454.5,539.5C 455.822,539.67 456.989,539.337 458,538.5C 458.464,539.094 458.631,539.761 458.5,540.5 Z"/></g>
<g><path style="opacity:0.945" fill="#102a4b" d="M 539.5,553.5 C 535.707,553.885 531.707,553.885 527.5,553.5C 530.641,552.679 533.975,552.179 537.5,552C 538.444,549.281 538.777,546.448 538.5,543.5C 538.333,532.162 538.5,520.828 539,509.5C 539.5,524.163 539.667,538.83 539.5,553.5 Z"/></g>
<g><path style="opacity:0.004" fill="#415f82" d="M 577.5,539.5 C 576.833,540.167 576.833,540.167 577.5,539.5 Z"/></g>
<g><path style="opacity:0.975" fill="#133155" d="M 440.5,526.5 C 443.283,532.953 447.95,537.286 454.5,539.5C 455.568,540.434 456.901,540.768 458.5,540.5C 462.179,540.276 465.846,539.942 469.5,539.5C 470.492,539.328 471.158,539.662 471.5,540.5C 456.394,545.446 445.394,540.779 438.5,526.5C 438.97,525.537 439.637,525.537 440.5,526.5 Z"/></g>
<g><path style="opacity:0.996" fill="#1d395b" d="M 591.5,523.5 C 596.64,524.488 601.974,524.821 607.5,524.5C 607.5,524.833 607.5,525.167 607.5,525.5C 604.833,526.833 602.167,526.833 599.5,525.5C 596.5,525.5 593.5,525.5 590.5,525.5C 590.232,527.099 590.566,528.432 591.5,529.5C 594.072,536.718 599.239,540.718 607,541.5C 613.252,541.555 619.086,539.555 624.5,535.5C 625.988,538.662 627.654,541.662 629.5,544.5C 629.328,545.492 629.662,546.158 630.5,546.5C 627.082,550.382 622.749,552.882 617.5,554C 600.604,558.364 587.271,553.53 577.5,539.5C 574.528,530.296 573.861,520.963 575.5,511.5C 576.222,511.082 576.722,510.416 577,509.5C 577.167,510 577.333,510.5 577.5,511C 573.572,544.074 587.905,557.407 620.5,551C 623.21,549.985 625.543,548.485 627.5,546.5C 626.974,543.427 625.474,541.094 623,539.5C 618.251,541.771 613.251,543.104 608,543.5C 597.341,542.678 590.841,537.012 588.5,526.5C 588.879,524.787 589.879,523.787 591.5,523.5 Z"/></g>
<g><path style="opacity:0.004" fill="#3d6080" d="M 607.5,538.5 C 608.833,539.167 608.833,539.167 607.5,538.5 Z"/></g>
<g><path style="opacity:0.004" fill="#3e6281" d="M 601.5,538.5 C 602.833,539.167 602.833,539.167 601.5,538.5 Z"/></g>
<g><path style="opacity:0.004" fill="#395b7d" d="M 428.5,542.5 C 429.833,543.167 429.833,543.167 428.5,542.5 Z"/></g>
<g><path style="opacity:0.998" fill="#122c4c" d="M 845.5,495.5 C 845.631,496.239 845.464,496.906 845,497.5C 843.681,495.75 843.181,493.75 843.5,491.5C 839.833,491.5 836.167,491.5 832.5,491.5C 832.333,511.503 832.5,531.503 833,551.5C 836.667,552.833 840.333,552.833 844,551.5C 844.204,538.455 844.704,525.455 845.5,512.5C 846.338,512.842 846.672,513.508 846.5,514.5C 846.5,527.5 846.5,540.5 846.5,553.5C 841.5,553.5 836.5,553.5 831.5,553.5C 831.5,532.5 831.5,511.5 831.5,490.5C 835.371,490.815 839.038,490.482 842.5,489.5C 843.397,488.402 844.23,488.402 845,489.5C 845.495,491.473 845.662,493.473 845.5,495.5 Z"/></g>
<g><path style="opacity:0.792" fill="#28486a" d="M 402.5,412.5 C 403.187,423.705 403.853,435.038 404.5,446.5C 403.538,489.84 403.538,532.673 404.5,575C 403.842,588.598 403.175,602.098 402.5,615.5C 402.5,547.833 402.5,480.167 402.5,412.5 Z"/></g>
<g><path style="opacity:0.008" fill="#3e617b" d="M 629.5,543.5 C 630.833,544.167 630.833,544.167 629.5,543.5 Z"/></g>
<g><path style="opacity:0.991" fill="#18385a" d="M 663.5,503.5 C 660.212,504.626 658.045,506.96 657,510.5C 656.057,516.293 655.557,522.127 655.5,528C 655.758,535.906 655.924,543.74 656,551.5C 653.267,553.105 650.267,554.105 647,554.5C 646.617,553.944 646.117,553.611 645.5,553.5C 643.833,553.5 642.167,553.5 640.5,553.5C 639.167,553.167 639.167,552.833 640.5,552.5C 641.167,552.5 641.5,552.167 641.5,551.5C 645.5,551.5 649.5,551.5 653.5,551.5C 653.053,537.427 653.553,523.427 655,509.5C 658.16,502.005 663.66,499.505 671.5,502C 668.635,502.183 665.969,502.683 663.5,503.5 Z"/></g>
<g><path style="opacity:0.949" fill="#153152" d="M 718.5,553.5 C 709.285,549.099 703.952,541.766 702.5,531.5C 702.667,506.175 703.167,506.175 704,531.5C 706.272,542.1 712.439,549.267 722.5,553C 721.207,553.49 719.873,553.657 718.5,553.5 Z"/></g>
<g><path style="opacity:0.004" fill="#40607c" d="M 767.5,543.5 C 768.833,544.167 768.833,544.167 767.5,543.5 Z"/></g>
<g><path style="opacity:0.004" fill="#3c5e7d" d="M 705.5,544.5 C 706.833,545.167 706.833,545.167 705.5,544.5 Z"/></g>
<g><path style="opacity:0.008" fill="#40627e" d="M 630.5,545.5 C 631.833,546.167 631.833,546.167 630.5,545.5 Z"/></g>
<g><path style="opacity:0.004" fill="#3b5f7c" d="M 694.5,545.5 C 695.833,546.167 695.833,546.167 694.5,545.5 Z"/></g>
<g><path style="opacity:0.008" fill="#3a5e7e" d="M 433.5,546.5 C 432.833,547.167 432.833,547.167 433.5,546.5 Z"/></g>
<g><path style="opacity:0.996" fill="#173253" d="M 447.5,553.5 C 443.541,552.406 439.875,550.739 436.5,548.5C 435.71,547.599 434.71,546.932 433.5,546.5C 431.628,543.418 429.295,540.751 426.5,538.5C 426.371,536.784 426.038,535.117 425.5,533.5C 425.369,532.761 425.536,532.094 426,531.5C 430.982,542.754 439.482,549.921 451.5,553C 450.207,553.49 448.873,553.657 447.5,553.5 Z"/></g>
<g><path style="opacity:0.004" fill="#3c5d7d" d="M 911.5,546.5 C 912.833,547.167 912.833,547.167 911.5,546.5 Z"/></g>
<g><path style="opacity:0.984" fill="#1f3c5c" d="M 481.5,537.5 C 482.591,540.272 483.591,543.105 484.5,546C 475.351,554.333 464.685,557.166 452.5,554.5C 458.353,553.671 464.353,552.838 470.5,552C 475.236,551.133 479.236,548.967 482.5,545.5C 481.305,537.565 477.639,535.898 471.5,540.5C 471.158,539.662 470.492,539.328 469.5,539.5C 472.245,537.622 475.245,535.955 478.5,534.5C 479.288,535.77 480.288,536.77 481.5,537.5 Z"/></g>
<g><path style="opacity:0.008" fill="#41617c" d="M 675.5,547.5 C 676.833,548.167 676.833,548.167 675.5,547.5 Z"/></g>
<g><path style="opacity:0.004" fill="#3c5d7d" d="M 913.5,547.5 C 914.833,548.167 914.833,548.167 913.5,547.5 Z"/></g>
<g><path style="opacity:0.012" fill="#3b5e7b" d="M 436.5,548.5 C 435.833,549.167 435.833,549.167 436.5,548.5 Z"/></g>
<g><path style="opacity:0.004" fill="#3c607e" d="M 694.5,548.5 C 695.833,549.167 695.833,549.167 694.5,548.5 Z"/></g>
<g><path style="opacity:0.004" fill="#3e5f7e" d="M 708.5,548.5 C 709.833,549.167 709.833,549.167 708.5,548.5 Z"/></g>
<g><path style="opacity:0.004" fill="#3a5c7f" d="M 435.5,549.5 C 434.833,550.167 434.833,550.167 435.5,549.5 Z"/></g>
<g><path style="opacity:0.004" fill="#395d7b" d="M 492.5,549.5 C 491.833,550.167 491.833,550.167 492.5,549.5 Z"/></g>
<g><path style="opacity:0.988" fill="#223e5f" d="M 743.5,548.5 C 737.99,554.542 731.323,556.542 723.5,554.5C 730.994,554.496 737.494,551.83 743,546.5C 743.464,547.094 743.631,547.761 743.5,548.5 Z"/></g>
<g><path style="opacity:0.004" fill="#415d7a" d="M 872.5,549.5 C 873.833,550.167 873.833,550.167 872.5,549.5 Z"/></g>
<g><path style="opacity:0.976" fill="#163457" d="M 198.5,514.5 C 199.331,525.659 199.831,536.993 200,548.5C 200.308,549.308 200.808,549.975 201.5,550.5C 214.697,551.158 227.863,551.825 241,552.5C 241.177,565.409 241.677,578.242 242.5,591C 241.906,591.464 241.239,591.631 240.5,591.5C 239.505,579.011 239.171,566.344 239.5,553.5C 228.294,553.199 217.128,553.532 206,554.5C 202.466,554.074 199.799,552.407 198,549.5C 197.174,537.659 197.341,525.993 198.5,514.5 Z"/></g>
<g><path style="opacity:0.978" fill="#1a375b" d="M 324.5,514.5 C 325.643,525.757 325.81,537.091 325,548.5C 324.215,550.286 323.049,551.786 321.5,553C 312.452,553.194 303.452,553.694 294.5,554.5C 291.12,553.93 287.787,553.597 284.5,553.5C 283.833,553.5 283.5,553.833 283.5,554.5C 283.167,554.5 282.833,554.5 282.5,554.5C 282.557,553.391 282.89,552.391 283.5,551.5C 295.838,551.667 308.171,551.5 320.5,551C 321.701,550.097 322.535,548.931 323,547.5C 323.17,536.326 323.67,525.326 324.5,514.5 Z"/></g>
<g><path style="opacity:0.945" fill="#1d3858" d="M 524.5,548.5 C 514.183,557.461 503.516,557.794 492.5,549.5C 491.559,547.95 490.893,546.284 490.5,544.5C 490.369,543.761 490.536,543.094 491,542.5C 495.829,551.496 503.329,554.996 513.5,553C 516.941,550.946 520.608,549.446 524.5,548.5 Z"/></g>
<g><path style="opacity:0.004" fill="#44617a" d="M 591.5,553.5 C 592.833,554.167 592.833,554.167 591.5,553.5 Z"/></g>
<g><path style="opacity:0.024" fill="#58758c" d="M 640.5,554.5 C 640.5,554.167 640.5,553.833 640.5,553.5C 642.167,553.5 643.833,553.5 645.5,553.5C 644.152,554.186 642.985,555.186 642,556.5C 641.722,555.584 641.222,554.918 640.5,554.5 Z"/></g>
<g><path style="opacity:1" fill="#1e3859" d="M 803.5,549.5 C 793.143,557.605 782.81,557.438 772.5,549C 771.086,547.007 770.086,544.84 769.5,542.5C 769.338,540.473 769.505,538.473 770,536.5C 770.615,545.252 775.115,550.752 783.5,553C 790.86,553.944 797.36,552.111 803,547.5C 803.464,548.094 803.631,548.761 803.5,549.5 Z"/></g>
<g><path style="opacity:0.004" fill="#435f79" d="M 593.5,554.5 C 594.833,555.167 594.833,555.167 593.5,554.5 Z"/></g>
<g><path style="opacity:0.008" fill="#46627a" d="M 640.5,554.5 C 639.833,555.167 639.833,555.167 640.5,554.5 Z"/></g>
<g><path style="opacity:0.004" fill="#45617c" d="M 746.5,554.5 C 745.833,555.167 745.833,555.167 746.5,554.5 Z"/></g>
<g><path style="opacity:0.004" fill="#45617a" d="M 831.5,554.5 C 832.833,555.167 832.833,555.167 831.5,554.5 Z"/></g>
<g><path style="opacity:0.004" fill="#446378" d="M 841.5,554.5 C 842.833,555.167 842.833,555.167 841.5,554.5 Z"/></g>
<g><path style="opacity:0.012" fill="#445f7a" d="M 536.5,555.5 C 537.833,556.167 537.833,556.167 536.5,555.5 Z"/></g>
<g><path style="opacity:0.004" fill="#47627b" d="M 650.5,555.5 C 651.833,556.167 651.833,556.167 650.5,555.5 Z"/></g>
<g><path style="opacity:0.004" fill="#455f77" d="M 890.5,555.5 C 891.833,556.167 891.833,556.167 890.5,555.5 Z"/></g>
<g><path style="opacity:0.004" fill="#415f7b" d="M 510.5,556.5 C 511.833,557.167 511.833,557.167 510.5,556.5 Z"/></g>
<g><path style="opacity:0.004" fill="#416179" d="M 726.5,556.5 C 727.833,557.167 727.833,557.167 726.5,556.5 Z"/></g>
<g><path style="opacity:0.012" fill="#43627d" d="M 728.5,556.5 C 729.833,557.167 729.833,557.167 728.5,556.5 Z"/></g>
<g><path style="opacity:0.004" fill="#45637c" d="M 784.5,556.5 C 785.833,557.167 785.833,557.167 784.5,556.5 Z"/></g>
<g><path style="opacity:0.008" fill="#44627b" d="M 790.5,556.5 C 791.833,557.167 791.833,557.167 790.5,556.5 Z"/></g>
<g><path style="opacity:0.996" fill="#1c3553" d="M 937.5,533.5 C 938.338,533.842 938.672,534.508 938.5,535.5C 935.817,547.048 931.65,558.048 926,568.5C 924.629,570.041 923.129,571.375 921.5,572.5C 920.761,572.631 920.094,572.464 919.5,572C 922.731,569.433 925.231,566.266 927,562.5C 931.08,553.014 934.58,543.347 937.5,533.5 Z"/></g>
<g><path style="opacity:0.998" fill="#174570" d="M 280.5,470.5 C 282.41,471.975 283.576,473.975 284,476.5C 284.819,487.077 284.652,497.577 283.5,508C 285.058,508.21 286.391,508.71 287.5,509.5C 286.391,510.29 285.058,510.79 283.5,511C 296.075,511.177 308.575,511.677 321,512.5C 321.464,511.906 321.631,511.239 321.5,510.5C 323.262,511.262 324.262,512.596 324.5,514.5C 323.67,525.326 323.17,536.326 323,547.5C 322.535,548.931 321.701,550.097 320.5,551C 308.171,551.5 295.838,551.667 283.5,551.5C 282.127,551.343 280.793,551.51 279.5,552C 281.767,553.081 281.934,554.581 280,556.5C 278.542,555.253 277.042,555.253 275.5,556.5C 274.193,555.184 272.693,554.184 271,553.5C 270.426,555.492 269.259,556.992 267.5,558C 269.717,559.275 272.051,560.275 274.5,561C 272.863,562.951 271.363,562.784 270,560.5C 268.989,561.337 267.822,561.67 266.5,561.5C 266.286,563.144 266.62,564.644 267.5,566C 269.493,565.768 271.326,565.935 273,566.5C 273.333,565.833 273.667,565.167 274,564.5C 276.61,565.94 278.777,567.94 280.5,570.5C 278.254,571.983 277.421,573.983 278,576.5C 278.654,575.304 279.154,575.304 279.5,576.5C 279,576.833 278.5,577.167 278,577.5C 275.705,575.846 273.205,575.013 270.5,575C 273.025,577.291 276.025,578.624 279.5,579C 278.692,579.308 278.025,579.808 277.5,580.5C 278.313,581.814 279.313,582.981 280.5,584C 279.013,586.485 277.179,588.652 275,590.5C 273.984,589.366 273.317,589.699 273,591.5C 272.24,589.503 271.74,587.837 271.5,586.5C 270.585,587.328 269.919,588.328 269.5,589.5C 270.167,589.833 270.833,590.167 271.5,590.5C 270.975,591.192 270.308,591.692 269.5,592C 262.144,592.831 254.811,592.665 247.5,591.5C 248.167,590.5 248.833,589.5 249.5,588.5C 248.607,585.916 248.274,583.249 248.5,580.5C 249.5,580.5 250.5,580.5 251.5,580.5C 251.413,577.402 251.913,577.068 253,579.5C 253.318,577.939 254.151,576.772 255.5,576C 254.376,575.751 253.376,575.251 252.5,574.5C 255.153,573.784 255.82,571.784 254.5,568.5C 255.247,568.264 256.08,567.93 257,567.5C 257.034,565.82 257.201,564.32 257.5,563C 256.062,561.759 254.562,561.259 253,561.5C 252.333,560.5 252.333,559.5 253,558.5C 253.451,560.929 254.285,561.096 255.5,559C 253.795,555.75 252.295,555.916 251,559.5C 250.626,558.584 250.126,557.75 249.5,557C 251.158,556.275 251.658,555.108 251,553.5C 249.732,553.616 248.398,553.949 247,554.5C 246.544,553.256 247.044,552.423 248.5,552C 247.167,551.667 245.833,551.333 244.5,551C 247.184,550.222 249.517,548.889 251.5,547C 250.167,546 248.833,545 247.5,544C 248.833,543 248.833,542 247.5,541C 246.207,540.51 244.873,540.343 243.5,540.5C 243.45,543.198 244.45,545.364 246.5,547C 245.975,547.692 245.308,548.192 244.5,548.5C 242.526,546.536 240.86,544.369 239.5,542C 240.428,541.612 241.095,540.945 241.5,540C 239.383,537.324 239.217,534.824 241,532.5C 242.119,533.552 242.619,534.719 242.5,536C 243.449,536.617 244.282,536.451 245,535.5C 245.667,536.167 246.333,536.833 247,537.5C 247.561,535.275 248.561,533.275 250,531.5C 250.333,532.167 250.667,532.833 251,533.5C 252.987,529.633 253.487,529.633 252.5,533.5C 253.737,534.281 254.737,535.281 255.5,536.5C 253.744,536.36 252.078,536.86 250.5,538C 251.448,538.483 252.448,538.649 253.5,538.5C 253.649,539.552 253.483,540.552 253,541.5C 252.107,540.289 251.274,540.289 250.5,541.5C 251.934,542.23 253.1,543.23 254,544.5C 254.308,543.692 254.808,543.025 255.5,542.5C 257.329,544.362 259.996,545.362 263.5,545.5C 263.714,543.856 263.38,542.356 262.5,541C 263.167,540.667 263.833,540.333 264.5,540C 263.773,538.601 263.273,537.101 263,535.5C 259.999,535.576 259.833,534.409 262.5,532C 264.313,532.046 265.979,531.88 267.5,531.5C 266.885,528.961 266.218,526.461 265.5,524C 266.167,523.667 266.833,523.333 267.5,523C 265.616,522.784 263.949,522.117 262.5,521C 263.5,520.667 264.5,520.333 265.5,520C 264.747,518.513 263.914,518.346 263,519.5C 262.535,518.069 261.701,516.903 260.5,516C 261.428,515.612 262.095,514.945 262.5,514C 261.576,512.85 261.576,511.85 262.5,511C 262,510.833 261.5,510.667 261,510.5C 258.501,511.842 258.335,513.008 260.5,514C 259.108,516.724 257.942,519.557 257,522.5C 256.667,521.5 256.333,520.5 256,519.5C 255.667,519.833 255.333,520.167 255,520.5C 253.933,519.809 252.766,519.309 251.5,519C 254.116,516.579 254.116,515.079 251.5,514.5C 252.081,512.276 253.414,511.443 255.5,512C 254.549,512.718 254.383,513.551 255,514.5C 255.893,515.711 256.726,515.711 257.5,514.5C 257.537,512.678 257.204,510.678 256.5,508.5C 254.549,508.227 253.049,508.893 252,510.5C 251.683,508.699 251.016,508.366 250,509.5C 248.396,508.932 247.73,507.932 248,506.5C 249.726,507.576 251.559,507.743 253.5,507C 251.508,506.426 250.008,505.259 249,503.5C 248.667,503.833 248.333,504.167 248,504.5C 243.598,501.529 241.598,502.862 242,508.5C 241.506,506.866 241.34,505.199 241.5,503.5C 241.334,493.828 241.5,484.161 242,474.5C 242.833,473.667 243.667,472.833 244.5,472C 256.409,471.179 268.243,471.346 280,472.5C 280.464,471.906 280.631,471.239 280.5,470.5 Z"/></g>
<g><path style="opacity:0.004" fill="#44637a" d="M 895.5,567.5 C 896.833,568.167 896.833,568.167 895.5,567.5 Z"/></g>
<g><path style="opacity:0.977" fill="#011735" d="M 282.5,554.5 C 282.833,554.5 283.167,554.5 283.5,554.5C 283.5,565.5 283.5,576.5 283.5,587.5C 283.5,588.167 283.5,588.833 283.5,589.5C 282.637,590.463 281.97,590.463 281.5,589.5C 282.479,577.884 282.812,566.218 282.5,554.5 Z"/></g>
<g><path style="opacity:0.01" fill="#446179" d="M 896.5,570.5 C 897.573,571.251 897.74,572.251 897,573.5C 896.517,572.552 896.351,571.552 896.5,570.5 Z"/></g>
<g><path style="opacity:0.02" fill="#486f90" d="M 284.5,553.5 C 284.881,554.931 285.881,555.764 287.5,556C 286.747,557.487 285.914,557.654 285,556.5C 284.83,567.008 284.33,577.341 283.5,587.5C 283.5,576.5 283.5,565.5 283.5,554.5C 283.5,553.833 283.833,553.5 284.5,553.5 Z"/></g>
<g><path style="opacity:0.982" fill="#031f41" d="M 402.5,410.5 C 402.5,411.167 402.5,411.833 402.5,412.5C 402.5,480.167 402.5,547.833 402.5,615.5C 402.567,616.959 402.234,618.292 401.5,619.5C 400.833,619.5 400.167,619.5 399.5,619.5C 400.475,616.933 401.142,614.267 401.5,611.5C 401.5,547.167 401.5,482.833 401.5,418.5C 401.726,415.751 401.393,413.084 400.5,410.5C 400.97,409.537 401.637,409.537 402.5,410.5 Z"/></g>
<g><path style="opacity:0.973" fill="#243d5b" d="M 905.5,564.5 C 906.552,564.351 907.552,564.517 908.5,565C 906.1,565.186 903.766,565.686 901.5,566.5C 900.593,569.421 900.26,572.421 900.5,575.5C 905.179,575.666 909.845,575.499 914.5,575C 915.946,573.702 917.279,573.535 918.5,574.5C 912.73,578.019 906.397,579.186 899.5,578C 898.833,574.333 898.167,570.667 897.5,567C 899.653,564.835 902.319,564.002 905.5,564.5 Z"/></g>
<g><path style="opacity:0.986" fill="#1d3556" d="M 280.5,593.5 C 280.082,594.222 279.416,594.722 278.5,595C 266.992,595.826 255.659,595.659 244.5,594.5C 243.537,593.637 243.537,592.97 244.5,592.5C 255.453,593.644 266.453,593.811 277.5,593C 279.304,591.188 280.304,591.354 280.5,593.5 Z"/></g>
<g><path style="opacity:0.843" fill="#1e3f63" d="M 148.5,615.5 C 151.247,616.966 154.247,617.799 157.5,618C 227.166,618.5 296.833,618.667 366.5,618.5C 296.002,619.499 225.335,619.833 154.5,619.5C 151.484,619.159 148.818,617.993 146.5,616C 145.549,615.282 145.383,614.449 146,613.5C 146.708,614.381 147.542,615.047 148.5,615.5 Z"/></g>
<g><path style="opacity:0.996" fill="#02234a" d="M 366.5,618.5 C 369.598,618.413 369.932,618.913 367.5,620C 332.502,620.5 297.502,620.667 262.5,620.5C 226.329,620.832 190.329,620.498 154.5,619.5C 225.335,619.833 296.002,619.499 366.5,618.5 Z"/></g>
<g><path style="opacity:0.004" fill="#3f617d" d="M 402.5,620.5 C 403.833,621.167 403.833,621.167 402.5,620.5 Z"/></g>
<g><path style="opacity:0.008" fill="#405f7b" d="M 120.5,623.5 C 121.833,624.167 121.833,624.167 120.5,623.5 Z"/></g>
<g><path style="opacity:0.008" fill="#3e5e7a" d="M 121.5,625.5 C 122.833,626.167 122.833,626.167 121.5,625.5 Z"/></g>
<g><path style="opacity:0.004" fill="#3e5d79" d="M 122.5,627.5 C 123.833,628.167 123.833,628.167 122.5,627.5 Z"/></g>
<g><path style="opacity:0.992" fill="#193455" d="M 145.5,640.5 C 145.5,640.833 145.5,641.167 145.5,641.5C 134.191,638.803 126.524,632.47 122.5,622.5C 122.369,621.761 122.536,621.094 123,620.5C 127.889,630.229 135.389,636.896 145.5,640.5 Z"/></g>
<g><path style="opacity:0.004" fill="#41607a" d="M 128.5,634.5 C 129.833,635.167 129.833,635.167 128.5,634.5 Z"/></g>
<g><path style="opacity:0.004" fill="#425f7a" d="M 131.5,637.5 C 132.833,638.167 132.833,638.167 131.5,637.5 Z"/></g>
<g><path style="opacity:0.949" fill="#1b3655" d="M 399.5,619.5 C 400.167,619.5 400.833,619.5 401.5,619.5C 396.954,631.041 388.621,638.374 376.5,641.5C 376.5,640.833 376.5,640.167 376.5,639.5C 380.362,638.572 384.029,637.072 387.5,635C 393.551,631.386 397.551,626.219 399.5,619.5 Z"/></g>
<g><path style="opacity:0.996" fill="#0f284c" d="M 376.5,639.5 C 376.5,640.167 376.5,640.833 376.5,641.5C 299.402,642.831 222.402,642.831 145.5,641.5C 145.5,641.167 145.5,640.833 145.5,640.5C 166.167,640.5 186.833,640.5 207.5,640.5C 263.875,640.825 320.208,640.492 376.5,639.5 Z"/></g>
</svg>
