<?xml version="1.0" encoding="UTF-8"?>
<svg version="1.1" xmlns="http://www.w3.org/2000/svg" width="1024" height="1024">
<path d="M0 0 C4.43669732 3.06343387 7.07601859 6.64922864 8.625 11.8125 C8.625 13.4625 8.625 15.1125 8.625 16.8125 C35.355 16.8125 62.085 16.8125 89.625 16.8125 C89.625 14.8325 89.625 12.8525 89.625 10.8125 C91.55094547 5.82456748 94.77701554 1.80699454 99.59765625 -0.56640625 C104.59064363 -2.09604978 109.60428073 -1.99578771 114.4375 -0.0625 C121.27495371 5.79817461 121.27495371 5.79817461 122.06347656 10.33569336 C122.16354004 11.6680603 122.16354004 11.6680603 122.265625 13.02734375 C122.33813477 13.92445068 122.41064453 14.82155762 122.48535156 15.74584961 C122.53143555 16.42784424 122.57751953 17.10983887 122.625 17.8125 C123.46047363 17.7717334 124.29594727 17.7309668 125.15673828 17.68896484 C128.32857184 17.54059289 131.50065795 17.40424571 134.67333984 17.27539062 C136.69278064 17.1899217 138.71164894 17.09124637 140.73046875 16.9921875 C156.92309543 16.35405443 170.67068778 17.98206555 183.5 28.5625 C192.11261934 36.78505506 196.46956609 46.86406237 196.86230469 58.73120117 C196.95622219 64.48847941 196.88734093 70.24289638 196.8125 76 C196.79742767 78.02147442 196.78374378 80.04295969 196.77148438 82.06445312 C196.73867671 86.9807401 196.68703458 91.8964985 196.625 96.8125 C195.50302384 95.8585401 194.38214052 94.9032948 193.26171875 93.94750977 C192.63740967 93.41569595 192.01310059 92.88388214 191.36987305 92.33595276 C189.34615793 90.56904233 187.47774395 88.69458255 185.625 86.75 C183.12167075 84.18323355 180.69134525 82.07842084 177.6875 80.125 C174.625 77.8125 174.625 77.8125 173.9296875 75.59375 C173.57571131 72.36258271 173.60510134 69.24937333 173.6875 66 C173.7126756 57.96059225 173.39520525 51.40707208 167.48364258 45.39404297 C159.92588866 38.96305258 148.84832137 40.46720951 139.5625 40.625 C138.01368489 40.64007481 136.46485559 40.65375827 134.91601562 40.66601562 C131.15198822 40.69879862 127.38865362 40.75042502 123.625 40.8125 C123.49512695 41.57248291 123.36525391 42.33246582 123.23144531 43.11547852 C123.05709961 44.10990967 122.88275391 45.10434082 122.703125 46.12890625 C122.53200195 47.11576416 122.36087891 48.10262207 122.18457031 49.11938477 C121.20307878 53.84313394 119.57264912 56.03715072 115.875 59.0625 C110.72969524 61.83304872 106.66787184 62.3267028 101.0625 60.8125 C95.88857139 58.83475254 93.6249394 56.49533224 90.625 51.8125 C89.635 46.3675 89.635 46.3675 88.625 40.8125 C62.555 40.8125 36.485 40.8125 9.625 40.8125 C8.635 45.1025 7.645 49.3925 6.625 53.8125 C3.66517524 57.58627656 0.63460116 60.5018503 -4.23046875 61.25390625 C-9.82148983 61.45709693 -14.39366605 61.59047284 -19 58.125 C-22.22158546 54.67733837 -23.1374482 51.62733368 -24.0859375 47.04296875 C-24.4579126 45.29149536 -24.4579126 45.29149536 -24.83740234 43.50463867 C-25.01480957 42.61623291 -25.1922168 41.72782715 -25.375 40.8125 C-29.60673639 40.73752375 -33.83810588 40.68351459 -38.0703125 40.64770508 C-39.5056025 40.63275414 -40.94084791 40.61238576 -42.37597656 40.58618164 C-56.68078908 40.19894958 -56.68078908 40.19894958 -69.3125 46.125 C-73.4088803 51.46270767 -74.81989243 55.87040437 -74.76268005 62.54147339 C-74.76806559 63.30049615 -74.77345113 64.05951891 -74.77899987 64.84154236 C-74.79326202 67.3748344 -74.78618016 69.90760262 -74.77905273 72.44091797 C-74.78475726 74.26131611 -74.79172185 76.08171068 -74.79985046 77.90209961 C-74.81778898 82.84019211 -74.81661203 87.77810699 -74.81090808 92.71622229 C-74.80781687 96.84142718 -74.81390801 100.96659792 -74.81994683 105.09179795 C-74.83399306 114.82571322 -74.83243026 124.55954073 -74.82104492 134.29345703 C-74.80956662 144.32846964 -74.82363436 154.36321491 -74.8504414 164.39819229 C-74.87260937 173.02004211 -74.8792332 181.64180809 -74.87336498 190.26368439 C-74.86999648 195.4103912 -74.87240336 200.55692668 -74.88961601 205.70360947 C-74.90510023 210.54478675 -74.90111313 215.3855686 -74.88231087 220.22673035 C-74.87862892 222.0004125 -74.88172194 223.77412404 -74.89219666 225.54777908 C-74.90543601 227.97549203 -74.89383419 230.40190151 -74.87620544 232.82955933 C-74.88581045 233.52588026 -74.89541546 234.22220119 -74.90531152 234.93962276 C-74.80377001 241.76962152 -72.26848769 246.78690852 -67.6875 251.6875 C-61.20611897 255.84536707 -53.92186371 256.10951299 -46.3875885 256.07319641 C-45.52940834 256.07702196 -44.67122818 256.08084751 -43.78704256 256.08478898 C-40.93617088 256.0950367 -38.0855037 256.0911426 -35.23461914 256.0871582 C-33.18057572 256.0915092 -31.12653391 256.09669364 -29.07249451 256.10264587 C-23.51053155 256.11600448 -17.94863668 256.1166181 -12.38666081 256.11408257 C-7.73709712 256.11301086 -3.08754708 256.11790129 1.56201369 256.122688 C12.53345903 256.13377205 23.50487013 256.1342266 34.47631836 256.12817383 C45.78200074 256.12213246 57.08755873 256.13445179 68.39321989 256.1557439 C78.11323047 256.17337433 87.83320151 256.17935903 97.55322748 256.17610615 C103.35273375 256.17429567 109.15215125 256.17690627 114.95164299 256.19082069 C120.40591434 256.20341803 125.85999202 256.20143679 131.31426048 256.18840981 C133.311252 256.18604875 135.30825722 256.18876177 137.305233 256.19703293 C153.36491584 256.79219546 153.36491584 256.79219546 167.5625 250.4375 C168.243125 249.57125 168.92375 248.705 169.625 247.8125 C170.2025 247.090625 170.78 246.36875 171.375 245.625 C173.7127281 240.36511178 173.74751996 234.68092936 173.375 229 C173.64653647 225.53790995 174.28798159 224.48722535 176.87109375 222.25 C177.44988281 221.775625 178.02867187 221.30125 178.625 220.8125 C180.27700145 219.36115763 181.92224352 217.90210307 183.5625 216.4375 C184.42746094 215.66792969 185.29242188 214.89835938 186.18359375 214.10546875 C188.33979703 212.08036263 190.24456099 210.02777993 192.125 207.75 C192.95 206.780625 193.775 205.81125 194.625 204.8125 C195.285 204.8125 195.945 204.8125 196.625 204.8125 C196.7000159 209.71969383 196.7540041 214.62654271 196.78979492 219.53417969 C196.80473924 221.19830145 196.82510223 222.86238483 196.85131836 224.52636719 C197.09609134 240.47980606 195.82629359 253.80886726 184.51953125 266.1015625 C175.02947177 275.07092845 164.29244584 279.12751981 151.39802551 279.07992554 C150.03580597 279.08672221 150.03580597 279.08672221 148.64606684 279.09365618 C145.61400858 279.10627969 142.58213041 279.10468112 139.55004883 279.10302734 C137.37146779 279.10901394 135.19288888 279.11581978 133.01431274 279.12338257 C127.10294167 279.14103812 121.19162851 279.14573782 115.28023362 279.14701414 C111.58399432 279.14843674 107.8877697 279.15270846 104.19153404 279.15800858 C90.62128784 279.1774641 77.05108721 279.18453931 63.48082807 279.18285771 C52.13389553 279.18199505 40.78713527 279.2047486 29.4402445 279.2345928 C19.11472729 279.26077927 8.78926873 279.27147174 -1.53628141 279.27019465 C-7.69808704 279.26968564 -13.8597329 279.27533492 -20.02150536 279.29655075 C-25.82051686 279.31597248 -31.61921684 279.31603048 -37.41823959 279.30151749 C-39.54017278 279.29943307 -41.66212566 279.30410823 -43.78402519 279.3162384 C-60.73762278 279.40683708 -73.49518022 277.72447205 -86.375 265.8125 C-92.74554823 258.40278432 -96.56587852 250.68399896 -97.54632568 240.94935608 C-97.62606872 240.21162399 -97.70581176 239.47389191 -97.78797126 238.7138043 C-98.59015158 230.68494523 -98.65668491 222.68416605 -98.63378906 214.62280273 C-98.63650867 212.98125047 -98.64007496 211.33969943 -98.64440918 209.69815063 C-98.65341966 205.29529965 -98.65003668 200.89254385 -98.64365101 196.4896915 C-98.63853237 191.84876195 -98.64329847 187.20783971 -98.64642334 182.56690979 C-98.65004573 174.77937378 -98.64530914 166.9918759 -98.63574219 159.2043457 C-98.62485716 150.24121879 -98.62839059 141.27818289 -98.639395 132.31505817 C-98.64851281 124.57439415 -98.64973142 116.8337573 -98.64451766 109.09308964 C-98.64142303 104.48960542 -98.64091882 99.88616379 -98.64759064 95.28268242 C-98.6534295 90.95277205 -98.64924955 86.62297743 -98.63780212 82.29307938 C-98.63519027 80.71786884 -98.6358599 79.14264831 -98.64032745 77.56744194 C-98.68427036 60.47934169 -98.60208208 42.6860316 -86.1953125 29.40234375 C-76.74999472 21.15289238 -66.81420931 17.45042662 -54.4375 17.125 C-53.08845581 17.07484741 -53.08845581 17.07484741 -51.7121582 17.02368164 C-42.93453592 16.72716637 -34.15615589 16.71600378 -25.375 16.8125 C-25.26285156 15.95978516 -25.26285156 15.95978516 -25.1484375 15.08984375 C-24.10693831 8.97358872 -22.11148352 4.90309941 -17.375 0.8125 C-12.04188372 -2.49315059 -5.74872598 -2.02269988 0 0 Z " fill="#121510" transform="translate(174.375,342.1875)"/>
<path d="M0 0 C15.9318559 -0.64553711 29.74876339 5.18969799 41.41015625 15.77734375 C44.81564671 18.96371418 47.83247245 21.87305797 49.78515625 26.15234375 C49.60033546 29.51466036 47.76426613 32.50207313 46.35986328 35.53100586 C35.68616431 58.67015841 35.36817999 84.081983 43.953125 108.00976562 C48.46025335 119.61615014 54.56294617 128.8593546 63.37890625 137.61328125 C65.78515625 140.15234375 65.78515625 140.15234375 66.78515625 143.15234375 C66.30916992 143.55324219 65.83318359 143.95414063 65.34277344 144.3671875 C61.53525464 147.62919001 57.90714911 150.98000056 54.42578125 154.58984375 C53.70261719 155.33878906 52.97945313 156.08773437 52.234375 156.859375 C50.74511397 158.4121214 49.26353949 159.97227042 47.7890625 161.5390625 C47.07105469 162.27769531 46.35304688 163.01632812 45.61328125 163.77734375 C44.97293945 164.45023438 44.33259766 165.123125 43.67285156 165.81640625 C41.78515625 167.15234375 41.78515625 167.15234375 39.76171875 167.05639648 C37.47995465 166.0127487 36.10088836 164.84068014 34.33203125 163.0625 C33.71328125 162.44310547 33.09453125 161.82371094 32.45703125 161.18554688 C31.8228125 160.53521484 31.18859375 159.88488281 30.53515625 159.21484375 C29.88546875 158.56837891 29.23578125 157.92191406 28.56640625 157.25585938 C23.78515625 152.41936384 23.78515625 152.41936384 23.78515625 150.15234375 C21.80515625 149.16234375 21.80515625 149.16234375 19.78515625 148.15234375 C19.78515625 147.49234375 19.78515625 146.83234375 19.78515625 146.15234375 C18.79515625 145.82234375 17.80515625 145.49234375 16.78515625 145.15234375 C15.58498202 143.76266833 14.3853262 142.37025049 13.26171875 140.91796875 C9.85837459 136.84836145 5.87704562 133.24836985 2.10595703 129.52075195 C-2.35402199 125.1088655 -6.80729166 120.69031317 -11.25578117 116.26684284 C-13.93592695 113.60232384 -16.61880077 110.94067748 -19.30810547 108.28540039 C-21.92715216 105.69925876 -24.53852211 103.10557903 -27.14502335 100.50679588 C-28.13018807 99.52710851 -29.11795711 98.55003174 -30.10854721 97.57583046 C-41.5193781 86.34637957 -52.25735073 73.54146211 -52.5949707 56.79663086 C-52.55820864 40.52504095 -47.95279289 27.4606807 -36.72265625 15.5078125 C-26.5926044 5.99313763 -13.70319042 0.94254749 0 0 Z " fill="#0E110D" transform="translate(173.21484375,417.84765625)"/>
<path d="M0 0 C2.00799754 1.67049624 2.00799754 1.67049624 4.875 3.515625 C4.875 4.175625 4.875 4.835625 4.875 5.515625 C5.535 5.515625 6.195 5.515625 6.875 5.515625 C22.6945663 21.63227236 29.29426479 42.65858194 29.24291992 64.74926758 C29.09959405 73.2285889 27.78330524 80.5058663 24.875 88.515625 C24.51277344 89.5571875 24.15054688 90.59875 23.77734375 91.671875 C17.59092399 107.94530461 5.24877622 123.0416835 -10.125 131.515625 C-11.47464844 132.27939453 -11.47464844 132.27939453 -12.8515625 133.05859375 C-22.42994358 138.17633034 -33.18260697 142.03986878 -44.125 142.515625 C-45.1253125 142.5671875 -46.125625 142.61875 -47.15625 142.671875 C-71.41575834 143.32753739 -92.04498935 134.7223686 -109.6640625 118.0625 C-124.08209545 103.14098019 -132.61516853 80.96819066 -132.26953125 60.32421875 C-131.12846708 38.15056638 -122.54121193 17.75207858 -106.125 2.515625 C-75.83283096 -23.2986568 -31.23944266 -25.49689806 0 0 Z M-97.125 20.515625 C-97.75664062 21.11632812 -98.38828125 21.71703125 -99.0390625 22.3359375 C-109.8322422 33.31930539 -113.54266424 48.59346085 -113.49194336 63.51000977 C-113.06783599 79.67432154 -106.56787177 95.32038098 -94.890625 106.69140625 C-89.55436425 111.22391344 -84.23428073 114.7956831 -78 117.953125 C-77.03368652 118.44776245 -77.03368652 118.44776245 -76.04785156 118.95239258 C-62.0334422 125.73453024 -45.12468676 125.28150588 -30.48828125 120.76953125 C-14.58126494 114.83904085 -1.62538975 102.74881095 5.875 87.515625 C8.29611421 81.05163436 10.37255175 74.42428841 10.875 67.515625 C10.93816406 66.68289063 11.00132812 65.85015625 11.06640625 64.9921875 C11.70839937 49.54293376 6.6386256 33.79905426 -3.5625 22.140625 C-5.06624641 20.58228714 -6.58551875 19.03867051 -8.125 17.515625 C-8.64320313 16.96390625 -9.16140625 16.4121875 -9.6953125 15.84375 C-20.13345775 5.67885463 -36.37764738 0.58604308 -50.5625 0.140625 C-68.68303323 0.70553371 -84.58985605 7.42129247 -97.125 20.515625 Z " fill="#141611" transform="translate(350.125,430.484375)"/>
<path d="M0 0 C2.8125 2.375 2.8125 2.375 5 5 C5.64388672 5.73476563 5.64388672 5.73476563 6.30078125 6.484375 C10.30181442 11.44140725 11.63395042 16.85832994 13 23 C11.07864451 24.92135549 8.261596 24.13255801 5.70898438 24.13671875 C4.87689453 24.13285156 4.04480469 24.12898438 3.1875 24.125 C1.95676758 24.13080078 1.95676758 24.13080078 0.70117188 24.13671875 C-0.09353516 24.13542969 -0.88824219 24.13414062 -1.70703125 24.1328125 C-2.79721558 24.13112061 -2.79721558 24.13112061 -3.90942383 24.12939453 C-6.07746629 23.99520529 -7.93928868 23.68848972 -10 23 C-11.0546875 21.2578125 -11.0546875 21.2578125 -11.875 19.125 C-13.28132551 16.08972603 -13.88242019 15.08476684 -16.6875 13.0625 C-23.76806299 10.79137602 -29.08347416 10.57206514 -36.15234375 13.015625 C-38.3368062 13.99223647 -38.3368062 13.99223647 -40 17 C-40.50010524 19.95769177 -40.50010524 19.95769177 -40 23 C-37.18515275 26.47755022 -34.69646406 27.73255189 -30.4375 28.9375 C-29.29539062 29.26878906 -28.15328125 29.60007812 -26.9765625 29.94140625 C-24.08688925 30.72849116 -21.18438744 31.44834639 -18.2734375 32.15234375 C2.74165953 37.2814733 2.74165953 37.2814733 9.5 46.0625 C13.38714443 52.59997018 14.97475481 60.88523884 13.375 68.375 C10.1262165 76.93997467 5.73586462 83.34093671 -2.7890625 87.29296875 C-14.66715086 91.72724163 -29.60180123 93.55488113 -41.76953125 89.03125 C-50.88176975 84.81823605 -58.14634577 79.94049476 -62.09375 70.33984375 C-63.36078703 66.35688939 -64 63.21198938 -64 59 C-56.74 59 -49.48 59 -42 59 C-41.01 61.97 -40.02 64.94 -39 68 C-34.94547833 72.38303302 -28.68680488 72.60756052 -23 73 C-18.30496659 72.54922131 -14.09277271 71.37363364 -10 69 C-8.31694187 66.1147575 -7.99422392 64.2830278 -8.0625 60.9375 C-9.26826896 57.15942391 -10.75211844 56.22341203 -14 54 C-17.00981013 52.80861136 -17.00981013 52.80861136 -20.3125 52 C-21.5396875 51.66871094 -22.766875 51.33742188 -24.03125 50.99609375 C-26.73167031 50.30549225 -29.43997845 49.66027949 -32.15625 49.03515625 C-42.97439597 46.5237557 -52.37119858 43.75811774 -59.1875 34.36328125 C-62.85028117 28.29679993 -62.94354218 21.8944793 -62 15 C-59.55094867 7.10018398 -55.04017629 1.83451255 -47.90234375 -2.1796875 C-32.85486775 -9.4513073 -14.19420367 -9.03505584 0 0 Z " fill="#141712" transform="translate(766,439)"/>
<path d="M0 0 C6.55092561 5.84423329 10.54800709 12.55948595 13 21 C13 22.65 13 24.3 13 26 C5.74 26 -1.52 26 -9 26 C-9.721875 24.4325 -10.44375 22.865 -11.1875 21.25 C-13.96214473 15.74734322 -16.38323517 13.09904123 -22.125 10.6875 C-28.88878717 9.48747324 -35.34972905 9.68359217 -41.4375 13.125 C-45.30832798 15.86386806 -47.01441294 18.72335096 -49 23 C-49.391875 23.78375 -49.78375 24.5675 -50.1875 25.375 C-53.31515442 35.47972967 -53.16813933 48.59303338 -48.30078125 58.09765625 C-44.93272584 63.02331086 -40.64532659 66.14353984 -35 68 C-28.25450632 68.76608114 -22.99550658 68.12265968 -17 65 C-16.01 64.67 -15.02 64.34 -14 64 C-11.6883026 60.38797281 -10.47057165 55.9215244 -9 52 C-1.41 52 6.18 52 14 52 C11.81089839 62.94550805 8.02328308 72.67122259 -1.05078125 79.7265625 C-13.32133419 87.74299588 -26.29377329 89.83071842 -40.609375 87.3828125 C-51.57908205 84.41731753 -60.33384339 78.37530848 -66.5 68.78515625 C-74.34531272 54.21820842 -76.65004386 37.71155511 -71.96484375 21.734375 C-68.06230098 10.6745372 -61.47298873 0.82960897 -51.03515625 -5.04296875 C-34.2773099 -12.92333795 -14.59037323 -11.84313523 0 0 Z " fill="#141612" transform="translate(489,442)"/>
<path d="M0 0 C5.31666925 4.30397034 8.90354908 7.7138575 10.03562927 14.63569641 C10.55099327 21.11756253 10.75883279 27.54160319 10.72265625 34.04296875 C10.7212413 35.02622635 10.71982635 36.00948395 10.71836853 37.02253723 C10.71283463 40.11922433 10.70029514 43.21583528 10.6875 46.3125 C10.68247644 48.43033749 10.67791504 50.54817612 10.67382812 52.66601562 C10.66374388 57.81906235 10.64415633 62.97194737 10.625 68.125 C4.025 68.125 -2.575 68.125 -9.375 68.125 C-9.705 66.145 -10.035 64.165 -10.375 62.125 C-11.385625 62.90875 -12.39625 63.6925 -13.4375 64.5 C-20.51574818 69.47733388 -27.95190203 69.82601205 -36.375 69.125 C-42.46244099 67.95328203 -46.34697953 65.9823188 -50.375 61.125 C-50.88546875 60.53976562 -51.3959375 59.95453125 -51.921875 59.3515625 C-55.19640509 54.33413736 -55.74186137 47.34575696 -55.07421875 41.484375 C-53.47876053 35.7289797 -50.35080207 32.30910379 -45.375 29.125 C-39.94911142 26.18116683 -34.46269434 25.12660184 -28.36328125 24.6953125 C-27.44095703 24.62183594 -26.51863281 24.54835938 -25.56835938 24.47265625 C-23.63671808 24.3233633 -21.70438076 24.18283445 -19.77148438 24.05078125 C-18.85302734 23.97472656 -17.93457031 23.89867187 -16.98828125 23.8203125 C-16.15079346 23.75859863 -15.31330566 23.69688477 -14.45043945 23.63330078 C-11.98887006 23.27836849 -11.98887006 23.27836849 -10.375 20.125 C-10.13449193 17.06609858 -10.13449193 17.06609858 -11.375 14.125 C-16.07962356 11.08659728 -19.86322169 10.6814917 -25.359375 11.55078125 C-28.31035006 12.39146601 -29.63779198 13.62342045 -31.375 16.125 C-32.365 18.6 -32.365 18.6 -33.375 21.125 C-39.645 20.795 -45.915 20.465 -52.375 20.125 C-51.31910108 12.73370758 -50.0335583 7.24007681 -44.21875 2.2890625 C-31.05345573 -6.70722192 -14.10380837 -7.83544909 0 0 Z M-19.625 36.375 C-20.37652344 36.48457031 -21.12804687 36.59414063 -21.90234375 36.70703125 C-26.89224001 37.53432644 -30.37540314 38.83230863 -34.375 42.125 C-35.69212225 45.76645563 -35.72993078 47.34415229 -34.125 50.875 C-31.99040795 53.6194755 -30.38086428 54.98920043 -26.88671875 55.4609375 C-22.40667728 55.52290211 -19.05898967 55.40592433 -14.875 53.6875 C-10.62047182 49.32660862 -9.22428457 44.09516965 -9.1875 38.0625 C-9.249375 37.093125 -9.31125 36.12375 -9.375 35.125 C-12.83264892 35.125 -16.22046141 35.81997438 -19.625 36.375 Z " fill="#151712" transform="translate(562.375,460.875)"/>
<path d="M0 0 C6.81581681 5.21346124 10.31100515 12.52512545 12.29296875 20.75390625 C12.86121157 25.41922756 13.15584078 30.05727317 13.29296875 34.75390625 C9.96862173 36.41607976 6.24790392 35.89549663 2.59375 35.88671875 C1.72533981 35.88767548 0.85692963 35.8886322 -0.03779602 35.88961792 C-1.87960889 35.89029936 -3.72142415 35.8884476 -5.56323242 35.88427734 C-8.36577861 35.87896079 -11.16816216 35.88420678 -13.97070312 35.890625 C-15.7617191 35.88996358 -17.55273498 35.8886811 -19.34375 35.88671875 C-20.17629807 35.88874298 -21.00884613 35.89076721 -21.86662292 35.89285278 C-26.58418318 35.87412055 -31.05368328 35.53888345 -35.70703125 34.75390625 C-34.20463924 41.04440937 -32.96943092 45.57097318 -27.70703125 49.75390625 C-23.78416679 51.71533848 -18.99373781 51.10080736 -14.70703125 50.75390625 C-11.65077892 49.70899565 -11.65077892 49.70899565 -9.70703125 47.75390625 C-9.44148437 47.07457031 -9.1759375 46.39523437 -8.90234375 45.6953125 C-7.70703125 43.75390625 -7.70703125 43.75390625 -5.421875 43.109375 C0.64907945 42.7422146 6.27087765 42.86540101 12.29296875 43.75390625 C11.97918076 49.87277212 9.1798262 54.20701641 5.29296875 58.75390625 C-3.63257034 66.49048985 -13.20364504 68.50899506 -24.7578125 68.10546875 C-32.83558241 67.38637944 -40.838223 64.53446174 -46.70703125 58.75390625 C-53.96816952 49.94784494 -56.91206103 40.11255615 -56.70703125 28.75390625 C-55.49551067 18.13251713 -52.34172752 8.85449092 -44.45703125 1.37890625 C-31.45961542 -8.83955208 -13.56184981 -8.72584135 0 0 Z M-30.70703125 12.75390625 C-34.02663645 16.77497209 -34.02663645 16.77497209 -34.70703125 21.75390625 C-28.69842576 22.81228752 -22.86075564 22.87053196 -16.76953125 22.81640625 C-15.31450195 22.80963867 -15.31450195 22.80963867 -13.83007812 22.80273438 C-11.45566365 22.79103775 -9.08138104 22.77464711 -6.70703125 22.75390625 C-7.41639802 17.29254486 -8.70643944 14.66559602 -12.70703125 10.75390625 C-19.61579634 7.65201172 -24.6278921 8.68038473 -30.70703125 12.75390625 Z " fill="#141612" transform="translate(683.70703125,462.24609375)"/>
<path d="M0 0 C8.33932844 7.87010791 10.4387258 17.92794507 11.3125 28.9375 C10.95601473 39.19169389 7.47693537 49.42697804 0.21875 56.8125 C-9.28089707 64.59909596 -20.14305294 66.09740022 -32.02294922 65.22753906 C-39.92420019 64.31818294 -47.45088651 60.70696574 -53 55 C-60.8229357 44.30226611 -63.35525657 32.38321102 -61.375 19.25 C-59.11666646 9.19820169 -54.55637825 1.86220219 -46 -4 C-30.89824098 -11.84654648 -13.28873019 -10.97998111 0 0 Z M-35 10 C-39.67471575 15.75349631 -40.20375107 20.55829076 -40.25 27.75 C-40.270625 28.53632813 -40.29125 29.32265625 -40.3125 30.1328125 C-40.3553365 36.57970562 -39.30403546 41.42490155 -34.875 46.375 C-29.96563216 49.14986008 -25.25023951 49.38946453 -19.75 48.4375 C-15.45849145 46.19421144 -12.88098351 43.42841049 -11.24609375 38.921875 C-9.10701343 30.36555372 -9.0819175 22.03909357 -13 14 C-15.93072721 10.37515319 -18.49825953 8.26972167 -23 7 C-27.60989372 7 -30.96902493 7.76516783 -35 10 Z " fill="#141612" transform="translate(879,465)"/>
<path d="M0 0 C0.83265381 0.00523682 1.66530762 0.01047363 2.52319336 0.01586914 C3.33280518 0.0183667 4.14241699 0.02086426 4.9765625 0.0234375 C6.01159912 0.0325415 7.04663574 0.04164551 8.11303711 0.05102539 C11.39241211 0.07165039 14.67178711 0.09227539 18.05053711 0.11352539 C18.05053711 6.71352539 18.05053711 13.31352539 18.05053711 20.11352539 C20.15428711 19.90727539 22.25803711 19.70102539 24.42553711 19.48852539 C28.01147461 19.13696289 28.01147461 19.13696289 31.05053711 19.11352539 C31.71053711 19.77352539 32.37053711 20.43352539 33.05053711 21.11352539 C33.02709961 24.15258789 33.02709961 24.15258789 32.67553711 27.73852539 C32.56467773 28.92704102 32.45381836 30.11555664 32.33959961 31.34008789 C32.24420898 32.25532227 32.14881836 33.17055664 32.05053711 34.11352539 C27.63047225 35.36224327 22.2708261 36.22366989 18.05053711 34.11352539 C18.54553711 53.41852539 18.54553711 53.41852539 19.05053711 73.11352539 C22.52383839 73.80818565 24.96356574 74.23364355 28.36303711 74.17602539 C30.18834961 74.14508789 30.18834961 74.14508789 32.05053711 74.11352539 C32.0773839 76.75942553 32.09730067 79.40505635 32.11303711 82.05102539 C32.12141602 82.80577148 32.12979492 83.56051758 32.13842773 84.33813477 C32.14706152 86.26346852 32.10278044 88.1888812 32.05053711 90.11352539 C29.34199174 92.82207076 22.66014709 92.03762238 19.05053711 92.11352539 C12.57920584 91.59648604 6.99534132 90.57590968 2.05053711 86.11352539 C-3.19035263 79.31727482 -3.10226314 71.59718305 -3.04711914 63.33618164 C-3.04570419 62.52483261 -3.04428925 61.71348358 -3.04283142 60.87754822 C-3.03727646 58.31033492 -3.02473257 55.74321191 -3.01196289 53.17602539 C-3.00694206 51.42537562 -3.00238018 49.67472446 -2.99829102 47.92407227 C-2.98732182 43.65385569 -2.97008872 39.3837058 -2.94946289 35.11352539 C-3.58754883 35.12512695 -4.22563477 35.13672852 -4.88305664 35.14868164 C-5.7093457 35.15770508 -6.53563477 35.16672852 -7.38696289 35.17602539 C-8.21067383 35.18762695 -9.03438477 35.19922852 -9.88305664 35.21118164 C-11.94946289 35.11352539 -11.94946289 35.11352539 -12.94946289 34.11352539 C-13.02218031 31.76038984 -13.03317157 29.40518871 -13.01196289 27.05102539 C-13.00293945 25.76067383 -12.99391602 24.47032227 -12.98461914 23.14086914 C-12.97301758 22.1418457 -12.96141602 21.14282227 -12.94946289 20.11352539 C-9.97946289 19.78352539 -7.00946289 19.45352539 -3.94946289 19.11352539 C-3.85858398 17.18186523 -3.85858398 17.18186523 -3.76586914 15.21118164 C-3.68148042 13.5327838 -3.5968316 11.85439903 -3.51196289 10.17602539 C-3.45298828 8.90082031 -3.45298828 8.90082031 -3.39282227 7.59985352 C-3.35092773 6.7909668 -3.3090332 5.98208008 -3.26586914 5.14868164 C-3.22921143 4.39981689 -3.19255371 3.65095215 -3.15478516 2.87939453 C-2.86275075 0.36775977 -2.52844085 0.1472417 0 0 Z " fill="#151712" transform="translate(905.949462890625,437.886474609375)"/>
<path d="M0 0 C7.26 0 14.52 0 22 0 C22 31.35 22 62.7 22 95 C14.74 95 7.48 95 0 95 C0 63.65 0 32.3 0 0 Z " fill="#161713" transform="translate(787,434)"/>
<path d="M0 0 C0.81862159 3.5798452 1.13520898 6.89237101 1.125 10.5625 C1.12886719 11.95662109 1.12886719 11.95662109 1.1328125 13.37890625 C1.01309964 15.74147476 0.66993233 17.74030763 0 20 C-0.64066406 20.02578125 -1.28132812 20.0515625 -1.94140625 20.078125 C-8.04208981 20.47816982 -12.08018736 21.28503943 -17 25 C-20.39236808 30.17963748 -20.46863491 34.78794139 -20.51171875 40.7734375 C-20.52966995 41.6971817 -20.54762115 42.6209259 -20.56611633 43.57266235 C-20.62005424 46.50672926 -20.654062 49.44063501 -20.6875 52.375 C-20.72068766 54.37111609 -20.75517865 56.36721097 -20.79101562 58.36328125 C-20.87821175 63.24220858 -20.93842124 68.12041379 -21 73 C-27.93 73 -34.86 73 -42 73 C-42 49.57 -42 26.14 -42 2 C-26 1 -26 1 -22 2 C-22 4.97 -22 7.94 -22 11 C-21.38125 9.9275 -20.7625 8.855 -20.125 7.75 C-15.45161707 1.20460856 -7.70214884 -0.66975207 0 0 Z " fill="#161814" transform="translate(624,456)"/>
<path d="M0 0 C2.64015051 0.43146429 3.35119527 1.25087006 5.0078125 3.328125 C6.94176302 11.40162944 5.95539843 20.30488467 5.5703125 28.515625 C5.51810547 29.75376953 5.46589844 30.99191406 5.41210938 32.26757812 C5.28382449 35.28810408 5.14893757 38.30817641 5.0078125 41.328125 C5.59771973 41.25303711 6.18762695 41.17794922 6.79541016 41.10058594 C13.3815115 40.3420851 19.7656824 40.28102936 26.3828125 40.578125 C27.83880859 40.61873047 27.83880859 40.61873047 29.32421875 40.66015625 C30.25878906 40.70011719 31.19335938 40.74007812 32.15625 40.78125 C33.41187744 40.83007324 33.41187744 40.83007324 34.69287109 40.87988281 C37.50850461 41.42507403 38.92398929 42.37935904 41.0078125 44.328125 C42.28441411 48.15792983 42.19206351 49.86311054 40.6953125 53.640625 C39.0078125 56.328125 39.0078125 56.328125 37.0078125 57.328125 C35.67672259 57.44184827 34.34036859 57.49735453 33.00463867 57.52099609 C32.18005661 57.53705902 31.35547455 57.55312195 30.50590515 57.56967163 C26.73303051 57.61415028 22.96033141 57.65518763 19.18725586 57.67822266 C17.19787903 57.69478051 15.20856165 57.72206828 13.21948242 57.76025391 C10.35043495 57.81504764 7.48278163 57.83690017 4.61328125 57.8515625 C3.72666306 57.87423187 2.84004486 57.89690125 1.92655945 57.92025757 C-2.22348253 57.90607624 -4.45895767 57.65612913 -8.05541992 55.44384766 C-10.85062143 50.94714255 -10.67429046 47.15183909 -10.5859375 41.953125 C-10.58597778 40.95104004 -10.58601807 39.94895508 -10.58605957 38.91650391 C-10.5807075 36.80169388 -10.56313825 34.68688415 -10.53417969 32.57226562 C-10.49233117 29.33922398 -10.49311233 26.10826681 -10.5 22.875 C-10.48950681 20.81769389 -10.47656801 18.76039849 -10.4609375 16.703125 C-10.46073608 15.73842285 -10.46053467 14.7737207 -10.46032715 13.77978516 C-10.31102105 5.29315076 -9.12146549 0.33658544 0 0 Z " fill="#151712" transform="translate(299.9921875,444.671875)"/>
<path d="M0 0 C1.98 0 3.96 0 6 0 C7.65 6.27 9.3 12.54 11 19 C12.93655212 15.12689577 14.06342111 11.40981654 15.125 7.25 C15.30675781 6.55261719 15.48851562 5.85523438 15.67578125 5.13671875 C16.12116452 3.42550935 16.56112516 1.71289017 17 0 C18.98 0 20.96 0 23 0 C23.21934204 0.85549438 23.21934204 0.85549438 23.44311523 1.72827148 C24.10434115 4.29894789 24.77084771 6.86822574 25.4375 9.4375 C25.66759766 10.33533203 25.89769531 11.23316406 26.13476562 12.15820312 C26.35712891 13.01220703 26.57949219 13.86621094 26.80859375 14.74609375 C27.01282959 15.53685303 27.21706543 16.3276123 27.42749023 17.14233398 C27.84032953 18.9961588 27.84032953 18.9961588 29 20 C30.65 13.4 32.3 6.8 34 0 C35.98 0 37.96 0 40 0 C38.90619461 4.38054238 37.80330274 8.75865614 36.69189453 13.13476562 C36.31503138 14.62404052 35.94066708 16.11395005 35.56884766 17.60449219 C35.03421938 19.74585662 34.49067024 21.88478401 33.9453125 24.0234375 C33.78064484 24.69120209 33.61597717 25.35896667 33.44631958 26.04696655 C32.22774341 30.77225659 32.22774341 30.77225659 30 33 C27.98144531 32.90454102 27.98144531 32.90454102 26 32 C24.99511719 30.05053711 24.99511719 30.05053711 24.296875 27.52734375 C24.06323242 26.71773193 23.82958984 25.90812012 23.58886719 25.07397461 C23.31204102 24.03893799 23.03521484 23.00390137 22.75 21.9375 C21.8425 18.658125 20.935 15.37875 20 12 C18.02 18.6 16.04 25.2 14 32 C12.02 32 10.04 32 8 32 C6.8518796 27.60476075 5.70690274 23.20870856 4.5625 18.8125 C4.23701172 17.56662109 3.91152344 16.32074219 3.57617188 15.03710938 C3.26357422 13.83505859 2.95097656 12.63300781 2.62890625 11.39453125 C2.34088135 10.28956299 2.05285645 9.18459473 1.75610352 8.04614258 C1.09261712 5.37313007 0.51289676 2.70536532 0 0 Z " fill="#24231C" transform="translate(416,554)"/>
<path d="M0 0 C0.66 -0.33 1.32 -0.66 2 -1 C5.95562822 -1.25797575 8.59659693 -1.09440189 12 1 C12.99 0.34 13.98 -0.32 15 -1 C18.39507457 -1.43341377 20.25841164 -1.47131469 23.17578125 0.3828125 C26.01353393 4.4541065 25.42591884 8.41899792 25.25 13.25 C25.23195313 14.18585937 25.21390625 15.12171875 25.1953125 16.0859375 C25.14825673 18.39167015 25.08253713 20.69530945 25 23 C23.35 23 21.7 23 20 23 C19.67 17.06 19.34 11.12 19 5 C17.35 5 15.7 5 14 5 C13.44071112 8.98493326 13 12.72122841 13 16.75 C13 19.44800805 12.81345722 21.45794619 12 24 C10.35 23.67 8.7 23.34 7 23 C6.67 17.39 6.34 11.78 6 6 C4.35 5.67 2.7 5.34 1 5 C0.0117122 8.26598233 -0.07404899 11.16087437 0 14.5625 C0.07052607 17.81110719 0.03597478 19.89207566 -1 23 C-2.65 23 -4.3 23 -6 23 C-6 15.41 -6 7.82 -6 0 C-3.4791665 -1.26041675 -2.64903564 -0.66225891 0 0 Z " fill="#26241D" transform="translate(591,563)"/>
<path d="M0 0 C2.63804589 -0.39397335 2.63804589 -0.39397335 5 -1 C7.52551477 21.91002686 7.52551477 21.91002686 3 29 C-0.3978701 31.52864752 -2.98055777 32.23849301 -7.125 31.9375 C-11.16098171 30.96105281 -12.57976572 30.29151862 -15 27 C-15.33 26.01 -15.66 25.02 -16 24 C-14.02 24 -12.04 24 -10 24 C-10 24.66 -10 25.32 -10 26 C-7.03 26 -4.06 26 -1 26 C-1 24.68 -1 23.36 -1 22 C-1.66 22.33 -2.32 22.66 -3 23 C-6.88795111 23.25356203 -9.78463789 23.32836566 -13 21 C-16.40054938 17.11365785 -16.45103329 13.32247147 -16.2890625 8.375 C-15.90833119 5.2468292 -15.07499902 3.37142746 -13 1 C-8.96122505 -1.92463014 -4.56435716 -1.52145239 0 0 Z M-9.25 5.625 C-11.50602353 8.68674622 -11.5439061 10.2703582 -11 14 C-9.62073227 16.34261608 -9.62073227 16.34261608 -8 18 C-5.6568787 17.74438677 -3.32156597 17.40729228 -1 17 C0.59071226 13.81857548 0.39662254 10.46336466 0 7 C-1.08674994 4.91015769 -1.08674994 4.91015769 -3 4 C-6.92212225 3.60967296 -6.92212225 3.60967296 -9.25 5.625 Z " fill="#201F17" transform="translate(902,563)"/>
<path d="M0 0 C2.31 0 4.62 0 7 0 C8.43008021 4.07306621 9.85407095 8.14819426 11.27246094 12.2253418 C11.75581792 13.61199243 12.24083311 14.99806621 12.72753906 16.38354492 C13.42689953 18.37529498 14.12026718 20.36904455 14.8125 22.36328125 C15.23144531 23.56251221 15.65039062 24.76174316 16.08203125 25.99731445 C17 29 17 29 17 32 C14.525 32.495 14.525 32.495 12 33 C11.01 30.36 10.02 27.72 9 25 C5.37 25 1.74 25 -2 25 C-2.99 27.64 -3.98 30.28 -5 33 C-6.65 33 -8.3 33 -10 33 C-9.37758534 28.64596567 -8.34150166 24.67204716 -6.93359375 20.5078125 C-6.53076172 19.30898438 -6.12792969 18.11015625 -5.71289062 16.875 C-5.29201172 15.6375 -4.87113281 14.4 -4.4375 13.125 C-4.00804586 11.8517033 -3.5790054 10.57826699 -3.15039062 9.3046875 C-2.10431745 6.20172887 -1.05406048 3.1002526 0 0 Z M3 7 C2.01 10.96 1.02 14.92 0 19 C2.64 19.33 5.28 19.66 8 20 C7.54803755 18.39402675 7.08817673 16.79027492 6.625 15.1875 C6.36976563 14.29417969 6.11453125 13.40085937 5.8515625 12.48046875 C5.04733339 9.79532104 5.04733339 9.79532104 3 7 Z " fill="#201F18" transform="translate(848,554)"/>
<path d="M0 0 C2.92816437 1.32788849 3.86729154 2.41830029 6 5 C6.875 8.3125 6.875 8.3125 7 11 C1.33566434 9.36363636 1.33566434 9.36363636 -0.5 7.375 C-2.02741534 5.70943787 -2.02741534 5.70943787 -4.9375 5.625 C-8.30019945 6.03675912 -9.62736644 6.62736644 -12 9 C-13.65025343 13.9507603 -13.8413331 18.28075409 -11.5625 22.9375 C-10.16261274 24.88293306 -10.16261274 24.88293306 -9 26 C-4.96908601 26.33346724 -4.96908601 26.33346724 -1 26 C0.63676257 24.0399719 0.63676257 24.0399719 2 22 C5.1875 21.75 5.1875 21.75 8 22 C6.26392549 26.5396731 4.94379682 29.40105202 0.75 32.0625 C-3.59529107 33.14882277 -6.73423521 33.38724058 -11 32 C-16.03573283 28.95955754 -18.0196829 25.98180782 -19.59375 20.33203125 C-20.76439856 13.61205825 -18.77145159 8.49554374 -15 3 C-10.54442423 -1.12696498 -5.77857583 -0.88515757 0 0 Z " fill="#23211A" transform="translate(759,554)"/>
<path d="M0 0 C1.98 0 3.96 0 6 0 C8.72286887 6.37471654 11.03862544 12.87162053 13.25 19.4375 C13.52021973 20.23075684 13.79043945 21.02401367 14.06884766 21.84130859 C14.31940918 22.5936377 14.5699707 23.3459668 14.828125 24.12109375 C15.0540332 24.7958374 15.27994141 25.47058105 15.51269531 26.16577148 C16 28 16 28 16 31 C16.66 31.33 17.32 31.66 18 32 C15.69 32 13.38 32 11 32 C9.74335022 29.09399739 9 27.20395416 9 24 C5.04 24 1.08 24 -3 24 C-3.144375 24.94875 -3.28875 25.8975 -3.4375 26.875 C-4 30 -4 30 -5 32 C-6.98 32 -8.96 32 -11 32 C-9.59607295 27.76352189 -8.19018645 23.52770073 -6.7824707 19.29248047 C-6.30373933 17.8512539 -5.82554632 16.40984838 -5.34790039 14.96826172 C-4.66173087 12.89764008 -3.97363545 10.82766715 -3.28515625 8.7578125 C-2.66459351 6.88826904 -2.66459351 6.88826904 -2.03149414 4.98095703 C-1 2 -1 2 0 0 Z M2 9 C0.515 14.445 0.515 14.445 -1 20 C1.64 20 4.28 20 7 20 C6.44894091 16.0507432 5.61064629 12.65079826 4 9 C3.34 9 2.68 9 2 9 Z " fill="#1E1D17" transform="translate(663,554)"/>
<path d="M0 0 C1.65 0 3.3 0 5 0 C5.90816798 3.86207074 6.11643845 7.43148656 6.09765625 11.39453125 C6.09443359 12.59658203 6.09121094 13.79863281 6.08789062 15.03710938 C6.07951172 16.28298828 6.07113281 17.52886719 6.0625 18.8125 C6.05798828 20.07771484 6.05347656 21.34292969 6.04882812 22.64648438 C6.03706251 25.7643711 6.02062272 28.88216133 6 32 C4.00211589 31.97762044 2.00423177 31.95524089 0.00634766 31.93286133 C-2.12834121 31.93035685 -2.12834121 31.93035685 -4.625 32.6875 C-8.31430727 33.17293517 -10.01003551 32.14497453 -13 30 C-15.42930068 26.17626319 -16.27817246 22.3093765 -15.9375 17.8125 C-14.95509063 13.81736857 -13.88321466 11.88321466 -11 9 C-8.26094655 7.63047327 -6.02912668 7.87378639 -3 8 C-2.34 8.33 -1.68 8.66 -1 9 C-0.67 6.03 -0.34 3.06 0 0 Z M-8.66796875 14.19921875 C-10.76086447 17.02861737 -10.52643846 19.48377154 -10.4375 22.90234375 C-10.16519606 25.30151063 -10.16519606 25.30151063 -7.5 27.0625 C-6.675 27.371875 -5.85 27.68125 -5 28 C-1.18539028 26.17962391 -1.18539028 26.17962391 0.9375 22.6875 C1.01335201 19.42586355 0.19242547 17.01613501 -1 14 C-5.01838461 12.79578144 -5.01838461 12.79578144 -8.66796875 14.19921875 Z " fill="#1E1D16" transform="translate(720,554)"/>
<path d="M0 0 C1.65 0 3.3 0 5 0 C6.2380014 3.57644848 5.74926071 6.33694766 5 10 C5.99 9.34 6.98 8.68 8 8 C11.96107524 7.5678827 14.11352623 7.3468088 17.375 9.75 C20.58468711 14.19418215 20.12339778 18.94720835 20.0625 24.25 C20.05798828 24.99507812 20.05347656 25.74015625 20.04882812 26.5078125 C20.03709246 28.3385764 20.0191585 30.16929873 20 32 C18 33 18 33 14 32 C13.67 26.06 13.34 20.12 13 14 C11.35 14 9.7 14 8 14 C5.94077598 16.05922402 6.58572421 20.21708124 6.4375 23.0625 C6.39431641 23.82111328 6.35113281 24.57972656 6.30664062 25.36132812 C6.20026367 27.24065438 6.09960066 29.12030244 6 31 C4.35 31.66 2.7 32.32 1 33 C0 32 0 32 -0.11352539 28.94897461 C-0.11336634 27.60008729 -0.10767612 26.25119386 -0.09765625 24.90234375 C-0.0962413 24.19348526 -0.09482635 23.48462677 -0.09336853 22.75428772 C-0.08775443 20.48198288 -0.07519963 18.20977525 -0.0625 15.9375 C-0.05748681 14.40039204 -0.05292359 12.86328255 -0.04882812 11.32617188 C-0.03778042 7.55074358 -0.02050641 3.77538829 0 0 Z " fill="#37342B" transform="translate(458,554)"/>
<path d="M0 0 C2.36497439 1.86708505 3.66030715 3.32061431 5 6 C5.08308638 7.37548156 5.10736016 8.75485796 5.09765625 10.1328125 C5.09443359 10.93847656 5.09121094 11.74414062 5.08789062 12.57421875 C5.07951172 13.41597656 5.07113281 14.25773438 5.0625 15.125 C5.05798828 15.97449219 5.05347656 16.82398438 5.04882812 17.69921875 C5.03702874 19.79950909 5.01909306 21.8997633 5 24 C3.35 24.33 1.7 24.66 0 25 C-0.33 24.34 -0.66 23.68 -1 23 C-1.556875 23.350625 -2.11375 23.70125 -2.6875 24.0625 C-5.63159108 25.25605044 -7.00185923 24.97439575 -10 24 C-12.3125 22.875 -12.3125 22.875 -14 21 C-14.46913089 16.62144505 -14.46943529 14.70415293 -12 11 C-9.3984375 10.26953125 -9.3984375 10.26953125 -6.375 9.8125 C-5.37210938 9.65394531 -4.36921875 9.49539063 -3.3359375 9.33203125 C-2.56507813 9.22246094 -1.79421875 9.11289062 -1 9 C-1 7.68 -1 6.36 -1 5 C-3.97065509 5.34227572 -3.97065509 5.34227572 -7 6 C-7.33 6.66 -7.66 7.32 -8 8 C-9.65 8 -11.3 8 -13 8 C-12.7323244 4.69866765 -12.4396165 3.37496702 -9.875 1.1875 C-6.28360996 -0.29590023 -3.85302424 -0.4903849 0 0 Z M-9 16 C-8.34 17.32 -7.68 18.64 -7 20 C-5.02 19.67 -3.04 19.34 -1 19 C-0.67 17.35 -0.34 15.7 0 14 C-3.62528568 13.79859524 -5.86501708 14.14223235 -9 16 Z " fill="#1D1C14" transform="translate(783,562)"/>
<path d="M0 0 C3.65721974 2.84450424 4.11599642 4.9459785 4.875 9.5 C4.99875 10.5725 5.1225 11.645 5.25 12.75 C1.45732808 13.6860342 -1.68674565 13.73276252 -5.5625 13.3125 C-7.02623047 13.15974609 -7.02623047 13.15974609 -8.51953125 13.00390625 C-9.25558594 12.92011719 -9.99164062 12.83632813 -10.75 12.75 C-9.91849891 14.74679112 -9.91849891 14.74679112 -8.75 16.75 C-6.34117313 17.74843776 -6.34117313 17.74843776 -3.75 17.75 C-2.76 17.09 -1.77 16.43 -0.75 15.75 C1.9375 15.625 1.9375 15.625 4.25 15.75 C3.00023244 19.40316671 2.57901247 20.53065836 -0.75 22.75 C-4.16379651 23.35175396 -7.33722471 23.36506158 -10.75 22.75 C-14.24634732 19.8244849 -15.46258863 17.72001336 -16.75 13.375 C-16.75 8.93832912 -15.98977976 5.58962244 -13.75 1.75 C-9.42702413 -1.98878994 -5.16495338 -2.34770608 0 0 Z M-9.625 5.0625 C-10.93490007 6.68932967 -10.93490007 6.68932967 -10.75 8.75 C-8.11 8.75 -5.47 8.75 -2.75 8.75 C-2.42 7.43 -2.09 6.11 -1.75 4.75 C-5.88271678 3.54651882 -5.88271678 3.54651882 -9.625 5.0625 Z M-1.75 6.75 C-0.75 8.75 -0.75 8.75 -0.75 8.75 Z " fill="#1F1E17" transform="translate(635.75,563.25)"/>
<path d="M0 0 C2.6875 0.9375 2.6875 0.9375 5 3 C6.59512819 6.48375997 8 10.13610723 8 14 C4.45049966 15.16306443 1.44176052 14.92365049 -2.25 14.5625 C-3.86648438 14.40974609 -3.86648438 14.40974609 -5.515625 14.25390625 C-6.33546875 14.17011719 -7.1553125 14.08632813 -8 14 C-6.68709988 17.20426105 -6.68709988 17.20426105 -3.8125 18.9375 C0.10522159 19.02456048 2.4937003 17.71877436 6 16 C6.33 16.99 6.66 17.98 7 19 C4.49163607 21.87724098 2.71339063 23.75714362 -0.9375 25 C-4.77923636 25 -6.78501891 24.0718767 -10 22 C-13.02787259 18.97212741 -13.75047224 16.24197187 -14 12 C-13.33147754 7.76602445 -12.37741736 4.96828935 -9.25 2.0625 C-5.6436269 -0.22615985 -4.16964261 -0.7097264 0 0 Z M-7 6 C-7 7.32 -7 8.64 -7 10 C-4.36 10 -1.72 10 1 10 C1.33 9.34 1.66 8.68 2 8 C0.7511573 6.4166747 0.7511573 6.4166747 -1 5 C-4.7763932 4.7018576 -4.7763932 4.7018576 -7 6 Z " fill="#1F1E17" transform="translate(494,562)"/>
<path d="M0 0 C3.29687629 2.78966456 4.19757984 5.1583004 4.75 9.3125 C4.87375 11.1378125 4.87375 11.1378125 5 13 C-0.50016964 14.30267176 -5.47032059 13.71033431 -11 13 C-10.17056599 15.00303318 -10.17056599 15.00303318 -9 17 C-6.20402714 17.86029934 -3.92828926 18 -1 18 C-0.67 17.01 -0.34 16.02 0 15 C1.65 15.33 3.3 15.66 5 16 C3.37596258 19.53466968 2.13709442 20.91827063 -1.25 22.9375 C-5.78289831 24.22182119 -7.75433916 24.00267021 -12 22 C-15.18773141 18.64879518 -16.25637017 15.96574564 -16.4375 11.4375 C-16.24147357 7.54964246 -15.58495431 5.03063609 -13 2 C-8.87633799 -1.53456743 -5.00621582 -1.68619403 0 0 Z M-8 4 C-9.8624438 6.40858714 -9.8624438 6.40858714 -11 9 C-7.7 9 -4.4 9 -1 9 C-1.57125354 5.25724788 -1.57125354 5.25724788 -3 4 C-5.41482413 3.49940084 -5.41482413 3.49940084 -8 4 Z " fill="#23211A" transform="translate(821,563)"/>
<path d="M0 0 C3.58209664 2.13548069 5.43390377 3.3879736 6.8203125 7.3359375 C7.31335966 9.53728891 7.66698864 11.76882387 8 14 C3.38 14 -1.24 14 -6 14 C-6.33 14.99 -6.66 15.98 -7 17 C-4.23011924 19.31543207 -4.23011924 19.31543207 -1.375 18.6875 C0.93501965 18.2258486 0.93501965 18.2258486 2 17 C3.66617115 16.95936168 5.33388095 16.957279 7 17 C6.4375 19.3125 6.4375 19.3125 5 22 C1.0630217 24.39306524 -1.09681595 25.12246563 -5.6875 24.5 C-9.44279827 22.79948758 -10.91257299 21.53256879 -13 18 C-14.47468374 13.15461056 -13.94542982 9.6521148 -12 5 C-8.6958642 0.92865 -5.27961071 -1.0999189 0 0 Z M-6.875 6.3125 C-8.18490007 7.93932967 -8.18490007 7.93932967 -8 10 C-4.7 10 -1.4 10 2 10 C1.67 8.68 1.34 7.36 1 6 C-3.13271678 4.79651882 -3.13271678 4.79651882 -6.875 6.3125 Z " fill="#1D1D15" transform="translate(531,562)"/>
<path d="M0 0 C2.66666667 0 5.33333333 0 8 0 C9.7015625 -0.12375 9.7015625 -0.12375 11.4375 -0.25 C15 0 15 0 17.20703125 1.375 C19.99724569 5.46001983 19.4254965 9.430596 19.25 14.25 C19.23195313 15.18585937 19.21390625 16.12171875 19.1953125 17.0859375 C19.14825673 19.39167015 19.08253713 21.69530945 19 24 C17.35 24 15.7 24 14 24 C13.93941406 22.78441406 13.87882813 21.56882812 13.81640625 20.31640625 C13.73201668 18.73175772 13.6473679 17.14712298 13.5625 15.5625 C13.52318359 14.76005859 13.48386719 13.95761719 13.44335938 13.13085938 C13.5945704 9.24760439 13.5945704 9.24760439 12 6 C10.33382885 5.95936168 8.66611905 5.957279 7 6 C6.93941406 7.13179687 6.87882813 8.26359375 6.81640625 9.4296875 C6.73200083 10.91147145 6.64735283 12.3932416 6.5625 13.875 C6.52318359 14.62136719 6.48386719 15.36773438 6.44335938 16.13671875 C6.11328125 21.7734375 6.11328125 21.7734375 5 24 C3.35 24 1.7 24 0 24 C0 16.08 0 8.16 0 0 Z " fill="#1D1B15" transform="translate(682,562)"/>
<path d="M0 0 C1.423125 0.2784375 1.423125 0.2784375 2.875 0.5625 C5.89868793 1.28686632 5.89868793 1.28686632 8 0 C11.375 -0.375 11.375 -0.375 15 0 C18.73597397 3.34271355 19.4005933 6.15819057 20 11 C20.06522873 13.29083289 20.0858841 15.58335794 20.0625 17.875 C20.05347656 19.02742187 20.04445313 20.17984375 20.03515625 21.3671875 C20.02355469 22.23601563 20.01195312 23.10484375 20 24 C17.69 24 15.38 24 13 24 C13.01160156 22.86820313 13.02320313 21.73640625 13.03515625 20.5703125 C13.04453454 19.08854331 13.0536347 17.60677235 13.0625 16.125 C13.07087891 15.37863281 13.07925781 14.63226562 13.08789062 13.86328125 C13.20688084 9.80154422 13.20688084 9.80154422 12 6 C10.35 6 8.7 6 7 6 C6.069785 11.97995357 5.51241107 17.97099313 5 24 C3.35 24 1.7 24 0 24 C-0.90683762 21.27948714 -1.12842547 19.67266994 -1.1328125 16.875 C-1.13410156 16.08609375 -1.13539063 15.2971875 -1.13671875 14.484375 C-1.13285156 13.66453125 -1.12898437 12.8446875 -1.125 12 C-1.12886719 11.18015625 -1.13273438 10.3603125 -1.13671875 9.515625 C-1.13542969 8.72671875 -1.13414062 7.9378125 -1.1328125 7.125 C-1.13168457 6.40570312 -1.13055664 5.68640625 -1.12939453 4.9453125 C-1 3 -1 3 0 0 Z " fill="#26231B" transform="translate(911,562)"/>
<path d="M0 0 C7.59 0 15.18 0 23 0 C23 1.65 23 3.3 23 5 C20.36 5.33 17.72 5.66 15 6 C15 14.58 15 23.16 15 32 C13.02 32 11.04 32 9 32 C9 23.42 9 14.84 9 6 C6.03 6 3.06 6 0 6 C0 4.02 0 2.04 0 0 Z " fill="#222119" transform="translate(550,554)"/>
<path d="M0 0 C0.33 0 0.66 0 1 0 C1.03758423 1.09163452 1.03758423 1.09163452 1.07592773 2.20532227 C1.19540678 5.65775184 1.31651278 9.11012296 1.4375 12.5625 C1.48116699 13.83432129 1.52483398 15.10614258 1.56982422 16.41650391 C1.77814464 22.34955837 2.00055585 28.27904312 2.32421875 34.20703125 C3.02420777 47.21534457 2.84599547 59.99929408 2 73 C0.52227783 71.91616821 0.52227783 71.91616821 -1 70 C-1.36749268 67.02645874 -1.36749268 67.02645874 -1.35644531 63.34130859 C-1.35848969 62.66948044 -1.36053406 61.99765228 -1.36264038 61.3054657 C-1.36564718 59.08617891 -1.3471783 56.86763588 -1.328125 54.6484375 C-1.32506762 53.10812565 -1.32319134 51.56781104 -1.32244873 50.02749634 C-1.31784665 46.80110072 -1.30342232 43.57495483 -1.28125 40.34863281 C-1.25292021 36.20443344 -1.24203374 32.06043043 -1.2375679 27.91614342 C-1.23342028 24.73694886 -1.22360912 21.55779433 -1.21169281 18.37862015 C-1.20598007 16.84993436 -1.20122471 15.32124469 -1.19742584 13.79255295 C-1.19058406 11.66159981 -1.17696306 9.53080524 -1.16113281 7.39990234 C-1.15430481 6.18539398 -1.14747681 4.97088562 -1.14044189 3.71957397 C-1 1 -1 1 0 0 Z " fill="#282721" transform="translate(77,496)"/>
<path d="M0 0 C0.33 0 0.66 0 1 0 C1.8958624 13.36074398 2.28853524 26.70319299 2.55224609 40.08959961 C2.60448384 42.68351529 2.66020657 45.27731298 2.71875 47.87109375 C2.73708389 48.69226685 2.75541779 49.51343994 2.77430725 50.35949707 C2.88117649 54.46812498 3.09489183 58.50579249 3.58984375 62.58984375 C4.17194354 67.53013226 3.68296183 72.20755094 3.0625 77.125 C2.96259766 77.98609375 2.86269531 78.8471875 2.75976562 79.734375 C2.51597113 81.82404214 2.2593663 83.91220844 2 86 C1.34 86 0.68 86 0 86 C0 57.62 0 29.24 0 0 Z " fill="#313029" transform="translate(76,408)"/>
<path d="M0 0 C1.32 0 2.64 0 4 0 C4 0.66 4 1.32 4 2 C4.99 1.34 5.98 0.68 7 0 C9.6875 0.375 9.6875 0.375 12 1 C12 1.99 12 2.98 12 4 C12.66 4.33 13.32 4.66 14 5 C11.36 5.66 8.72 6.32 6 7 C5.67 12.61 5.34 18.22 5 24 C3.02 24 1.04 24 -1 24 C-1.02887236 20.18751574 -1.04675492 16.3750593 -1.0625 12.5625 C-1.07087891 11.47388672 -1.07925781 10.38527344 -1.08789062 9.26367188 C-1.09111328 8.22919922 -1.09433594 7.19472656 -1.09765625 6.12890625 C-1.10289307 5.17056885 -1.10812988 4.21223145 -1.11352539 3.22485352 C-1 1 -1 1 0 0 Z " fill="#2A2821" transform="translate(505,562)"/>
<path d="M0 0 C2.92816437 1.32788849 3.86729154 2.41830029 6 5 C6.875 8.3125 6.875 8.3125 7 11 C1.33566434 9.36363636 1.33566434 9.36363636 -0.5 7.375 C-2.02741534 5.70943787 -2.02741534 5.70943787 -4.9375 5.625 C-8.35822797 6.04386465 -9.62458518 6.53974893 -12 9 C-12.33 9.86625 -12.66 10.7325 -13 11.625 C-13.33 12.40875 -13.66 13.1925 -14 14 C-16.125 14.8125 -16.125 14.8125 -18 15 C-19.35652897 11.26954534 -19.02987333 10.06417234 -17.3125 6.375 C-13.21959683 -0.6098 -7.5581285 -1.15774801 0 0 Z " fill="#1E1C16" transform="translate(759,554)"/>
<path d="M0 0 C1.0828125 0.2475 1.0828125 0.2475 2.1875 0.5 C5.3940399 1.07005154 7.83290732 0.66287986 11 0 C11 1.98 11 3.96 11 6 C9.35 6.33 7.7 6.66 6 7 C5.40662615 10.63441482 5 14.06200692 5 17.75 C5 21 5 21 4 24 C2.35 24 0.7 24 -1 24 C-1.02887236 20.18751574 -1.04675492 16.3750593 -1.0625 12.5625 C-1.07087891 11.47388672 -1.07925781 10.38527344 -1.08789062 9.26367188 C-1.09111328 8.22919922 -1.09433594 7.19472656 -1.09765625 6.12890625 C-1.10289307 5.17056885 -1.10812988 4.21223145 -1.11352539 3.22485352 C-1 1 -1 1 0 0 Z " fill="#2D2B23" transform="translate(793,562)"/>
<path d="M0 0 C1.65 0 3.3 0 5 0 C6.47308269 2.94616538 6.00294692 5.47762594 5.87890625 8.7578125 C5.85529526 9.42086395 5.83168427 10.08391541 5.80735779 10.76705933 C5.73073184 12.88659129 5.64670357 15.00575685 5.5625 17.125 C5.50927819 18.56117994 5.4565378 19.9973778 5.40429688 21.43359375 C5.27511856 24.95595436 5.1392997 28.47802352 5 32 C3.35 32 1.7 32 0 32 C0 21.44 0 10.88 0 0 Z " fill="#26251C" transform="translate(868,554)"/>
<path d="M0 0 C1.65 0 3.3 0 5 0 C6.37432457 3.81756824 5.67975039 7.07255329 5 11 C4.01 11 3.02 11 2 11 C2.48895752 11.40774658 2.97791504 11.81549316 3.48168945 12.2355957 C5.35987877 14.41820934 5.35334764 15.39266086 5.29296875 18.23046875 C5.28330078 19.03291016 5.27363281 19.83535156 5.26367188 20.66210938 C5.23853516 21.49548828 5.21339844 22.32886719 5.1875 23.1875 C5.17396484 24.03248047 5.16042969 24.87746094 5.14648438 25.74804688 C5.11115799 27.83230384 5.05735139 29.91623277 5 32 C3.0625 32.5625 3.0625 32.5625 1 33 C0 32 0 32 -0.11352539 28.94897461 C-0.11336634 27.60008729 -0.10767612 26.25119386 -0.09765625 24.90234375 C-0.0962413 24.19348526 -0.09482635 23.48462677 -0.09336853 22.75428772 C-0.08775443 20.48198288 -0.07519963 18.20977525 -0.0625 15.9375 C-0.05748681 14.40039204 -0.05292359 12.86328255 -0.04882812 11.32617188 C-0.03778042 7.55074358 -0.02050641 3.77538829 0 0 Z " fill="#29271F" transform="translate(458,554)"/>
<path d="M0 0 C3 0.5 3 0.5 5.171875 1.890625 C8.01874414 5.95410488 7.42583713 9.92124178 7.25 14.75 C7.23195313 15.68585937 7.21390625 16.62171875 7.1953125 17.5859375 C7.14825673 19.89167015 7.08253713 22.19530945 7 24.5 C5.35 24.5 3.7 24.5 2 24.5 C1.67 18.56 1.34 12.62 1 6.5 C-0.98 6.5 -2.96 6.5 -5 6.5 C-5.66 5.84 -6.32 5.18 -7 4.5 C-4.73943528 1.7177665 -3.5944274 0.59907123 0 0 Z " fill="#1A1912" transform="translate(609,561.5)"/>
<path d="M0 0 C0.66 0.33 1.32 0.66 2 1 C1.67 1.99 1.34 2.98 1 4 C-1.64 4.33 -4.28 4.66 -7 5 C-6.67 5.99 -6.34 6.98 -6 8 C-4.02 8 -2.04 8 0 8 C0.33 7.34 0.66 6.68 1 6 C2.35439668 8.70879335 2.06501451 11.00933268 2 14 C1.34 13.34 0.68 12.68 0 12 C-0.556875 12.350625 -1.11375 12.70125 -1.6875 13.0625 C-4.63159108 14.25605044 -6.00185923 13.97439575 -9 13 C-11.3125 11.875 -11.3125 11.875 -13 10 C-13.46913089 5.62144505 -13.46943529 3.70415293 -11 0 C-6.91113345 -1.36295552 -4.25441935 -0.67530466 0 0 Z " fill="#26241D" transform="translate(782,573)"/>
<path d="M0 0 C1.65 0.33 3.3 0.66 5 1 C5 8.59 5 16.18 5 24 C3.02 24 1.04 24 -1 24 C-1.02887236 20.18751574 -1.04675492 16.3750593 -1.0625 12.5625 C-1.07087891 11.47388672 -1.07925781 10.38527344 -1.08789062 9.26367188 C-1.09111328 8.22919922 -1.09433594 7.19472656 -1.09765625 6.12890625 C-1.10289307 5.17056885 -1.10812988 4.21223145 -1.11352539 3.22485352 C-1 1 -1 1 0 0 Z " fill="#3C3931" transform="translate(878,562)"/>
<path d="M0 0 C2.15871448 1.61815101 2.91907059 2.48280596 3.34057617 5.17651367 C3.32486572 5.99869385 3.30915527 6.82087402 3.29296875 7.66796875 C3.28330078 8.56064453 3.27363281 9.45332031 3.26367188 10.37304688 C3.23853516 11.30181641 3.21339844 12.23058594 3.1875 13.1875 C3.17396484 14.12787109 3.16042969 15.06824219 3.14648438 16.03710938 C3.11113096 18.35865038 3.06178674 20.67903653 3 23 C1.35 23 -0.3 23 -2 23 C-2.06058594 21.80761719 -2.12117187 20.61523438 -2.18359375 19.38671875 C-2.26801149 17.82030075 -2.35265887 16.25389512 -2.4375 14.6875 C-2.49647461 13.50897461 -2.49647461 13.50897461 -2.55664062 12.30664062 C-2.61948242 11.1706543 -2.61948242 11.1706543 -2.68359375 10.01171875 C-2.72025146 9.31522217 -2.75690918 8.61872559 -2.79467773 7.90112305 C-2.95581153 5.7783428 -2.95581153 5.7783428 -4 3 C-6.01508358 2.26676204 -6.01508358 2.26676204 -8 2 C-4.76746204 -0.15502531 -3.74849077 -0.46856135 0 0 Z " fill="#28271F" transform="translate(698,563)"/>
<path d="M0 0 C0.99 0.495 0.99 0.495 2 1 C2.99 0.67 3.98 0.34 5 0 C5.16698752 4.14582048 5.33353648 8.29165845 5.5 12.4375 C5.54769531 13.62150391 5.59539063 14.80550781 5.64453125 16.02539062 C5.68964844 17.15009766 5.73476563 18.27480469 5.78125 19.43359375 C5.8440918 20.99678345 5.8440918 20.99678345 5.90820312 22.59155273 C6 25 6 25 6 26 C4.02 26 2.04 26 0 26 C0 17.42 0 8.84 0 0 Z " fill="#14130C" transform="translate(559,560)"/>
<path d="M0 0 C1.98 0 3.96 0 6 0 C6.176521 0.68102783 6.35304199 1.36205566 6.53491211 2.0637207 C7.33470936 5.14692465 8.13608616 8.22971588 8.9375 11.3125 C9.21529297 12.38435547 9.49308594 13.45621094 9.77929688 14.56054688 C10.18051758 16.10258789 10.18051758 16.10258789 10.58984375 17.67578125 C10.83597412 18.62364502 11.08210449 19.57150879 11.33569336 20.5480957 C11.83258072 22.38206843 12.39913787 24.19741361 13 26 C12.01 26 11.02 26 10 26 C9.67 25.01 9.34 24.02 9 23 C8.34 22.67 7.68 22.34 7 22 C6.67 22.66 6.34 23.32 6 24 C4.99589032 20.37612543 3.99741092 16.75072349 3 13.125 C2.71382813 12.09246094 2.42765625 11.05992187 2.1328125 9.99609375 C1.86210937 9.00996094 1.59140625 8.02382813 1.3125 7.0078125 C1.06113281 6.09660645 0.80976563 5.18540039 0.55078125 4.24658203 C0 2 0 2 0 0 Z " fill="#25231B" transform="translate(416,554)"/>
<path d="M0 0 C2.475 0.495 2.475 0.495 5 1 C5 8.59 5 16.18 5 24 C4.34 24.33 3.68 24.66 3 25 C2.01 24.67 1.02 24.34 0 24 C0 16.08 0 8.16 0 0 Z " fill="#24221A" transform="translate(576,562)"/>
<path d="M0 0 C0.66 0 1.32 0 2 0 C2 1.32 2 2.64 2 4 C3.093125 3.814375 4.18625 3.62875 5.3125 3.4375 C9 3 9 3 12 4 C12.33 2.68 12.66 1.36 13 0 C14.9375 0.625 14.9375 0.625 17 2 C17.75 5.125 17.75 5.125 18 8 C12.49983036 9.30267176 7.52967941 8.71033431 2 8 C1.67 8.99 1.34 9.98 1 11 C-0.98362069 8.08291076 -0.9876191 6.87619096 -0.625 3.25 C-0.41875 2.1775 -0.2125 1.105 0 0 Z " fill="#191812" transform="translate(808,568)"/>
<path d="M0 0 C3.375 2.125 3.375 2.125 6 5 C6.375 8.3125 6.375 8.3125 6 11 C3.5 9.625 3.5 9.625 1 8 C1 7.34 1 6.68 1 6 C-1.87450983 5.74951364 -1.87450983 5.74951364 -5 6 C-6.64594139 7.39588754 -6.64594139 7.39588754 -8 9 C-10.1875 9.6875 -10.1875 9.6875 -12 10 C-12.375 7.8125 -12.375 7.8125 -12 5 C-8.2707508 1.00437585 -5.66992089 -1.18123352 0 0 Z " fill="#1C1B15" transform="translate(531,562)"/>
<path d="M0 0 C2.375 1 2.375 1 4 2 C4 3.65 4 5.3 4 7 C3.01 7.495 3.01 7.495 2 8 C2 7.34 2 6.68 2 6 C-2.06294736 5.67794615 -2.06294736 5.67794615 -5.8125 7 C-7.70103144 10.18068454 -7.69956547 13.33469879 -8 17 C-8.33 17 -8.66 17 -9 17 C-9.33 14.69 -9.66 12.38 -10 10 C-10.99 10.495 -10.99 10.495 -12 11 C-12.49046322 5.60490463 -12.49046322 5.60490463 -10.125 2.6875 C-6.61335972 -0.10115552 -4.46399572 -0.26783974 0 0 Z " fill="#26251D" transform="translate(899,562)"/>
<path d="M0 0 C0.33 0 0.66 0 1 0 C1 2.31 1 4.62 1 7 C1.99 7 2.98 7 4 7 C3.02702707 9.65356255 2.30781348 10.80987991 -0.125 12.3125 C-3.96689391 13.23121376 -7.2045146 13.11164844 -11 12 C-13.93087207 9.74548302 -14.82814288 8.51557135 -16 5 C-14.02 5 -12.04 5 -10 5 C-10 5.66 -10 6.32 -10 7 C-7.03 7 -4.06 7 -1 7 C-1.020625 6.030625 -1.04125 5.06125 -1.0625 4.0625 C-1 1 -1 1 0 0 Z " fill="#39352B" transform="translate(902,582)"/>
<path d="M0 0 C3.1875 -0.25 3.1875 -0.25 6 0 C4.21946992 4.65592028 2.98307603 7.42802849 -1.4375 10 C-4.5381341 10.87035343 -6.81880732 11.28919933 -10 11 C-10.33 10.34 -10.66 9.68 -11 9 C-10.01 8.67 -9.02 8.34 -8 8 C-9.98 7.01 -11.96 6.02 -14 5 C-13.67 4.01 -13.34 3.02 -13 2 C-12.34 2.66 -11.68 3.32 -11 4 C-6.95646045 4.39181235 -6.95646045 4.39181235 -3 4 C-1.36323743 2.0399719 -1.36323743 2.0399719 0 0 Z " fill="#363229" transform="translate(761,576)"/>
<path d="M0 0 C0.99 0.33 1.98 0.66 3 1 C3.84023188 5.35332736 4.10770995 9.44442519 4.0625 13.875 C4.05347656 15.02742187 4.04445313 16.17984375 4.03515625 17.3671875 C4.02355469 18.23601563 4.01195312 19.10484375 4 20 C1.69 20 -0.62 20 -3 20 C-2.505 11.09 -2.505 11.09 -2 2 C-1.34 2 -0.68 2 0 2 C0 1.34 0 0.68 0 0 Z " fill="#242219" transform="translate(927,566)"/>
<path d="M0 0 C0.8353125 0.7734375 0.8353125 0.7734375 1.6875 1.5625 C3.88481618 3.24534035 3.88481618 3.24534035 6.375 2.8125 C9.26641637 1.91753779 12.14201748 0.99697065 15 0 C14.67995042 2.96045858 14.40971004 4.57511551 12.3125 6.75 C9.40066772 8.3239634 7.31855144 8.86725794 4 9 C0.57053453 7.74692608 -1.41331273 6.9333661 -3.375 3.8125 C-3.58125 3.214375 -3.7875 2.61625 -4 2 C-2.68 1.34 -1.36 0.68 0 0 Z " fill="#232219" transform="translate(486,578)"/>
<path d="M0 0 C0.99 0.33 1.98 0.66 3 1 C3 4.63 3 8.26 3 12 C1.1746875 11.9690625 1.1746875 11.9690625 -0.6875 11.9375 C-3.25476076 11.92389261 -5.28569709 12.06348824 -7.8125 12.625 C-10 13 -10 13 -13 11 C-12.01 11 -11.02 11 -10 11 C-10 10.34 -10 9.68 -10 9 C-9.05125 8.38125 -8.1025 7.7625 -7.125 7.125 C-4.17758128 5.12075527 -3.16146167 4.25209269 -2 1 C-1.67 1.66 -1.34 2.32 -1 3 C-0.67 2.01 -0.34 1.02 0 0 Z " fill="#1F1D17" transform="translate(723,574)"/>
<path d="M0 0 C2.475 0.495 2.475 0.495 5 1 C5 6.28 5 11.56 5 17 C4.34 17.33 3.68 17.66 3 18 C2.01 17.67 1.02 17.34 0 17 C0 11.39 0 5.78 0 0 Z " fill="#222019" transform="translate(473,569)"/>
<path d="M0 0 C0.66 0 1.32 0 2 0 C2 1.98 2 3.96 2 6 C2.66 6.33 3.32 6.66 4 7 C4.44921875 9.36328125 4.44921875 9.36328125 4.6875 12.3125 C4.77386719 13.27800781 4.86023438 14.24351562 4.94921875 15.23828125 C4.99537006 17.74820274 4.75083762 19.62328843 4 22 C2.68 22 1.36 22 0 22 C0 14.74 0 7.48 0 0 Z " fill="#0D0C06" transform="translate(793,564)"/>
<path d="M0 0 C0.33 0 0.66 0 1 0 C1.495 8.415 1.495 8.415 2 17 C-4.6 17 -11.2 17 -18 17 C-18 10 -18 10 -16 7 C-15 9 -15 9 -15 15 C-10.05 15 -5.1 15 0 15 C0 10.05 0 5.1 0 0 Z " fill="#21211B" transform="translate(571,512)"/>
<path d="M0 0 C0.33 0 0.66 0 1 0 C1 1.98 1 3.96 1 6 C1.99 6 2.98 6 4 6 C4.66 5.34 5.32 4.68 6 4 C8.5 4.375 8.5 4.375 11 5 C11.66 5 12.32 5 13 5 C13.33 4.34 13.66 3.68 14 3 C15.35439668 5.70879335 15.06501451 8.00933268 15 11 C14.34 10.34 13.68 9.68 13 9 C12.443125 9.350625 11.88625 9.70125 11.3125 10.0625 C8.36840892 11.25605044 6.99814077 10.97439575 4 10 C1.6875 8.875 1.6875 8.875 0 7 C-0.25 3.3125 -0.25 3.3125 0 0 Z " fill="#29261D" transform="translate(769,576)"/>
<path d="M0 0 C0.99 0.33 1.98 0.66 3 1 C3.33 7.93 3.66 14.86 4 22 C2.68 22 1.36 22 0 22 C0 14.74 0 7.48 0 0 Z " fill="#11110B" transform="translate(586,564)"/>
<path d="M0 0 C0.89203125 0.00902344 1.7840625 0.01804687 2.703125 0.02734375 C3.37859375 0.03894531 4.0540625 0.05054688 4.75 0.0625 C4.75 1.3825 4.75 2.7025 4.75 4.0625 C1.45 4.0625 -1.85 4.0625 -5.25 4.0625 C-5.58 5.7125 -5.91 7.3625 -6.25 9.0625 C-7.24 8.7325 -8.23 8.4025 -9.25 8.0625 C-9.25 5.7525 -9.25 3.4425 -9.25 1.0625 C-6.09493858 0.12630187 -3.28413498 -0.0432123 0 0 Z " fill="#14130C" transform="translate(491.25,571.9375)"/>
<path d="M0 0 C0.66 0.33 1.32 0.66 2 1 C2.3403125 2.670625 2.3403125 2.670625 2.6875 4.375 C3.58133648 7.95981104 3.58133648 7.95981104 5.68359375 9.12890625 C7.83505099 10.05898255 7.83505099 10.05898255 11 11 C11 11.33 11 11.66 11 12 C9.35 12 7.7 12 6 12 C6 12.66 6 13.32 6 14 C3.6875 14.3125 3.6875 14.3125 1 14 C-1.13942209 11.71794977 -2.00407041 10.08272978 -1.9921875 6.921875 C-1.37348178 1.37348178 -1.37348178 1.37348178 0 0 Z " fill="#1A1912" transform="translate(707,571)"/>
<path d="M0 0 C2.0625 0.6875 2.0625 0.6875 4 2 C4.95591978 4.20596871 5.15047076 5.44908286 4.515625 7.7734375 C3.88739915 10.48623094 3.90438335 12.96820176 3.9375 15.75 C3.95103516 17.22726562 3.95103516 17.22726562 3.96484375 18.734375 C3.97644531 19.48203125 3.98804688 20.2296875 4 21 C3.34 21 2.68 21 2 21 C1.67 15.06 1.34 9.12 1 3 C0.34 2.67 -0.32 2.34 -1 2 C-1 9.26 -1 16.52 -1 24 C-1.33 24 -1.66 24 -2 24 C-2 16.41 -2 8.82 -2 1 C-1.34 0.67 -0.68 0.34 0 0 Z " fill="#3D3931" transform="translate(587,562)"/>
<path d="M0 0 C1.9375 2 1.9375 2 3 4 C2.34 4 1.68 4 1 4 C1 4.66 1 5.32 1 6 C0.34 6 -0.32 6 -1 6 C-1.33 6.66 -1.66 7.32 -2 8 C-2.33 7.34 -2.66 6.68 -3 6 C-5.41645782 5.83312552 -5.41645782 5.83312552 -8 6 C-8.66 6.66 -9.32 7.32 -10 8 C-10.33 6.02 -10.66 4.04 -11 2 C-7.35918336 -0.33012265 -4.25058287 -0.46369995 0 0 Z " fill="#27251C" transform="translate(926,562)"/>
<path d="M0 0 C0.66 0.33 1.32 0.66 2 1 C1.67 2.98 1.34 4.96 1 7 C1.66 7 2.32 7 3 7 C2.125 12.75 2.125 12.75 1 15 C-0.98 15 -2.96 15 -5 15 C-3.35 10.05 -1.7 5.1 0 0 Z " fill="#212017" transform="translate(657,571)"/>
<path d="M0 0 C3.00183319 1.50091659 3.3670758 3.79832283 4.46875 6.85546875 C5.19489312 9.78673765 4.79261786 12.11775324 4 15 C3.01 15 2.02 15 1 15 C-1.03165952 10.66579301 -1.52060632 6.71403788 -2 2 C-1.34 2 -0.68 2 0 2 C0 1.34 0 0.68 0 0 Z " fill="#1D1C17" transform="translate(669,558)"/>
<path d="M0 0 C0.66 0.33 1.32 0.66 2 1 C2.66 0.67 3.32 0.34 4 0 C6.3329866 -0.04022391 8.66706666 -0.04320247 11 0 C10.360625 0.309375 9.72125 0.61875 9.0625 0.9375 C7.06389179 1.8345163 7.06389179 1.8345163 6 3 C6.66 3.66 7.32 4.32 8 5 C6.35 5.33 4.7 5.66 3 6 C2.67 11.28 2.34 16.56 2 22 C1.67 22 1.34 22 1 22 C0.92652344 20.39318359 0.92652344 20.39318359 0.8515625 18.75390625 C0.77654706 17.35674361 0.7009987 15.9596095 0.625 14.5625 C0.5940625 13.85544922 0.563125 13.14839844 0.53125 12.41992188 C0.42719371 10.60760812 0.22080108 8.80182012 0 7 C-0.66 6.67 -1.32 6.34 -2 6 C-2 4.68 -2 3.36 -2 2 C-1.34 2 -0.68 2 0 2 C0 1.34 0 0.68 0 0 Z " fill="#3A3730" transform="translate(686,562)"/>
<path d="M0 0 C5.99959229 4.95618494 11.80855449 10.19226619 17 16 C17 16.66 17 17.32 17 18 C17.99 18.33 18.98 18.66 20 19 C19.34 19.66 18.68 20.32 18 21 C11.73 14.73 5.46 8.46 -1 2 C-0.67 1.34 -0.34 0.68 0 0 Z " fill="#1D1D18" transform="translate(153,522)"/>
<path d="M0 0 C0.33 1.32 0.66 2.64 1 4 C1.66 4 2.32 4 3 4 C3.33 2.68 3.66 1.36 4 0 C4 5.28 4 10.56 4 16 C2.68 16 1.36 16 0 16 C0 10.72 0 5.44 0 0 Z " fill="#100F08" transform="translate(697,570)"/>
<path d="M0 0 C0.66 0 1.32 0 2 0 C2.38218767 1.65614657 2.71395102 3.32457024 3 5 C1.07864451 6.92135549 -1.738404 6.13255801 -4.29101562 6.13671875 C-5.12310547 6.13285156 -5.95519531 6.12898438 -6.8125 6.125 C-8.04323242 6.13080078 -8.04323242 6.13080078 -9.29882812 6.13671875 C-10.49088867 6.13478516 -10.49088867 6.13478516 -11.70703125 6.1328125 C-12.79721558 6.13112061 -12.79721558 6.13112061 -13.90942383 6.12939453 C-16.04928275 5.99694968 -17.94147724 5.58450089 -20 5 C-19.67 3.68 -19.34 2.36 -19 1 C-19 1.66 -19 2.32 -19 3 C-12.73 3.33 -6.46 3.66 0 4 C0 2.68 0 1.36 0 0 Z " fill="#1E1E19" transform="translate(776,457)"/>
<path d="M0 0 C0.66 0.33 1.32 0.66 2 1 C2 2.32 2 3.64 2 5 C2.99 5.33 3.98 5.66 5 6 C4.47731534 8.76276177 3.89130413 11.3260876 3 14 C2.01 14 1.02 14 0 14 C-1.41778293 11.16443413 -0.86257622 9.0091294 -0.5625 5.875 C-0.46066406 4.77929688 -0.35882813 3.68359375 -0.25390625 2.5546875 C-0.17011719 1.71164062 -0.08632813 0.86859375 0 0 Z " fill="#22211A" transform="translate(442,572)"/>
<path d="M0 0 C1.32 0 2.64 0 4 0 C3.67 7.26 3.34 14.52 3 22 C2.34 22 1.68 22 1 22 C1 15.4 1 8.8 1 2 C0.34 1.67 -0.32 1.34 -1 1 C-0.67 0.67 -0.34 0.34 0 0 Z " fill="#171710" transform="translate(878,562)"/>
<path d="M0 0 C0.99 0 1.98 0 3 0 C3 5.94 3 11.88 3 18 C1.68 17.34 0.36 16.68 -1 16 C-1.02685095 13.52076199 -1.04676547 11.0418116 -1.0625 8.5625 C-1.07506836 7.50192383 -1.07506836 7.50192383 -1.08789062 6.41992188 C-1.09653588 4.61306441 -1.05220011 2.80612397 -1 1 C-0.67 0.67 -0.34 0.34 0 0 Z " fill="#312F26" transform="translate(507,568)"/>
<path d="M0 0 C1.98 0 3.96 0 6 0 C5.01 2.97 4.02 5.94 3 9 C2.34 9 1.68 9 1 9 C0.67 9.99 0.34 10.98 0 12 C-1 11 -1 11 -1.125 7.6875 C-1.02893262 4.85351237 -0.85249568 2.66404901 0 0 Z " fill="#1F1E17" transform="translate(450,554)"/>
<path d="M0 0 C1.98 0 3.96 0 6 0 C6 0.66 6 1.32 6 2 C8.64 2.33 11.28 2.66 14 3 C13.01 3.33 12.02 3.66 11 4 C11 4.66 11 5.32 11 6 C8.25 6.75 8.25 6.75 5 7 C2.11357527 4.81567858 1.14898802 3.44696406 0 0 Z " fill="#1E1C13" transform="translate(886,587)"/>
<path d="M0 0 C0.33 0 0.66 0 1 0 C1 13.53 1 27.06 1 41 C0.01 40.34 -0.98 39.68 -2 39 C-2 38.01 -2 37.02 -2 36 C-1.34 36 -0.68 36 0 36 C0 24.12 0 12.24 0 0 Z " fill="#050503" transform="translate(369,397)"/>
<path d="M0 0 C-0.5625 2.3125 -0.5625 2.3125 -2 5 C-6.69994932 7.71150922 -9.74931841 8.40871945 -15 7 C-15 6.67 -15 6.34 -15 6 C-12.69 5.34 -10.38 4.68 -8 4 C-8 3.34 -8 2.68 -8 2 C-4.77208445 -0.1519437 -3.71599191 -0.20086443 0 0 Z " fill="#2C2A21" transform="translate(538,579)"/>
<path d="M0 0 C2.48216434 3.72324651 2.29625107 6.6322959 2.25 10.9375 C2.25773438 11.65357422 2.26546875 12.36964844 2.2734375 13.10742188 C2.25941611 16.88969269 2.10955794 19.79380678 0 23 C-1.15937374 18.39931056 -1.14882637 13.95967972 -1.125 9.25 C-1.12886719 8.47011719 -1.13273438 7.69023438 -1.13671875 6.88671875 C-1.12670133 1.12670133 -1.12670133 1.12670133 0 0 Z " fill="#38342B" transform="translate(906,566)"/>
<path d="M0 0 C0.928125 0.0825 1.85625 0.165 2.8125 0.25 C0.47403846 5.91153846 0.47403846 5.91153846 -2.875 7.625 C-3.638125 7.83125 -4.40125 8.0375 -5.1875 8.25 C-5.875 6.5 -5.875 6.5 -6.1875 4.25 C-4.57120184 0.82725095 -3.82796192 0.30023231 0 0 Z " fill="#211E17" transform="translate(764.1875,575.75)"/>
<path d="M0 0 C0.33 0.99 0.66 1.98 1 3 C-0.2065625 3.433125 -0.2065625 3.433125 -1.4375 3.875 C-4.1326468 4.73262568 -4.1326468 4.73262568 -5 7 C-6.65 7 -8.3 7 -10 7 C-9.6875 4.625 -9.6875 4.625 -9 2 C-5.5647952 -0.29013653 -4.014669 -0.17842973 0 0 Z " fill="#1B1913" transform="translate(780,563)"/>
<path d="M0 0 C0.53625 0.2475 1.0725 0.495 1.625 0.75 C1.625 1.74 1.625 2.73 1.625 3.75 C-1.5329807 6.09592852 -4.43915229 7.43927518 -8.375 7.75 C-9.365 7.09 -10.355 6.43 -11.375 5.75 C-10.385 5.75 -9.395 5.75 -8.375 5.75 C-8.375 5.09 -8.375 4.43 -8.375 3.75 C-3.23290173 -0.34030544 -3.23290173 -0.34030544 0 0 Z " fill="#27241B" transform="translate(721.375,579.25)"/>
<path d="M0 0 C0.66 0.99 1.32 1.98 2 3 C1.34 3 0.68 3 0 3 C-0.33 5.97 -0.66 8.94 -1 12 C-1.33 12 -1.66 12 -2 12 C-2.33 10.35 -2.66 8.7 -3 7 C-3.33 7 -3.66 7 -4 7 C-4.33 8.98 -4.66 10.96 -5 13 C-5.66 12.34 -6.32 11.68 -7 11 C-6.96712417 8.27130593 -6.43602229 5.7033382 -6 3 C-4.02 3.495 -4.02 3.495 -2 4 C-1.34 2.68 -0.68 1.36 0 0 Z " fill="#2A2720" transform="translate(711,565)"/>
<path d="M0 0 C1.65 0 3.3 0 5 0 C6.125 4.75 6.125 4.75 5 7 C4.01 6.67 3.02 6.34 2 6 C2 7.65 2 9.3 2 11 C1.34 10.67 0.68 10.34 0 10 C0 6.7 0 3.4 0 0 Z " fill="#2C2922" transform="translate(720,554)"/>
<path d="M0 0 C0.99 0 1.98 0 3 0 C2.835 0.680625 2.67 1.36125 2.5 2.0625 C1.88144615 5.09962439 1.88144615 5.09962439 2.125 8.625 C2 12 2 12 0.4921875 13.7109375 C-0.00023437 14.13632812 -0.49265625 14.56171875 -1 15 C-1.02685412 12.68756208 -1.04632841 10.3750373 -1.0625 8.0625 C-1.07410156 6.77472656 -1.08570313 5.48695313 -1.09765625 4.16015625 C-1 1 -1 1 0 0 Z " fill="#16160F" transform="translate(432,561)"/>
<path d="M0 0 C0.66 0 1.32 0 2 0 C2 1.32 2 2.64 2 4 C3.98 4 5.96 4 8 4 C6.71034824 5.37562854 5.37310707 6.70766393 4 8 C3.34 8 2.68 8 2 8 C1.67 8.99 1.34 9.98 1 11 C-0.98362069 8.08291076 -0.9876191 6.87619096 -0.625 3.25 C-0.41875 2.1775 -0.2125 1.105 0 0 Z " fill="#12120C" transform="translate(808,568)"/>
<path d="M0 0 C1.32 0 2.64 0 4 0 C4 1.98 4 3.96 4 6 C3.21625 6.103125 2.4325 6.20625 1.625 6.3125 C-1.33045181 6.77595022 -1.33045181 6.77595022 -3 10 C-3.33 8.68 -3.66 7.36 -4 6 C-3.01 5.34 -2.02 4.68 -1 4 C-0.27617533 1.94074861 -0.27617533 1.94074861 0 0 Z " fill="#26241D" transform="translate(800,562)"/>
<path d="M0 0 C1.65 0 3.3 0 5 0 C4.67 3.3 4.34 6.6 4 10 C3.01 10 2.02 10 1 10 C0.67 6.7 0.34 3.4 0 0 Z " fill="#191811" transform="translate(459,555)"/>
<path d="M0 0 C0.33 0.99 0.66 1.98 1 3 C1.66 3.33 2.32 3.66 3 4 C2.34 4 1.68 4 1 4 C1.52268466 6.76276177 2.10869587 9.3260876 3 12 C2.01 13.485 2.01 13.485 1 15 C1 14.34 1 13.68 1 13 C0.34 12.67 -0.32 12.34 -1 12 C-2.65782515 7.64228819 -1.22812498 4.33455875 0 0 Z " fill="#302D26" transform="translate(430,565)"/>
<path d="M0 0 C1.32 0.33 2.64 0.66 4 1 C3.50527325 5.57622244 3.50527325 5.57622244 1.0625 7.625 C0.381875 8.07875 -0.29875 8.5325 -1 9 C-1.66 9.99 -2.32 10.98 -3 12 C-3.25 8.6875 -3.25 8.6875 -3 5 C-1 3.0625 -1 3.0625 1 2 C0.67 1.34 0.34 0.68 0 0 Z " fill="#22221C" transform="translate(748,554)"/>
<path d="M0 0 C0.33 0 0.66 0 1 0 C1 5.28 1 10.56 1 16 C0.01 15.67 -0.98 15.34 -2 15 C-1.85816304 13.24967156 -1.71136571 11.49974466 -1.5625 9.75 C-1.48128906 8.77546875 -1.40007812 7.8009375 -1.31640625 6.796875 C-1.04925416 4.43538247 -0.64628032 2.28098935 0 0 Z " fill="#171813" transform="translate(210,474)"/>
<path d="M0 0 C3.87511727 0.54984772 5.59576506 2.27555331 8.25 5.0625 C8.95640625 5.79597656 9.6628125 6.52945313 10.390625 7.28515625 C10.92171875 7.85105469 11.4528125 8.41695312 12 9 C11.67 9.99 11.34 10.98 11 12 C9.49403892 10.54782324 7.99537896 9.08807139 6.5 7.625 C5.24703125 6.40683594 5.24703125 6.40683594 3.96875 5.1640625 C2 3 2 3 2 1 C1.34 0.67 0.68 0.34 0 0 Z " fill="#1E1E19" transform="translate(195,567)"/>
<path d="M0 0 C3.63 0 7.26 0 11 0 C10 5 10 5 8 7 C8 6.01 8 5.02 8 4 C5.36 4 2.72 4 0 4 C0 3.67 0 3.34 0 3 C3.465 2.505 3.465 2.505 7 2 C4.69 1.67 2.38 1.34 0 1 C0 0.67 0 0.34 0 0 Z " fill="#27271F" transform="translate(552,556)"/>
<path d="M0 0 C0.33 0 0.66 0 1 0 C1 5.61 1 11.22 1 17 C-0.32 16.67 -1.64 16.34 -3 16 C-2.67 13.36 -2.34 10.72 -2 8 C-1.67 8 -1.34 8 -1 8 C-1.020625 6.865625 -1.04125 5.73125 -1.0625 4.5625 C-1 1 -1 1 0 0 Z " fill="#1E1C14" transform="translate(927,569)"/>
<path d="M0 0 C2.31 0 4.62 0 7 0 C7 0.33 7 0.66 7 1 C5.02 1 3.04 1 1 1 C2.65 1.33 4.3 1.66 6 2 C5.625 3.9375 5.625 3.9375 5 6 C4.01 6.495 4.01 6.495 3 7 C0.875 6.0625 0.875 6.0625 -1 5 C-0.67 3.35 -0.34 1.7 0 0 Z " fill="#292A22" transform="translate(848,554)"/>
<path d="M0 0 C1.65 0.33 3.3 0.66 5 1 C3.6875 3.5 3.6875 3.5 2 6 C-1 6 -1 6 -3 5 C-3.33 4.34 -3.66 3.68 -4 3 C-3.01 3 -2.02 3 -1 3 C-0.67 2.01 -0.34 1.02 0 0 Z " fill="#2F2C24" transform="translate(821,578)"/>
<path d="M0 0 C-0.11409593 1.45922693 -0.24165544 2.91740598 -0.375 4.375 C-0.44460938 5.18710937 -0.51421875 5.99921875 -0.5859375 6.8359375 C-1 9 -1 9 -3 11 C-3.66 7.7 -4.32 4.4 -5 1 C-3 0 -3 0 0 0 Z " fill="#282720" transform="translate(443,569)"/>
<path d="M0 0 C0.66 1.32 1.32 2.64 2 4 C2.33 3.34 2.66 2.68 3 2 C3.66 2 4.32 2 5 2 C4.67 4.31 4.34 6.62 4 9 C2.35 8.67 0.7 8.34 -1 8 C-0.67 5.36 -0.34 2.72 0 0 Z " fill="#2E2B24" transform="translate(448,561)"/>
<path d="M0 0 C0 0.99 0 1.98 0 3 C-0.99 3.33 -1.98 3.66 -3 4 C-3 4.33 -3 4.66 -3 5 C-4.65 5 -6.3 5 -8 5 C-8.33 4.34 -8.66 3.68 -9 3 C-6.38997624 -0.48003168 -4.1689578 -0.27793052 0 0 Z " fill="#1C1A13" transform="translate(599,562)"/>
<path d="M0 0 C3.3125 -0.25 3.3125 -0.25 7 0 C8.9375 2 8.9375 2 10 4 C9.34 4 8.68 4 8 4 C8 4.66 8 5.32 8 6 C7.34 6 6.68 6 6 6 C5.67 6.66 5.34 7.32 5 8 C4.67 5.69 4.34 3.38 4 1 C2.68 0.67 1.36 0.34 0 0 Z " fill="#39362C" transform="translate(919,562)"/>
<path d="M0 0 C1.65 0.33 3.3 0.66 5 1 C4.6875 2.9375 4.6875 2.9375 4 5 C3.01 5.33 2.02 5.66 1 6 C0.34 5.67 -0.32 5.34 -1 5 C-0.67 3.35 -0.34 1.7 0 0 Z " fill="#292720" transform="translate(878,554)"/>
<path d="M0 0 C-0.66 1.65 -1.32 3.3 -2 5 C-3.32 5 -4.64 5 -6 5 C-6.66 4.01 -7.32 3.02 -8 2 C-4.77208445 -0.1519437 -3.71599191 -0.20086443 0 0 Z " fill="#2D2B21" transform="translate(640,579)"/>
<path d="M0 0 C0.33 0 0.66 0 1 0 C1 4.62 1 9.24 1 14 C0.34 14 -0.32 14 -1 14 C-1.33 15.32 -1.66 16.64 -2 18 C-2.33 18 -2.66 18 -3 18 C-3 15.69 -3 13.38 -3 11 C-2.01 11.33 -1.02 11.66 0 12 C0 8.04 0 4.08 0 0 Z " fill="#090804" transform="translate(724,560)"/>
<path d="M0 0 C-0.33 3.3 -0.66 6.6 -1 10 C-1.66 10 -2.32 10 -3 10 C-3.54372951 6.94152152 -4 4.11227195 -4 1 C-1 0 -1 0 0 0 Z " fill="#1B1A14" transform="translate(451,568)"/>
<path d="M0 0 C1.90608098 3.21182149 2.22266247 5.53882603 2.125 9.25 C2.10695313 10.14203125 2.08890625 11.0340625 2.0703125 11.953125 C2.03550781 12.96632813 2.03550781 12.96632813 2 14 C1.67 14 1.34 14 1 14 C0.67 11.69 0.34 9.38 0 7 C-0.99 7.495 -0.99 7.495 -2 8 C-2.125 5.125 -2.125 5.125 -2 2 C-1.34 1.34 -0.68 0.68 0 0 Z " fill="#10100A" transform="translate(889,565)"/>
<path d="M0 0 C0 0.66 0 1.32 0 2 C-1.64333504 3.03789581 -3.31243867 4.03567924 -5 5 C-5.66 5.66 -6.32 6.32 -7 7 C-7.33 5.02 -7.66 3.04 -8 1 C-5.07175348 0.02391783 -3.04386724 -0.08226668 0 0 Z " fill="#1B1B13" transform="translate(898,564)"/>
<path d="M0 0 C3.375 -0.125 3.375 -0.125 7 0 C7.66 0.66 8.32 1.32 9 2 C8.34 2 7.68 2 7 2 C7 3.65 7 5.3 7 7 C6.67 6.34 6.34 5.68 6 5 C4.35 5 2.7 5 1 5 C0.67 3.35 0.34 1.7 0 0 Z " fill="#292820" transform="translate(776,562)"/>
<path d="M0 0 C2 3 2 3 2 6 C2.66 6.33 3.32 6.66 4 7 C3.67 7.99 3.34 8.98 3 10 C1.35 10 -0.3 10 -2 10 C-1.46274105 6.62294375 -0.88935377 3.303314 0 0 Z " fill="#39352D" transform="translate(840,577)"/>
<path d="M0 0 C0.99 0.33 1.98 0.66 3 1 C3 2.98 3 4.96 3 7 C2.01 7.495 2.01 7.495 1 8 C0.34 7.67 -0.32 7.34 -1 7 C-1.04254356 5.00045254 -1.04080783 2.99958364 -1 1 C-0.67 0.67 -0.34 0.34 0 0 Z " fill="#16150E" transform="translate(771,575)"/>
<path d="M0 0 C0.66 0.33 1.32 0.66 2 1 C2 3.31 2 5.62 2 8 C0.68 8.33 -0.64 8.66 -2 9 C-2.25 3.375 -2.25 3.375 0 0 Z " fill="#23211A" transform="translate(796,575)"/>
<path d="M0 0 C2 1.0625 2 1.0625 4 3 C4.25 6.6875 4.25 6.6875 4 10 C2.68 9.67 1.36 9.34 0 9 C0 6.03 0 3.06 0 0 Z " fill="#181812" transform="translate(438,561)"/>
<path d="M0 0 C0.66 0 1.32 0 2 0 C1 3 1 3 -1.21484375 4.38671875 C-2.56255859 5.03060547 -2.56255859 5.03060547 -3.9375 5.6875 C-4.83339844 6.12449219 -5.72929687 6.56148437 -6.65234375 7.01171875 C-9 8 -9 8 -11 8 C-11 7.34 -11 6.68 -11 6 C-10.28972656 5.65066406 -9.57945312 5.30132813 -8.84765625 4.94140625 C-7.92855469 4.48636719 -7.00945312 4.03132812 -6.0625 3.5625 C-4.68771484 2.88380859 -4.68771484 2.88380859 -3.28515625 2.19140625 C-1.09471096 1.19474606 -1.09471096 1.19474606 0 0 Z " fill="#201F1A" transform="translate(351,611)"/>
<path d="M0 0 C0.33 0.66 0.66 1.32 1 2 C2.65 1.34 4.3 0.68 6 0 C5.67 1.32 5.34 2.64 5 4 C3.68 4 2.36 4 1 4 C1.20625 4.598125 1.4125 5.19625 1.625 5.8125 C2 8 2 8 0 11 C-0.84098656 6.98195309 -1.05404945 3.98196457 0 0 Z " fill="#312E27" transform="translate(481,569)"/>
<path d="M0 0 C0 0.66 0 1.32 0 2 C-0.99 2.495 -0.99 2.495 -2 3 C-1.67 3.99 -1.34 4.98 -1 6 C-1.66 6.66 -2.32 7.32 -3 8 C-3.99 8 -4.98 8 -6 8 C-5.62403791 5.21788056 -5.32681541 3.4120716 -3.5625 1.1875 C-2 0 -2 0 0 0 Z " fill="#14140D" transform="translate(488,563)"/>
<path d="M0 0 C2.31 0 4.62 0 7 0 C7.59732819 2.76264289 8 5.16032769 8 8 C7.34 8 6.68 8 6 8 C6 6.02 6 4.04 6 2 C4.02 2 2.04 2 0 2 C0 1.34 0 0.68 0 0 Z " fill="#2F2D27" transform="translate(617,456)"/>
<path d="M0 0 C2.64 0 5.28 0 8 0 C7.01 0.495 7.01 0.495 6 1 C6 1.66 6 2.32 6 3 C3.69 3.66 1.38 4.32 -1 5 C-0.67 3.35 -0.34 1.7 0 0 Z " fill="#171710" transform="translate(751,554)"/>
<path d="M0 0 C2.0625 0.4375 2.0625 0.4375 4 1 C4 2.32 4 3.64 4 5 C2.68 5.33 1.36 5.66 0 6 C-0.38218767 4.34385343 -0.71395102 2.67542976 -1 1 C-0.67 0.67 -0.34 0.34 0 0 Z " fill="#222019" transform="translate(577,554)"/>
<path d="M0 0 C1.65 0 3.3 0 5 0 C5 0.99 5 1.98 5 3 C1.625 3.625 1.625 3.625 -2 4 C-2.66 3.34 -3.32 2.68 -4 2 C-2.68 2 -1.36 2 0 2 C0 1.34 0 0.68 0 0 Z " fill="#322E24" transform="translate(897,591)"/>
<path d="M0 0 C2.31 0.33 4.62 0.66 7 1 C6.01 2.485 6.01 2.485 5 4 C2.6171875 4.29296875 2.6171875 4.29296875 -0.125 4.1875 C-1.03507813 4.16042969 -1.94515625 4.13335938 -2.8828125 4.10546875 C-3.58148437 4.07066406 -4.28015625 4.03585937 -5 4 C-5 3.67 -5 3.34 -5 3 C-3.35 2.67 -1.7 2.34 0 2 C0 1.34 0 0.68 0 0 Z " fill="#151510" transform="translate(629,572)"/>
<path d="M0 0 C2.4375 0.3125 2.4375 0.3125 4.4375 2.3125 C4.1075 3.3025 3.7775 4.2925 3.4375 5.3125 C2.4475 4.3225 1.4575 3.3325 0.4375 2.3125 C0.4375 2.9725 0.4375 3.6325 0.4375 4.3125 C-2.5325 3.8175 -2.5325 3.8175 -5.5625 3.3125 C-3.75137927 1.02476855 -2.95529457 0.36040178 0 0 Z " fill="#11120B" transform="translate(695.5625,562.6875)"/>
<path d="M0 0 C1.98 0.495 1.98 0.495 4 1 C4 1.99 4 2.98 4 4 C4.66 4.33 5.32 4.66 6 5 C3.69 5 1.38 5 -1 5 C-0.67 3.35 -0.34 1.7 0 0 Z " fill="#211F16" transform="translate(675,581)"/>
<path d="M0 0 C1.32 0.99 2.64 1.98 4 3 C3.34 4.32 2.68 5.64 2 7 C0.68 6.34 -0.64 5.68 -2 5 C-1.34 3.35 -0.68 1.7 0 0 Z " fill="#2D2B22" transform="translate(625,579)"/>
<path d="M0 0 C0.66 0.33 1.32 0.66 2 1 C1.67 2.98 1.34 4.96 1 7 C1.66 7 2.32 7 3 7 C2.67 7.99 2.34 8.98 2 10 C2 9.34 2 8.68 2 8 C1.01 8.33 0.02 8.66 -1 9 C-2.0326802 6.21176345 -2.04509293 5.1322726 -1.0625 2.25 C-0.711875 1.5075 -0.36125 0.765 0 0 Z " fill="#28261F" transform="translate(657,571)"/>
<path d="M0 0 C0.99 0 1.98 0 3 0 C4.0326802 2.78823655 4.04509293 3.8677274 3.0625 6.75 C2.711875 7.4925 2.36125 8.235 2 9 C1.01 8.67 0.02 8.34 -1 8 C-0.67 5.36 -0.34 2.72 0 0 Z " fill="#23231A" transform="translate(902,572)"/>
<path d="M0 0 C1.98 0 3.96 0 6 0 C6 0.66 6 1.32 6 2 C6.66 2.33 7.32 2.66 8 3 C6.02 3.66 4.04 4.32 2 5 C1.34 3.35 0.68 1.7 0 0 Z " fill="#332F25" transform="translate(886,587)"/>
<path d="M0 0 C2.31 0.66 4.62 1.32 7 2 C6 4 6 4 3.625 4.8125 C1 5 1 5 -0.8125 3.5625 C-1.204375 3.046875 -1.59625 2.53125 -2 2 C-1.34 2 -0.68 2 0 2 C0 1.34 0 0.68 0 0 Z " fill="#27241D" transform="translate(747,581)"/>
<path d="M0 0 C0.66 0.33 1.32 0.66 2 1 C1.47731534 3.76276177 0.89130413 6.3260876 0 9 C-0.99 9 -1.98 9 -3 9 C-2.49396008 6.83125748 -2.00016187 5.00032373 -1 3 C-0.67 2.01 -0.34 1.02 0 0 Z " fill="#13130D" transform="translate(445,577)"/>
<path d="M0 0 C2.62187494 1.04874998 3.79371361 1.64931313 5.25 4.125 C5.4975 4.74375 5.745 5.3625 6 6 C4.02 6.99 4.02 6.99 2 8 C1.34 5.36 0.68 2.72 0 0 Z " fill="#1D1D18" transform="translate(234,555)"/>
<path d="M0 0 C0.90105469 0.00902344 1.80210937 0.01804687 2.73046875 0.02734375 C3.41753906 0.03894531 4.10460937 0.05054688 4.8125 0.0625 C4.8125 0.3925 4.8125 0.7225 4.8125 1.0625 C3.70841797 1.26166016 3.70841797 1.26166016 2.58203125 1.46484375 C1.60621094 1.64144531 0.63039063 1.81804687 -0.375 2 C-1.33792969 2.17402344 -2.30085938 2.34804688 -3.29296875 2.52734375 C-5.92989972 3.0148735 -8.5594905 3.52921105 -11.1875 4.0625 C-7.77628592 0.32640839 -4.93646556 -0.06410994 0 0 Z " fill="#23221C" transform="translate(281.1875,340.9375)"/>
<path d="M0 0 C0 0.99 0 1.98 0 3 C-1.98 3.99 -1.98 3.99 -4 5 C-4.33 4.34 -4.66 3.68 -5 3 C-5.99 2.34 -6.98 1.68 -8 1 C-4.93251126 -0.86240388 -3.40254489 -1.2151946 0 0 Z " fill="#35332A" transform="translate(723,580)"/>
<path d="M0 0 C0.33 0.99 0.66 1.98 1 3 C0.01 3.99 -0.98 4.98 -2 6 C-2.33 5.34 -2.66 4.68 -3 4 C-5.02463255 3.34786708 -5.02463255 3.34786708 -7 3 C-4.69 2.01 -2.38 1.02 0 0 Z " fill="#302E25" transform="translate(500,578)"/>
<path d="M0 0 C0.33 0 0.66 0 1 0 C1.33 2.31 1.66 4.62 2 7 C-0.375 7.625 -0.375 7.625 -3 8 C-3.66 7.34 -4.32 6.68 -5 6 C-4.34 5.34 -3.68 4.68 -3 4 C-2.01 4 -1.02 4 0 4 C0 2.68 0 1.36 0 0 Z " fill="#24221B" transform="translate(639,569)"/>
<path d="M0 0 C0.33 0 0.66 0 1 0 C1 1.65 1 3.3 1 5 C0.01 5.33 -0.98 5.66 -2 6 C-2.33 6.99 -2.66 7.98 -3 9 C-3.33 6.69 -3.66 4.38 -4 2 C-3.34 1.67 -2.68 1.34 -2 1 C-1.67 1.66 -1.34 2.32 -1 3 C-0.67 2.01 -0.34 1.02 0 0 Z " fill="#312F26" transform="translate(423,561)"/>
<path d="M0 0 C3.7952131 1.49097658 5.61042731 3.75700849 8 7 C5 7 5 7 2.3125 4.625 C0 2 0 2 0 0 Z " fill="#161712" transform="translate(173,543)"/>
<path d="M0 0 C2 3 2 3 1.625 5.6875 C1.41875 6.450625 1.2125 7.21375 1 8 C0.01 8 -0.98 8 -2 8 C-2.33 7.01 -2.66 6.02 -3 5 C-2.34 5 -1.68 5 -1 5 C-0.67 3.35 -0.34 1.7 0 0 Z " fill="#23221C" transform="translate(859,568)"/>
<path d="M0 0 C1.32 1.32 2.64 2.64 4 4 C3.67 4.66 3.34 5.32 3 6 C0.97954558 5.39816251 -1.02111039 4.72693904 -3 4 C-3.33 3.34 -3.66 2.68 -4 2 C-2.68 2.33 -1.36 2.66 0 3 C0 2.01 0 1.02 0 0 Z " fill="#27251E" transform="translate(821,564)"/>
<path d="M0 0 C2.0625 0.4375 2.0625 0.4375 4 1 C4 2.32 4 3.64 4 5 C2.68 5.33 1.36 5.66 0 6 C-0.38218767 4.34385343 -0.71395102 2.67542976 -1 1 C-0.67 0.67 -0.34 0.34 0 0 Z " fill="#171710" transform="translate(741,563)"/>
<path d="M0 0 C0.66 0.33 1.32 0.66 2 1 C2 2.98 2 4.96 2 7 C1.01 7.33 0.02 7.66 -1 8 C-1.33 6.02 -1.66 4.04 -2 2 C-1.34 2 -0.68 2 0 2 C0 1.34 0 0.68 0 0 Z " fill="#12120C" transform="translate(669,558)"/>
<path d="M0 0 C1.9375 0.625 1.9375 0.625 4 2 C4.875 4.9375 4.875 4.9375 5 8 C4.01 9.485 4.01 9.485 3 11 C2.51171875 9.01432292 2.0234375 7.02864583 1.53515625 5.04296875 C1.08989295 3.34316798 0.55566015 1.66698046 0 0 Z " fill="#23221C" transform="translate(337,487)"/>
<path d="M0 0 C-0.33 0.99 -0.66 1.98 -1 3 C-3.875 3.625 -3.875 3.625 -7 4 C-7.66 3.34 -8.32 2.68 -9 2 C-3.375 -1.125 -3.375 -1.125 0 0 Z " fill="#191A15" transform="translate(343,595)"/>
<path d="M0 0 C5.75 -0.125 5.75 -0.125 8 1 C7.67 1.99 7.34 2.98 7 4 C4.03 3.505 4.03 3.505 1 3 C0.67 2.01 0.34 1.02 0 0 Z " fill="#17150E" transform="translate(813,582)"/>
<path d="M0 0 C2 2 2 2 2 5 C0.02 5.33 -1.96 5.66 -4 6 C-2.84826645 3.53199953 -1.95216435 1.95216435 0 0 Z " fill="#24231B" transform="translate(824,571)"/>
<path d="M0 0 C0.99 0 1.98 0 3 0 C2.45276317 3.37462715 1.9451 5.08235 0 8 C-0.38063221 5.6739143 -0.71269945 3.33944736 -1 1 C-0.67 0.67 -0.34 0.34 0 0 Z " fill="#13130B" transform="translate(903,568)"/>
<path d="M0 0 C0.99 0.33 1.98 0.66 3 1 C3 1.66 3 2.32 3 3 C2.34 3.66 1.68 4.32 1 5 C0.67 5.99 0.34 6.98 0 8 C-0.66 7.67 -1.32 7.34 -2 7 C-1.42415568 4.61435923 -0.77772405 2.33317216 0 0 Z " fill="#181710" transform="translate(625,563)"/>
<path d="M0 0 C1.32 0 2.64 0 4 0 C3.625 2.9375 3.625 2.9375 3 6 C2.01 6.495 2.01 6.495 1 7 C0.67 4.69 0.34 2.38 0 0 Z " fill="#171710" transform="translate(505,562)"/>
<path d="M0 0 C0.33 0 0.66 0 1 0 C1 1.98 1 3.96 1 6 C1.99 6.33 2.98 6.66 4 7 C3.34 7.66 2.68 8.32 2 9 C0 7 0 7 -0.125 3.375 C-0.08375 2.26125 -0.0425 1.1475 0 0 Z M5 4 C5.66 4.66 6.32 5.32 7 6 C6.01 6 5.02 6 4 6 C4.33 5.34 4.66 4.68 5 4 Z " fill="#3D3930" transform="translate(769,576)"/>
<path d="M0 0 C2 3.75 2 3.75 2 6 C0.68 6.33 -0.64 6.66 -2 7 C-2.125 4.625 -2.125 4.625 -2 2 C-1.34 1.34 -0.68 0.68 0 0 Z " fill="#13140C" transform="translate(521,565)"/>
<path d="M0 0 C2.31 0 4.62 0 7 0 C6.01 1.485 6.01 1.485 5 3 C1.875 3.1875 1.875 3.1875 -1 3 C-0.67 2.01 -0.34 1.02 0 0 Z " fill="#11110B" transform="translate(604,563)"/>
<path d="M0 0 C0.99 0.33 1.98 0.66 3 1 C3 1.99 3 2.98 3 4 C0.69 3.67 -1.62 3.34 -4 3 C-2.1875 1.4375 -2.1875 1.4375 0 0 Z " fill="#12120C" transform="translate(633,563)"/>
<path d="M0 0 C3.83736322 0.95934081 4.59660228 1.23609263 7 4 C6.67 4.99 6.34 5.98 6 7 C4.02 4.69 2.04 2.38 0 0 Z " fill="#1E1F1A" transform="translate(145,516)"/>
<path d="M0 0 C3.25543229 0.34879632 4.01873107 1.02133261 6.25 3.5625 C6.8275 4.366875 7.405 5.17125 8 6 C7.01 6 6.02 6 5 6 C4.731875 5.360625 4.46375 4.72125 4.1875 4.0625 C3.11332248 1.66868314 3.11332248 1.66868314 0 1 C0 0.67 0 0.34 0 0 Z " fill="#25251E" transform="translate(353,369)"/>
<path d="M0 0 C0.33 0.99 0.66 1.98 1 3 C-1.97 5.475 -1.97 5.475 -5 8 C-5 7.01 -5 6.02 -5 5 C-4.34 5 -3.68 5 -3 5 C-2.5359375 4.0409375 -2.5359375 4.0409375 -2.0625 3.0625 C-1 1 -1 1 0 0 Z " fill="#272620" transform="translate(361,602)"/>
<path d="M0 0 C1.65 0 3.3 0 5 0 C5 0.99 5 1.98 5 3 C3.68 3.33 2.36 3.66 1 4 C0.67 2.68 0.34 1.36 0 0 Z " fill="#191811" transform="translate(758,580)"/>
<path d="M0 0 C0 1.65 0 3.3 0 5 C-1.32 4.67 -2.64 4.34 -4 4 C-4 3.01 -4 2.02 -4 1 C-2 0 -2 0 0 0 Z " fill="#181811" transform="translate(747,578)"/>
<path d="M0 0 C1 3 1 3 0 6 C-0.99 5.67 -1.98 5.34 -3 5 C-3 3.68 -3 2.36 -3 1 C-2.01 0.67 -1.02 0.34 0 0 Z " fill="#16140F" transform="translate(858,567)"/>
<path d="M0 0 C1.98 0 3.96 0 6 0 C6.33 0.99 6.66 1.98 7 3 C4.36 3 1.72 3 -1 3 C-0.67 2.01 -0.34 1.02 0 0 Z " fill="#0F1009" transform="translate(774,563)"/>
<path d="M0 0 C0.33 0.66 0.66 1.32 1 2 C1.66 2 2.32 2 3 2 C3 3.65 3 5.3 3 7 C2.34 7 1.68 7 1 7 C1 6.01 1 5.02 1 4 C0.34 4 -0.32 4 -1 4 C-0.67 2.68 -0.34 1.36 0 0 Z " fill="#151510" transform="translate(848,558)"/>
<path d="M0 0 C0.91007812 0.10183594 1.82015625 0.20367187 2.7578125 0.30859375 C3.45648438 0.39238281 4.15515625 0.47617187 4.875 0.5625 C4.875 0.8925 4.875 1.2225 4.875 1.5625 C-1.065 2.0575 -1.065 2.0575 -7.125 2.5625 C-7.125 1.9025 -7.125 1.2425 -7.125 0.5625 C-4.50184968 -0.74907516 -2.89466564 -0.33399988 0 0 Z " fill="#24251E" transform="translate(306.125,412.4375)"/>
<path d="M0 0 C4 1 4 1 4 1 Z " fill="#48453B" transform="translate(451,552)"/>
<path d="" fill="#6A6157" transform="translate(0,0)"/>
<path d="" fill="#2E2D27" transform="translate(0,0)"/>
<path d="" fill="#443D34" transform="translate(0,0)"/>
<path d="M0 0 C2 1 2 1 2 1 Z " fill="#4B473D" transform="translate(683,560)"/>
<path d="" fill="#2E2F27" transform="translate(0,0)"/>
<path d="" fill="#454036" transform="translate(0,0)"/>
<path d="" fill="#514C42" transform="translate(0,0)"/>
<path d="" fill="#8C8473" transform="translate(0,0)"/>
<path d="" fill="#796F62" transform="translate(0,0)"/>
<path d="" fill="#877E71" transform="translate(0,0)"/>
<path d="" fill="#776E60" transform="translate(0,0)"/>
<path d="" fill="#746C5F" transform="translate(0,0)"/>
<path d="" fill="#766B60" transform="translate(0,0)"/>
<path d="" fill="#6C6758" transform="translate(0,0)"/>
<path d="" fill="#766E5D" transform="translate(0,0)"/>
<path d="" fill="#6C6359" transform="translate(0,0)"/>
<path d="" fill="#6D6657" transform="translate(0,0)"/>
<path d="" fill="#645E52" transform="translate(0,0)"/>
<path d="" fill="#5F574D" transform="translate(0,0)"/>
<path d="" fill="#6C6358" transform="translate(0,0)"/>
<path d="" fill="#676355" transform="translate(0,0)"/>
<path d="" fill="#686255" transform="translate(0,0)"/>
<path d="" fill="#74695F" transform="translate(0,0)"/>
<path d="" fill="#433D37" transform="translate(0,0)"/>
<path d="" fill="#605850" transform="translate(0,0)"/>
<path d="" fill="#35342B" transform="translate(0,0)"/>
<path d="" fill="#5B544C" transform="translate(0,0)"/>
<path d="" fill="#5E554C" transform="translate(0,0)"/>
<path d="" fill="#504B42" transform="translate(0,0)"/>
<path d="" fill="#585248" transform="translate(0,0)"/>
<path d="" fill="#565046" transform="translate(0,0)"/>
<path d="" fill="#37352F" transform="translate(0,0)"/>
<path d="" fill="#4E4C41" transform="translate(0,0)"/>
<path d="" fill="#4C493E" transform="translate(0,0)"/>
<path d="" fill="#504B42" transform="translate(0,0)"/>
<path d="" fill="#514E46" transform="translate(0,0)"/>
<path d="" fill="#3B362D" transform="translate(0,0)"/>
<path d="" fill="#49443C" transform="translate(0,0)"/>
<path d="" fill="#4A433C" transform="translate(0,0)"/>
<path d="" fill="#4A463C" transform="translate(0,0)"/>
<path d="" fill="#4A453B" transform="translate(0,0)"/>
<path d="" fill="#4A473D" transform="translate(0,0)"/>
<path d="" fill="#4F4B40" transform="translate(0,0)"/>
<path d="" fill="#4D4A43" transform="translate(0,0)"/>
<path d="" fill="#49443B" transform="translate(0,0)"/>
<path d="" fill="#48423A" transform="translate(0,0)"/>
<path d="" fill="#47443B" transform="translate(0,0)"/>
<path d="" fill="#46413B" transform="translate(0,0)"/>
<path d="" fill="#4C453C" transform="translate(0,0)"/>
<path d="" fill="#49453A" transform="translate(0,0)"/>
<path d="" fill="#49453B" transform="translate(0,0)"/>
<path d="" fill="#48463B" transform="translate(0,0)"/>
<path d="" fill="#49453C" transform="translate(0,0)"/>
<path d="" fill="#4F4E45" transform="translate(0,0)"/>
<path d="" fill="#423E39" transform="translate(0,0)"/>
<path d="" fill="#444139" transform="translate(0,0)"/>
<path d="" fill="#292923" transform="translate(0,0)"/>
<path d="" fill="#403B34" transform="translate(0,0)"/>
<path d="" fill="#2D2D27" transform="translate(0,0)"/>
<path d="" fill="#413E35" transform="translate(0,0)"/>
<path d="" fill="#37332D" transform="translate(0,0)"/>
<path d="" fill="#35332C" transform="translate(0,0)"/>
<path d="" fill="#2E2F28" transform="translate(0,0)"/>
<path d="" fill="#383630" transform="translate(0,0)"/>
<path d="" fill="#36352E" transform="translate(0,0)"/>
<path d="" fill="#36362F" transform="translate(0,0)"/>
<path d="" fill="#383430" transform="translate(0,0)"/>
<path d="" fill="#38332E" transform="translate(0,0)"/>
<path d="" fill="#33322B" transform="translate(0,0)"/>
<path d="" fill="#34332C" transform="translate(0,0)"/>
<path d="" fill="#30302B" transform="translate(0,0)"/>
<path d="" fill="#2A2C26" transform="translate(0,0)"/>
<path d="" fill="#2D2E27" transform="translate(0,0)"/>
<path d="" fill="#464239" transform="translate(0,0)"/>
<path d="" fill="#2C2C26" transform="translate(0,0)"/>
<path d="" fill="#2E2C25" transform="translate(0,0)"/>
<path d="" fill="#2F2E26" transform="translate(0,0)"/>
<path d="" fill="#34322D" transform="translate(0,0)"/>
<path d="" fill="#474239" transform="translate(0,0)"/>
<path d="" fill="#31332C" transform="translate(0,0)"/>
<path d="" fill="#303029" transform="translate(0,0)"/>
<path d="" fill="#30312A" transform="translate(0,0)"/>
<path d="" fill="#414036" transform="translate(0,0)"/>
<path d="" fill="#37342B" transform="translate(0,0)"/>
<path d="" fill="#2D2B25" transform="translate(0,0)"/>
<path d="" fill="#36342F" transform="translate(0,0)"/>
<path d="" fill="#453F37" transform="translate(0,0)"/>
<path d="" fill="#463F37" transform="translate(0,0)"/>
<path d="" fill="#443F36" transform="translate(0,0)"/>
<path d="" fill="#403A35" transform="translate(0,0)"/>
<path d="" fill="#36352F" transform="translate(0,0)"/>
<path d="" fill="#31322C" transform="translate(0,0)"/>
<path d="" fill="#413A33" transform="translate(0,0)"/>
<path d="" fill="#444136" transform="translate(0,0)"/>
<path d="" fill="#434036" transform="translate(0,0)"/>
<path d="" fill="#2F2F27" transform="translate(0,0)"/>
<path d="" fill="#403E35" transform="translate(0,0)"/>
<path d="" fill="#332F2A" transform="translate(0,0)"/>
<path d="" fill="#413F38" transform="translate(0,0)"/>
<path d="" fill="#423F35" transform="translate(0,0)"/>
<path d="" fill="#2B2925" transform="translate(0,0)"/>
<path d="" fill="#2C2E28" transform="translate(0,0)"/>
<path d="" fill="#303128" transform="translate(0,0)"/>
<path d="" fill="#2F2D29" transform="translate(0,0)"/>
<path d="" fill="#38372F" transform="translate(0,0)"/>
<path d="" fill="#66625A" transform="translate(0,0)"/>
<path d="" fill="#5D594D" transform="translate(0,0)"/>
<path d="" fill="#4A4840" transform="translate(0,0)"/>
</svg>
